<svg xmlns="http://www.w3.org/2000/svg" viewBox="0 0 1440 320"><path fill="#FF0053" fill-opacity="1" d="M0,288L13.3,240C26.7,192,53,96,80,85.3C106.7,75,133,149,160,170.7C186.7,192,213,160,240,128C266.7,96,293,64,320,85.3C346.7,107,373,181,400,224C426.7,267,453,277,480,250.7C506.7,224,533,160,560,128C586.7,96,613,96,640,80C666.7,64,693,32,720,42.7C746.7,53,773,107,800,154.7C826.7,203,853,245,880,234.7C906.7,224,933,160,960,133.3C986.7,107,1013,117,1040,144C1066.7,171,1093,213,1120,208C1146.7,203,1173,149,1200,144C1226.7,139,1253,181,1280,197.3C1306.7,213,1333,203,1360,186.7C1386.7,171,1413,149,1427,138.7L1440,128L1440,0L1426.7,0C1413.3,0,1387,0,1360,0C1333.3,0,1307,0,1280,0C1253.3,0,1227,0,1200,0C1173.3,0,1147,0,1120,0C1093.3,0,1067,0,1040,0C1013.3,0,987,0,960,0C933.3,0,907,0,880,0C853.3,0,827,0,800,0C773.3,0,747,0,720,0C693.3,0,667,0,640,0C613.3,0,587,0,560,0C533.3,0,507,0,480,0C453.3,0,427,0,400,0C373.3,0,347,0,320,0C293.3,0,267,0,240,0C213.3,0,187,0,160,0C133.3,0,107,0,80,0C53.3,0,27,0,13,0L0,0Z"></path></svg>