<svg width="327" height="144" viewBox="0 0 327 144" fill="none" xmlns="http://www.w3.org/2000/svg">
<path d="M21.28 24.176C21.28 25.5413 20.9067 26.6507 20.16 27.504C19.4347 28.3573 18.4533 28.9867 17.216 29.392C15.9787 29.7973 14.6133 30 13.12 30H1.952V7.28H15.136C16.2027 7.28 17.12 7.568 17.888 8.144C18.6773 8.69867 19.2747 9.424 19.68 10.32C20.1067 11.216 20.32 12.144 20.32 13.104C20.32 14.1493 20.0427 15.1627 19.488 16.144C18.9547 17.1253 18.144 17.8613 17.056 18.352C18.3573 18.736 19.3813 19.408 20.128 20.368C20.896 21.328 21.28 22.5973 21.28 24.176ZM8.192 12.592V16.08H12.448C12.8747 16.08 13.2587 15.9627 13.6 15.728C13.9627 15.4933 14.144 15.024 14.144 14.32C14.144 13.7013 13.9947 13.264 13.696 13.008C13.3973 12.7307 13.0453 12.592 12.64 12.592H8.192ZM14.944 22.896C14.944 22.3413 14.7947 21.8827 14.496 21.52C14.1973 21.136 13.8133 20.944 13.344 20.944H8.192V24.752H13.12C13.632 24.752 14.0587 24.592 14.4 24.272C14.7627 23.952 14.944 23.4933 14.944 22.896ZM23.6298 11.76V6.64H29.7098V11.76H23.6298ZM23.6298 30V13.168H29.7098V30H23.6298ZM41.074 30.32C39.1113 30.32 37.4367 29.9253 36.05 29.136C34.6847 28.3467 33.6393 27.3013 32.914 26C32.21 24.6987 31.858 23.3013 31.858 21.808C31.858 20.1867 32.21 18.704 32.914 17.36C33.618 15.9947 34.6527 14.9067 36.018 14.096C37.3833 13.264 39.0687 12.848 41.074 12.848C43.0793 12.848 44.7647 13.2533 46.13 14.064C47.4953 14.8747 48.53 15.9413 49.234 17.264C49.938 18.5867 50.29 20.0267 50.29 21.584C50.29 22.2453 50.2367 22.864 50.13 23.44H38.322C38.386 24.336 38.7167 24.9867 39.314 25.392C39.9113 25.776 40.562 25.968 41.266 25.968C41.9273 25.968 42.546 25.8187 43.122 25.52C43.7193 25.2213 44.114 24.8053 44.306 24.272L49.458 25.744C48.7753 27.088 47.7193 28.1867 46.29 29.04C44.8607 29.8933 43.122 30.32 41.074 30.32ZM38.194 19.792H43.762C43.6767 18.9813 43.378 18.3413 42.866 17.872C42.3753 17.4027 41.746 17.168 40.978 17.168C40.21 17.168 39.5807 17.4027 39.09 17.872C38.5993 18.3413 38.3007 18.9813 38.194 19.792ZM69.214 30H63.134V20.528C63.134 19.696 62.942 19.0987 62.558 18.736C62.1953 18.352 61.7687 18.16 61.278 18.16C60.766 18.16 60.222 18.384 59.646 18.832C59.07 19.28 58.6433 19.856 58.366 20.56V30H52.286V13.168H57.758V15.664C58.3553 14.7467 59.198 14.0533 60.286 13.584C61.374 13.0933 62.6433 12.848 64.094 12.848C65.246 12.848 66.1633 13.0507 66.846 13.456C67.5287 13.8613 68.0407 14.384 68.382 15.024C68.7233 15.664 68.9473 16.336 69.054 17.04C69.1607 17.7227 69.214 18.352 69.214 18.928V30ZM76.1023 30L70.4383 13.168H76.6783L79.6863 24.592L82.7263 13.168H88.3903L82.7263 30H76.1023ZM97.699 30.32C95.7363 30.32 94.0617 29.9253 92.675 29.136C91.3097 28.3467 90.2643 27.3013 89.539 26C88.835 24.6987 88.483 23.3013 88.483 21.808C88.483 20.1867 88.835 18.704 89.539 17.36C90.243 15.9947 91.2777 14.9067 92.643 14.096C94.0083 13.264 95.6937 12.848 97.699 12.848C99.7043 12.848 101.39 13.2533 102.755 14.064C104.12 14.8747 105.155 15.9413 105.859 17.264C106.563 18.5867 106.915 20.0267 106.915 21.584C106.915 22.2453 106.862 22.864 106.755 23.44H94.947C95.011 24.336 95.3417 24.9867 95.939 25.392C96.5363 25.776 97.187 25.968 97.891 25.968C98.5523 25.968 99.171 25.8187 99.747 25.52C100.344 25.2213 100.739 24.8053 100.931 24.272L106.083 25.744C105.4 27.088 104.344 28.1867 102.915 29.04C101.486 29.8933 99.747 30.32 97.699 30.32ZM94.819 19.792H100.387C100.302 18.9813 100.003 18.3413 99.491 17.872C99.0003 17.4027 98.371 17.168 97.603 17.168C96.835 17.168 96.2057 17.4027 95.715 17.872C95.2243 18.3413 94.9257 18.9813 94.819 19.792ZM125.839 30H119.759V20.528C119.759 19.696 119.567 19.0987 119.183 18.736C118.82 18.352 118.394 18.16 117.903 18.16C117.391 18.16 116.847 18.384 116.271 18.832C115.695 19.28 115.268 19.856 114.991 20.56V30H108.911V13.168H114.383V15.664C114.98 14.7467 115.823 14.0533 116.911 13.584C117.999 13.0933 119.268 12.848 120.719 12.848C121.871 12.848 122.788 13.0507 123.471 13.456C124.154 13.8613 124.666 14.384 125.007 15.024C125.348 15.664 125.572 16.336 125.679 17.04C125.786 17.7227 125.839 18.352 125.839 18.928V30ZM128.786 11.76V6.64H134.866V11.76H128.786ZM128.786 30V13.168H134.866V30H128.786ZM137.046 21.552C137.046 19.888 137.356 18.4053 137.974 17.104C138.614 15.7813 139.489 14.7467 140.598 14C141.708 13.232 142.977 12.848 144.406 12.848C145.494 12.848 146.497 13.104 147.414 13.616C148.332 14.1067 149.025 14.7893 149.494 15.664V6.64H155.574V23.28C155.574 23.856 155.66 24.2613 155.83 24.496C156.001 24.7093 156.3 24.8373 156.726 24.88V30C155.681 30.2133 154.828 30.32 154.166 30.32C152.097 30.32 150.902 29.5413 150.582 27.984L150.454 27.376C149.878 28.4 149.1 29.1467 148.118 29.616C147.137 30.0853 146.092 30.32 144.982 30.32C143.446 30.32 142.081 29.9467 140.886 29.2C139.692 28.4533 138.753 27.4187 138.07 26.096C137.388 24.7733 137.046 23.2587 137.046 21.552ZM149.526 23.472V20.464C149.249 19.7173 148.812 19.12 148.214 18.672C147.638 18.2027 147.03 17.968 146.39 17.968C145.516 17.968 144.78 18.3307 144.182 19.056C143.606 19.7813 143.318 20.656 143.318 21.68C143.318 22.7253 143.628 23.5787 144.246 24.24C144.865 24.88 145.665 25.2 146.646 25.2C147.777 25.2 148.737 24.624 149.526 23.472ZM167.512 30.32C165.506 30.32 163.821 29.9147 162.456 29.104C161.09 28.272 160.056 27.1947 159.352 25.872C158.648 24.5493 158.296 23.12 158.296 21.584C158.296 20.0267 158.648 18.5867 159.352 17.264C160.056 15.9413 161.09 14.8747 162.456 14.064C163.821 13.2533 165.506 12.848 167.512 12.848C169.517 12.848 171.202 13.2533 172.568 14.064C173.933 14.8747 174.968 15.9413 175.672 17.264C176.376 18.5867 176.728 20.0267 176.728 21.584C176.728 23.12 176.376 24.5493 175.672 25.872C174.968 27.1947 173.933 28.272 172.568 29.104C171.202 29.9147 169.517 30.32 167.512 30.32ZM164.536 21.584C164.536 22.6933 164.813 23.5787 165.368 24.24C165.944 24.88 166.658 25.2 167.512 25.2C168.386 25.2 169.101 24.88 169.656 24.24C170.21 23.5787 170.488 22.6933 170.488 21.584C170.488 20.4533 170.21 19.568 169.656 18.928C169.101 18.288 168.386 17.968 167.512 17.968C166.658 17.968 165.944 18.288 165.368 18.928C164.813 19.568 164.536 20.4533 164.536 21.584Z" fill="white"/>
<path d="M21.28 24.176C21.28 25.5413 20.9067 26.6507 20.16 27.504C19.4347 28.3573 18.4533 28.9867 17.216 29.392C15.9787 29.7973 14.6133 30 13.12 30H1.952V7.28H15.136C16.2027 7.28 17.12 7.568 17.888 8.144C18.6773 8.69867 19.2747 9.424 19.68 10.32C20.1067 11.216 20.32 12.144 20.32 13.104C20.32 14.1493 20.0427 15.1627 19.488 16.144C18.9547 17.1253 18.144 17.8613 17.056 18.352C18.3573 18.736 19.3813 19.408 20.128 20.368C20.896 21.328 21.28 22.5973 21.28 24.176ZM8.192 12.592V16.08H12.448C12.8747 16.08 13.2587 15.9627 13.6 15.728C13.9627 15.4933 14.144 15.024 14.144 14.32C14.144 13.7013 13.9947 13.264 13.696 13.008C13.3973 12.7307 13.0453 12.592 12.64 12.592H8.192ZM14.944 22.896C14.944 22.3413 14.7947 21.8827 14.496 21.52C14.1973 21.136 13.8133 20.944 13.344 20.944H8.192V24.752H13.12C13.632 24.752 14.0587 24.592 14.4 24.272C14.7627 23.952 14.944 23.4933 14.944 22.896ZM23.6298 11.76V6.64H29.7098V11.76H23.6298ZM23.6298 30V13.168H29.7098V30H23.6298ZM41.074 30.32C39.1113 30.32 37.4367 29.9253 36.05 29.136C34.6847 28.3467 33.6393 27.3013 32.914 26C32.21 24.6987 31.858 23.3013 31.858 21.808C31.858 20.1867 32.21 18.704 32.914 17.36C33.618 15.9947 34.6527 14.9067 36.018 14.096C37.3833 13.264 39.0687 12.848 41.074 12.848C43.0793 12.848 44.7647 13.2533 46.13 14.064C47.4953 14.8747 48.53 15.9413 49.234 17.264C49.938 18.5867 50.29 20.0267 50.29 21.584C50.29 22.2453 50.2367 22.864 50.13 23.44H38.322C38.386 24.336 38.7167 24.9867 39.314 25.392C39.9113 25.776 40.562 25.968 41.266 25.968C41.9273 25.968 42.546 25.8187 43.122 25.52C43.7193 25.2213 44.114 24.8053 44.306 24.272L49.458 25.744C48.7753 27.088 47.7193 28.1867 46.29 29.04C44.8607 29.8933 43.122 30.32 41.074 30.32ZM38.194 19.792H43.762C43.6767 18.9813 43.378 18.3413 42.866 17.872C42.3753 17.4027 41.746 17.168 40.978 17.168C40.21 17.168 39.5807 17.4027 39.09 17.872C38.5993 18.3413 38.3007 18.9813 38.194 19.792ZM69.214 30H63.134V20.528C63.134 19.696 62.942 19.0987 62.558 18.736C62.1953 18.352 61.7687 18.16 61.278 18.16C60.766 18.16 60.222 18.384 59.646 18.832C59.07 19.28 58.6433 19.856 58.366 20.56V30H52.286V13.168H57.758V15.664C58.3553 14.7467 59.198 14.0533 60.286 13.584C61.374 13.0933 62.6433 12.848 64.094 12.848C65.246 12.848 66.1633 13.0507 66.846 13.456C67.5287 13.8613 68.0407 14.384 68.382 15.024C68.7233 15.664 68.9473 16.336 69.054 17.04C69.1607 17.7227 69.214 18.352 69.214 18.928V30ZM76.1023 30L70.4383 13.168H76.6783L79.6863 24.592L82.7263 13.168H88.3903L82.7263 30H76.1023ZM97.699 30.32C95.7363 30.32 94.0617 29.9253 92.675 29.136C91.3097 28.3467 90.2643 27.3013 89.539 26C88.835 24.6987 88.483 23.3013 88.483 21.808C88.483 20.1867 88.835 18.704 89.539 17.36C90.243 15.9947 91.2777 14.9067 92.643 14.096C94.0083 13.264 95.6937 12.848 97.699 12.848C99.7043 12.848 101.39 13.2533 102.755 14.064C104.12 14.8747 105.155 15.9413 105.859 17.264C106.563 18.5867 106.915 20.0267 106.915 21.584C106.915 22.2453 106.862 22.864 106.755 23.44H94.947C95.011 24.336 95.3417 24.9867 95.939 25.392C96.5363 25.776 97.187 25.968 97.891 25.968C98.5523 25.968 99.171 25.8187 99.747 25.52C100.344 25.2213 100.739 24.8053 100.931 24.272L106.083 25.744C105.4 27.088 104.344 28.1867 102.915 29.04C101.486 29.8933 99.747 30.32 97.699 30.32ZM94.819 19.792H100.387C100.302 18.9813 100.003 18.3413 99.491 17.872C99.0003 17.4027 98.371 17.168 97.603 17.168C96.835 17.168 96.2057 17.4027 95.715 17.872C95.2243 18.3413 94.9257 18.9813 94.819 19.792ZM125.839 30H119.759V20.528C119.759 19.696 119.567 19.0987 119.183 18.736C118.82 18.352 118.394 18.16 117.903 18.16C117.391 18.16 116.847 18.384 116.271 18.832C115.695 19.28 115.268 19.856 114.991 20.56V30H108.911V13.168H114.383V15.664C114.98 14.7467 115.823 14.0533 116.911 13.584C117.999 13.0933 119.268 12.848 120.719 12.848C121.871 12.848 122.788 13.0507 123.471 13.456C124.154 13.8613 124.666 14.384 125.007 15.024C125.348 15.664 125.572 16.336 125.679 17.04C125.786 17.7227 125.839 18.352 125.839 18.928V30ZM128.786 11.76V6.64H134.866V11.76H128.786ZM128.786 30V13.168H134.866V30H128.786ZM137.046 21.552C137.046 19.888 137.356 18.4053 137.974 17.104C138.614 15.7813 139.489 14.7467 140.598 14C141.708 13.232 142.977 12.848 144.406 12.848C145.494 12.848 146.497 13.104 147.414 13.616C148.332 14.1067 149.025 14.7893 149.494 15.664V6.64H155.574V23.28C155.574 23.856 155.66 24.2613 155.83 24.496C156.001 24.7093 156.3 24.8373 156.726 24.88V30C155.681 30.2133 154.828 30.32 154.166 30.32C152.097 30.32 150.902 29.5413 150.582 27.984L150.454 27.376C149.878 28.4 149.1 29.1467 148.118 29.616C147.137 30.0853 146.092 30.32 144.982 30.32C143.446 30.32 142.081 29.9467 140.886 29.2C139.692 28.4533 138.753 27.4187 138.07 26.096C137.388 24.7733 137.046 23.2587 137.046 21.552ZM149.526 23.472V20.464C149.249 19.7173 148.812 19.12 148.214 18.672C147.638 18.2027 147.03 17.968 146.39 17.968C145.516 17.968 144.78 18.3307 144.182 19.056C143.606 19.7813 143.318 20.656 143.318 21.68C143.318 22.7253 143.628 23.5787 144.246 24.24C144.865 24.88 145.665 25.2 146.646 25.2C147.777 25.2 148.737 24.624 149.526 23.472ZM167.512 30.32C165.506 30.32 163.821 29.9147 162.456 29.104C161.09 28.272 160.056 27.1947 159.352 25.872C158.648 24.5493 158.296 23.12 158.296 21.584C158.296 20.0267 158.648 18.5867 159.352 17.264C160.056 15.9413 161.09 14.8747 162.456 14.064C163.821 13.2533 165.506 12.848 167.512 12.848C169.517 12.848 171.202 13.2533 172.568 14.064C173.933 14.8747 174.968 15.9413 175.672 17.264C176.376 18.5867 176.728 20.0267 176.728 21.584C176.728 23.12 176.376 24.5493 175.672 25.872C174.968 27.1947 173.933 28.272 172.568 29.104C171.202 29.9147 169.517 30.32 167.512 30.32ZM164.536 21.584C164.536 22.6933 164.813 23.5787 165.368 24.24C165.944 24.88 166.658 25.2 167.512 25.2C168.386 25.2 169.101 24.88 169.656 24.24C170.21 23.5787 170.488 22.6933 170.488 21.584C170.488 20.4533 170.21 19.568 169.656 18.928C169.101 18.288 168.386 17.968 167.512 17.968C166.658 17.968 165.944 18.288 165.368 18.928C164.813 19.568 164.536 20.4533 164.536 21.584Z" fill="url(#paint0_linear)"/>
<path d="M27.398 58.914H21.356L20.596 62.22H25.46V67.54H19.304L17.746 74H12.008L13.604 67.54H11.324L9.766 74H4.028L5.624 67.54H1.368V62.22H6.916L7.676 58.914H3.306V53.974H8.892L10.602 47.02H16.34L14.592 53.974H16.872L18.582 47.02H24.32L22.572 53.974H27.398V58.914ZM14.896 62.22L15.656 58.914H13.376L12.616 62.22H14.896ZM31.0778 74V47.02H43.4658C44.7831 47.02 45.9991 47.286 47.1138 47.818C48.2284 48.35 49.1911 49.072 50.0018 49.984C50.8124 50.8707 51.4331 51.8713 51.8638 52.986C52.3198 54.1007 52.5478 55.228 52.5478 56.368C52.5478 57.9133 52.2058 59.37 51.5218 60.738C50.8378 62.106 49.8878 63.2207 48.6718 64.082L54.3718 74H46.2398L41.4898 65.716H38.4878V74H31.0778ZM38.4878 59.256H43.1618C43.6178 59.256 44.0358 59.0027 44.4158 58.496C44.8211 57.9893 45.0238 57.28 45.0238 56.368C45.0238 55.4307 44.7958 54.7213 44.3398 54.24C43.8838 53.7333 43.4278 53.48 42.9718 53.48H38.4878V59.256ZM62.9523 47.02H71.2363L79.8243 74H72.3003L70.6663 68.718H63.4843L61.8883 74H54.3263L62.9523 47.02ZM69.4883 63.778L67.0943 54.278L64.5863 63.778H69.4883ZM82.066 74V47.02H89.476V74H82.066ZM101.537 60.738V74H94.1266V47.02H99.9026L110.733 60.738V47.02H118.143V74H112.253L101.537 60.738Z" fill="white"/>
<path d="M27.398 58.914H21.356L20.596 62.22H25.46V67.54H19.304L17.746 74H12.008L13.604 67.54H11.324L9.766 74H4.028L5.624 67.54H1.368V62.22H6.916L7.676 58.914H3.306V53.974H8.892L10.602 47.02H16.34L14.592 53.974H16.872L18.582 47.02H24.32L22.572 53.974H27.398V58.914ZM14.896 62.22L15.656 58.914H13.376L12.616 62.22H14.896ZM31.0778 74V47.02H43.4658C44.7831 47.02 45.9991 47.286 47.1138 47.818C48.2284 48.35 49.1911 49.072 50.0018 49.984C50.8124 50.8707 51.4331 51.8713 51.8638 52.986C52.3198 54.1007 52.5478 55.228 52.5478 56.368C52.5478 57.9133 52.2058 59.37 51.5218 60.738C50.8378 62.106 49.8878 63.2207 48.6718 64.082L54.3718 74H46.2398L41.4898 65.716H38.4878V74H31.0778ZM38.4878 59.256H43.1618C43.6178 59.256 44.0358 59.0027 44.4158 58.496C44.8211 57.9893 45.0238 57.28 45.0238 56.368C45.0238 55.4307 44.7958 54.7213 44.3398 54.24C43.8838 53.7333 43.4278 53.48 42.9718 53.48H38.4878V59.256ZM62.9523 47.02H71.2363L79.8243 74H72.3003L70.6663 68.718H63.4843L61.8883 74H54.3263L62.9523 47.02ZM69.4883 63.778L67.0943 54.278L64.5863 63.778H69.4883ZM82.066 74V47.02H89.476V74H82.066ZM101.537 60.738V74H94.1266V47.02H99.9026L110.733 60.738V47.02H118.143V74H112.253L101.537 60.738Z" fill="url(#paint1_linear)"/>
<path d="M122.775 74V47.02H141.281V53.48H130.185V57.964H139.229V63.968H130.185V74H122.775ZM144.187 74V47.02H151.597V67.54H163.833V74H144.187ZM177.787 74.228C175.634 74.228 173.785 73.8733 172.239 73.164C170.694 72.4547 169.427 71.4793 168.439 70.238C167.477 68.9967 166.767 67.578 166.311 65.982C165.855 64.3607 165.627 62.6633 165.627 60.89V47.02H173.037V60.89C173.037 62.0807 173.189 63.1953 173.493 64.234C173.823 65.2473 174.329 66.0707 175.013 66.704C175.723 67.3373 176.647 67.654 177.787 67.654C178.953 67.654 179.877 67.3373 180.561 66.704C181.271 66.0453 181.777 65.2093 182.081 64.196C182.411 63.1573 182.575 62.0553 182.575 60.89V47.02H189.985V60.89C189.985 63.398 189.542 65.6653 188.655 67.692C187.794 69.6933 186.464 71.2893 184.665 72.48C182.867 73.6453 180.574 74.228 177.787 74.228ZM213.476 67.54V74H194.248V47.02H213.134V53.48H201.658V57.28H211.462V63.284H201.658V67.54H213.476Z" fill="#FFF129"/>
<path d="M224.332 60.738V74H216.922V47.02H222.698L233.528 60.738V47.02H240.938V74H235.048L224.332 60.738ZM244.088 60.282C244.088 58.6353 244.392 57.0267 245 55.456C245.633 53.86 246.545 52.416 247.736 51.124C248.927 49.832 250.371 48.806 252.068 48.046C253.791 47.2607 255.729 46.868 257.882 46.868C260.466 46.868 262.721 47.4127 264.646 48.502C266.571 49.566 268.003 50.9847 268.94 52.758L263.278 56.786C262.949 55.8993 262.467 55.2153 261.834 54.734C261.226 54.2527 260.555 53.9233 259.82 53.746C259.111 53.5433 258.414 53.442 257.73 53.442C256.311 53.442 255.146 53.7967 254.234 54.506C253.347 55.2153 252.689 56.1147 252.258 57.204C251.827 58.268 251.612 59.37 251.612 60.51C251.612 61.7513 251.853 62.9167 252.334 64.006C252.841 65.0953 253.55 65.982 254.462 66.666C255.399 67.3247 256.514 67.654 257.806 67.654C258.49 67.654 259.187 67.5527 259.896 67.35C260.605 67.122 261.251 66.7673 261.834 66.286C262.417 65.8047 262.86 65.1587 263.164 64.348L269.206 67.958C268.674 69.2753 267.787 70.4027 266.546 71.34C265.305 72.2773 263.899 72.9993 262.328 73.506C260.757 73.9873 259.199 74.228 257.654 74.228C255.653 74.228 253.816 73.8353 252.144 73.05C250.497 72.2393 249.066 71.1753 247.85 69.858C246.659 68.5153 245.735 67.0207 245.076 65.374C244.417 63.702 244.088 62.0047 244.088 60.282ZM291.071 67.54V74H271.843V47.02H290.729V53.48H279.253V57.28H289.057V63.284H279.253V67.54H291.071ZM294.517 74V47.02H306.905C308.223 47.02 309.439 47.286 310.553 47.818C311.668 48.35 312.631 49.072 313.441 49.984C314.252 50.8707 314.873 51.8713 315.303 52.986C315.759 54.1007 315.987 55.228 315.987 56.368C315.987 57.9133 315.645 59.37 314.961 60.738C314.277 62.106 313.327 63.2207 312.111 64.082L317.811 74H309.679L304.929 65.716H301.927V74H294.517ZM301.927 59.256H306.601C307.057 59.256 307.475 59.0027 307.855 58.496C308.261 57.9893 308.463 57.28 308.463 56.368C308.463 55.4307 308.235 54.7213 307.779 54.24C307.323 53.7333 306.867 53.48 306.411 53.48H301.927V59.256Z" fill="#51E5FF"/>
<path d="M1.28 114V102.64H3.072V112.416H9.168V114H1.28ZM9.79175 111.552C9.79175 111.019 9.94108 110.555 10.2398 110.16C10.5384 109.755 10.9544 109.445 11.4878 109.232C12.0318 109.008 12.6558 108.896 13.3598 108.896C13.7331 108.896 14.1118 108.928 14.4958 108.992C14.8904 109.045 15.2371 109.125 15.5358 109.232V108.704C15.5358 108.117 15.3598 107.659 15.0078 107.328C14.6558 106.997 14.1491 106.832 13.4878 106.832C13.0291 106.832 12.5864 106.912 12.1598 107.072C11.7331 107.232 11.2904 107.467 10.8318 107.776L10.2398 106.592C10.7944 106.229 11.3491 105.957 11.9038 105.776C12.4691 105.584 13.0611 105.488 13.6798 105.488C14.7998 105.488 15.6798 105.787 16.3198 106.384C16.9704 106.971 17.2958 107.808 17.2958 108.896V112.016C17.2958 112.219 17.3278 112.363 17.3918 112.448C17.4664 112.533 17.5891 112.581 17.7598 112.592V114C17.5998 114.032 17.4558 114.053 17.3278 114.064C17.1998 114.075 17.0931 114.08 17.0078 114.08C16.6238 114.08 16.3358 113.989 16.1438 113.808C15.9624 113.616 15.8558 113.403 15.8238 113.168L15.7758 112.688C15.4131 113.157 14.9491 113.52 14.3838 113.776C13.8184 114.032 13.2478 114.16 12.6718 114.16C12.1171 114.16 11.6211 114.048 11.1838 113.824C10.7464 113.589 10.4051 113.275 10.1598 112.88C9.91442 112.485 9.79175 112.043 9.79175 111.552ZM15.1198 112.064C15.3971 111.787 15.5358 111.525 15.5358 111.28V110.32C14.9064 110.085 14.2664 109.968 13.6158 109.968C12.9758 109.968 12.4531 110.101 12.0478 110.368C11.6531 110.624 11.4557 110.971 11.4557 111.408C11.4557 111.771 11.5998 112.107 11.8878 112.416C12.1864 112.715 12.6131 112.864 13.1678 112.864C13.5411 112.864 13.9038 112.789 14.2558 112.64C14.6078 112.491 14.8958 112.299 15.1198 112.064ZM28.1361 114.16C27.4641 114.16 26.8721 114 26.3601 113.68C25.8481 113.36 25.4428 112.944 25.1441 112.432V117.408H23.3841V105.632H24.9361V107.136C25.2561 106.635 25.6721 106.235 26.1841 105.936C26.6961 105.637 27.2668 105.488 27.8961 105.488C28.6641 105.488 29.3415 105.691 29.9281 106.096C30.5255 106.491 30.9948 107.019 31.3361 107.68C31.6775 108.331 31.8481 109.04 31.8481 109.808C31.8481 110.619 31.6881 111.355 31.3681 112.016C31.0481 112.667 30.6108 113.189 30.0561 113.584C29.5015 113.968 28.8615 114.16 28.1361 114.16ZM27.5601 112.656C28.0615 112.656 28.4935 112.523 28.8561 112.256C29.2295 111.979 29.5175 111.627 29.7201 111.2C29.9335 110.763 30.0401 110.299 30.0401 109.808C30.0401 109.296 29.9228 108.827 29.6881 108.4C29.4641 107.973 29.1548 107.632 28.7601 107.376C28.3761 107.12 27.9335 106.992 27.4321 106.992C27.1335 106.992 26.8188 107.067 26.4881 107.216C26.1681 107.365 25.8855 107.563 25.6401 107.808C25.3948 108.053 25.2295 108.331 25.1441 108.64V110.832C25.3575 111.344 25.6828 111.776 26.1201 112.128C26.5681 112.48 27.0481 112.656 27.5601 112.656ZM33.447 102.32H35.207V111.584C35.207 112.011 35.271 112.283 35.399 112.4C35.527 112.517 35.687 112.576 35.879 112.576C36.0923 112.576 36.295 112.555 36.487 112.512C36.679 112.469 36.839 112.416 36.967 112.352L37.223 113.744C36.967 113.851 36.663 113.941 36.311 114.016C35.959 114.091 35.6443 114.128 35.367 114.128C34.7697 114.128 34.3003 113.963 33.959 113.632C33.6177 113.291 33.447 112.821 33.447 112.224V102.32ZM37.6355 111.552C37.6355 111.019 37.7848 110.555 38.0835 110.16C38.3822 109.755 38.7982 109.445 39.3315 109.232C39.8755 109.008 40.4995 108.896 41.2035 108.896C41.5768 108.896 41.9555 108.928 42.3395 108.992C42.7342 109.045 43.0808 109.125 43.3795 109.232V108.704C43.3795 108.117 43.2035 107.659 42.8515 107.328C42.4995 106.997 41.9928 106.832 41.3315 106.832C40.8728 106.832 40.4302 106.912 40.0035 107.072C39.5768 107.232 39.1342 107.467 38.6755 107.776L38.0835 106.592C38.6382 106.229 39.1928 105.957 39.7475 105.776C40.3128 105.584 40.9048 105.488 41.5235 105.488C42.6435 105.488 43.5235 105.787 44.1635 106.384C44.8142 106.971 45.1395 107.808 45.1395 108.896V112.016C45.1395 112.219 45.1715 112.363 45.2355 112.448C45.3102 112.533 45.4328 112.581 45.6035 112.592V114C45.4435 114.032 45.2995 114.053 45.1715 114.064C45.0435 114.075 44.9368 114.08 44.8515 114.08C44.4675 114.08 44.1795 113.989 43.9875 113.808C43.8062 113.616 43.6995 113.403 43.6675 113.168L43.6195 112.688C43.2568 113.157 42.7928 113.52 42.2275 113.776C41.6622 114.032 41.0915 114.16 40.5155 114.16C39.9608 114.16 39.4648 114.048 39.0275 113.824C38.5902 113.589 38.2488 113.275 38.0035 112.88C37.7582 112.485 37.6355 112.043 37.6355 111.552ZM42.9635 112.064C43.2408 111.787 43.3795 111.525 43.3795 111.28V110.32C42.7502 110.085 42.1102 109.968 41.4595 109.968C40.8195 109.968 40.2968 110.101 39.8915 110.368C39.4968 110.624 39.2995 110.971 39.2995 111.408C39.2995 111.771 39.4435 112.107 39.7315 112.416C40.0302 112.715 40.4568 112.864 41.0115 112.864C41.3848 112.864 41.7475 112.789 42.0995 112.64C42.4515 112.491 42.7395 112.299 42.9635 112.064ZM51.8683 113.568C51.6443 113.675 51.3349 113.797 50.9403 113.936C50.5456 114.064 50.1243 114.128 49.6763 114.128C49.1216 114.128 48.6416 113.979 48.2363 113.68C47.8416 113.381 47.6443 112.896 47.6443 112.224V106.992H46.5403V105.632H47.6443V102.88H49.4043V105.632H51.2283V106.992H49.4043V111.664C49.4256 111.963 49.5163 112.181 49.6763 112.32C49.8469 112.448 50.0549 112.512 50.3003 112.512C50.5456 112.512 50.7803 112.469 51.0043 112.384C51.2283 112.299 51.3936 112.229 51.5003 112.176L51.8683 113.568ZM52.4793 111.552C52.4793 111.019 52.6286 110.555 52.9273 110.16C53.2259 109.755 53.6419 109.445 54.1753 109.232C54.7193 109.008 55.3433 108.896 56.0473 108.896C56.4206 108.896 56.7993 108.928 57.1833 108.992C57.5779 109.045 57.9246 109.125 58.2233 109.232V108.704C58.2233 108.117 58.0473 107.659 57.6953 107.328C57.3433 106.997 56.8366 106.832 56.1753 106.832C55.7166 106.832 55.2739 106.912 54.8473 107.072C54.4206 107.232 53.9779 107.467 53.5193 107.776L52.9273 106.592C53.4819 106.229 54.0366 105.957 54.5913 105.776C55.1566 105.584 55.7486 105.488 56.3673 105.488C57.4873 105.488 58.3673 105.787 59.0073 106.384C59.6579 106.971 59.9833 107.808 59.9833 108.896V112.016C59.9833 112.219 60.0153 112.363 60.0793 112.448C60.1539 112.533 60.2766 112.581 60.4473 112.592V114C60.2873 114.032 60.1433 114.053 60.0153 114.064C59.8873 114.075 59.7806 114.08 59.6953 114.08C59.3113 114.08 59.0233 113.989 58.8313 113.808C58.6499 113.616 58.5433 113.403 58.5113 113.168L58.4633 112.688C58.1006 113.157 57.6366 113.52 57.0713 113.776C56.5059 114.032 55.9353 114.16 55.3593 114.16C54.8046 114.16 54.3086 114.048 53.8713 113.824C53.4339 113.589 53.0926 113.275 52.8473 112.88C52.6019 112.485 52.4793 112.043 52.4793 111.552ZM57.8073 112.064C58.0846 111.787 58.2233 111.525 58.2233 111.28V110.32C57.5939 110.085 56.9539 109.968 56.3033 109.968C55.6633 109.968 55.1406 110.101 54.7353 110.368C54.3406 110.624 54.1432 110.971 54.1432 111.408C54.1432 111.771 54.2873 112.107 54.5753 112.416C54.8739 112.715 55.3006 112.864 55.8553 112.864C56.2286 112.864 56.5913 112.789 56.9433 112.64C57.2953 112.491 57.5833 112.299 57.8073 112.064ZM62.5516 114V107.2H61.4316V105.84H62.5516V105.504C62.5516 104.48 62.7916 103.669 63.2716 103.072C63.7623 102.464 64.413 102.16 65.2236 102.16C65.9063 102.16 66.557 102.331 67.1756 102.672L66.7916 103.984C66.6316 103.888 66.4396 103.808 66.2156 103.744C66.0023 103.68 65.7943 103.648 65.5916 103.648C65.1756 103.648 64.8556 103.803 64.6316 104.112C64.4183 104.421 64.3116 104.869 64.3116 105.456V105.84H66.4556V107.2H64.3116V114H62.5516ZM71.3941 114.16C70.5195 114.16 69.7568 113.963 69.1061 113.568C68.4661 113.163 67.9701 112.635 67.6181 111.984C67.2661 111.323 67.0901 110.603 67.0901 109.824C67.0901 109.045 67.2661 108.331 67.6181 107.68C67.9808 107.019 68.4821 106.491 69.1221 106.096C69.7728 105.691 70.5301 105.488 71.3941 105.488C72.2581 105.488 73.0101 105.691 73.6501 106.096C74.3008 106.491 74.8021 107.019 75.1541 107.68C75.5168 108.331 75.6981 109.045 75.6981 109.824C75.6981 110.603 75.5221 111.323 75.1701 111.984C74.8181 112.635 74.3168 113.163 73.6661 113.568C73.0261 113.963 72.2688 114.16 71.3941 114.16ZM68.8981 109.84C68.8981 110.373 69.0101 110.853 69.2341 111.28C69.4581 111.707 69.7568 112.043 70.1301 112.288C70.5035 112.533 70.9248 112.656 71.3941 112.656C71.8528 112.656 72.2688 112.533 72.6421 112.288C73.0261 112.032 73.3301 111.691 73.5541 111.264C73.7781 110.837 73.8901 110.357 73.8901 109.824C73.8901 109.291 73.7781 108.811 73.5541 108.384C73.3301 107.957 73.0261 107.621 72.6421 107.376C72.2688 107.12 71.8528 106.992 71.3941 106.992C70.9355 106.992 70.5141 107.12 70.1301 107.376C69.7568 107.621 69.4581 107.963 69.2341 108.4C69.0101 108.827 68.8981 109.307 68.8981 109.84ZM81.9631 107.152C81.2805 107.173 80.6725 107.333 80.1391 107.632C79.6165 107.92 79.2431 108.336 79.0191 108.88V114H77.2591V105.632H78.8911V107.504C79.1791 106.928 79.5578 106.469 80.0271 106.128C80.4965 105.776 80.9925 105.584 81.5151 105.552C81.6111 105.552 81.6965 105.552 81.7711 105.552C81.8458 105.552 81.9098 105.557 81.9631 105.568V107.152ZM96.0435 114H94.2835V109.312C94.2835 108.544 94.1555 107.979 93.8995 107.616C93.6435 107.243 93.2702 107.056 92.7795 107.056C92.2888 107.056 91.8302 107.243 91.4035 107.616C90.9875 107.979 90.6942 108.453 90.5235 109.04V114H88.7635V109.312C88.7635 108.523 88.6355 107.952 88.3795 107.6C88.1235 107.237 87.7555 107.056 87.2755 107.056C86.7848 107.056 86.3262 107.237 85.8995 107.6C85.4835 107.963 85.1848 108.437 85.0035 109.024V114H83.2435V105.632H84.8435V107.312C85.1635 106.725 85.5955 106.277 86.1395 105.968C86.6835 105.648 87.3022 105.488 87.9955 105.488C88.6888 105.488 89.2328 105.669 89.6275 106.032C90.0328 106.395 90.2835 106.848 90.3795 107.392C91.1048 106.123 92.1555 105.488 93.5315 105.488C94.1928 105.488 94.7048 105.648 95.0675 105.968C95.4302 106.277 95.6808 106.693 95.8195 107.216C95.9688 107.728 96.0435 108.288 96.0435 108.896V114ZM97.4636 111.552C97.4636 111.019 97.613 110.555 97.9116 110.16C98.2103 109.755 98.6263 109.445 99.1596 109.232C99.7036 109.008 100.328 108.896 101.032 108.896C101.405 108.896 101.784 108.928 102.168 108.992C102.562 109.045 102.909 109.125 103.208 109.232V108.704C103.208 108.117 103.032 107.659 102.68 107.328C102.328 106.997 101.821 106.832 101.16 106.832C100.701 106.832 100.258 106.912 99.8316 107.072C99.405 107.232 98.9623 107.467 98.5036 107.776L97.9116 106.592C98.4663 106.229 99.021 105.957 99.5756 105.776C100.141 105.584 100.733 105.488 101.352 105.488C102.472 105.488 103.352 105.787 103.992 106.384C104.642 106.971 104.968 107.808 104.968 108.896V112.016C104.968 112.219 105 112.363 105.064 112.448C105.138 112.533 105.261 112.581 105.432 112.592V114C105.272 114.032 105.128 114.053 105 114.064C104.872 114.075 104.765 114.08 104.68 114.08C104.296 114.08 104.008 113.989 103.816 113.808C103.634 113.616 103.528 113.403 103.496 113.168L103.448 112.688C103.085 113.157 102.621 113.52 102.056 113.776C101.49 114.032 100.92 114.16 100.344 114.16C99.789 114.16 99.293 114.048 98.8556 113.824C98.4183 113.589 98.077 113.275 97.8316 112.88C97.5863 112.485 97.4636 112.043 97.4636 111.552ZM102.792 112.064C103.069 111.787 103.208 111.525 103.208 111.28V110.32C102.578 110.085 101.938 109.968 101.288 109.968C100.648 109.968 100.125 110.101 99.7196 110.368C99.325 110.624 99.1276 110.971 99.1276 111.408C99.1276 111.771 99.2716 112.107 99.5596 112.416C99.8583 112.715 100.285 112.864 100.84 112.864C101.213 112.864 101.576 112.789 101.928 112.64C102.28 112.491 102.568 112.299 102.792 112.064ZM114.032 114.16C113.328 114.16 112.661 114.043 112.032 113.808C111.403 113.573 110.864 113.232 110.416 112.784L111.072 111.6C111.552 112.027 112.032 112.336 112.512 112.528C112.992 112.72 113.477 112.816 113.968 112.816C114.459 112.816 114.859 112.725 115.168 112.544C115.477 112.352 115.632 112.075 115.632 111.712C115.632 111.456 115.552 111.259 115.392 111.12C115.232 110.981 114.997 110.869 114.688 110.784C114.389 110.699 114.027 110.592 113.6 110.464C113.003 110.283 112.501 110.096 112.096 109.904C111.691 109.701 111.387 109.456 111.184 109.168C110.981 108.88 110.88 108.512 110.88 108.064C110.88 107.253 111.184 106.624 111.792 106.176C112.4 105.717 113.195 105.488 114.176 105.488C114.784 105.488 115.344 105.584 115.856 105.776C116.379 105.957 116.837 106.245 117.232 106.64L116.48 107.808C115.755 107.147 114.955 106.816 114.08 106.816C113.696 106.816 113.339 106.891 113.008 107.04C112.688 107.189 112.528 107.467 112.528 107.872C112.528 108.213 112.672 108.459 112.96 108.608C113.248 108.757 113.675 108.917 114.24 109.088C114.88 109.28 115.429 109.472 115.888 109.664C116.357 109.845 116.715 110.085 116.96 110.384C117.216 110.672 117.344 111.072 117.344 111.584C117.344 112.395 117.04 113.029 116.432 113.488C115.824 113.936 115.024 114.16 114.032 114.16ZM118.915 104.256V102.32H120.675V104.256H118.915ZM118.915 114V105.632H120.675V114H118.915ZM130.294 114H128.534V109.312C128.534 108.523 128.406 107.952 128.15 107.6C127.905 107.237 127.537 107.056 127.046 107.056C126.705 107.056 126.364 107.141 126.022 107.312C125.692 107.483 125.393 107.717 125.126 108.016C124.86 108.315 124.668 108.651 124.55 109.024V114H122.79V105.632H124.39V107.312C124.71 106.757 125.174 106.315 125.782 105.984C126.39 105.653 127.062 105.488 127.798 105.488C128.46 105.488 128.972 105.648 129.334 105.968C129.697 106.277 129.948 106.688 130.086 107.2C130.225 107.712 130.294 108.277 130.294 108.896V114ZM140.082 114.16C139.218 114.16 138.461 113.963 137.81 113.568C137.16 113.173 136.653 112.651 136.29 112C135.928 111.339 135.746 110.619 135.746 109.84C135.746 109.051 135.928 108.325 136.29 107.664C136.653 107.003 137.16 106.475 137.81 106.08C138.461 105.685 139.224 105.488 140.098 105.488C140.973 105.488 141.73 105.691 142.37 106.096C143.01 106.491 143.501 107.013 143.842 107.664C144.194 108.315 144.37 109.013 144.37 109.76C144.37 110.027 144.354 110.24 144.322 110.4H137.618C137.65 110.891 137.784 111.323 138.018 111.696C138.264 112.059 138.568 112.347 138.93 112.56C139.304 112.763 139.709 112.864 140.146 112.864C140.616 112.864 141.058 112.747 141.474 112.512C141.89 112.277 142.178 111.968 142.338 111.584L143.842 112.016C143.554 112.645 143.074 113.163 142.402 113.568C141.741 113.963 140.968 114.16 140.082 114.16ZM137.57 109.232H142.626C142.584 108.752 142.445 108.331 142.21 107.968C141.976 107.595 141.672 107.307 141.298 107.104C140.936 106.891 140.53 106.784 140.082 106.784C139.645 106.784 139.24 106.891 138.866 107.104C138.504 107.307 138.205 107.595 137.97 107.968C137.736 108.331 137.602 108.752 137.57 109.232ZM150.384 113.568C150.16 113.675 149.851 113.797 149.456 113.936C149.061 114.064 148.64 114.128 148.192 114.128C147.637 114.128 147.157 113.979 146.752 113.68C146.357 113.381 146.16 112.896 146.16 112.224V106.992H145.056V105.632H146.16V102.88H147.92V105.632H149.744V106.992H147.92V111.664C147.941 111.963 148.032 112.181 148.192 112.32C148.363 112.448 148.571 112.512 148.816 112.512C149.061 112.512 149.296 112.469 149.52 112.384C149.744 112.299 149.909 112.229 150.016 112.176L150.384 113.568ZM151.603 104.256V102.32H153.363V104.256H151.603ZM151.603 114V105.632H153.363V114H151.603ZM158.662 114.16C157.937 114.16 157.291 113.963 156.726 113.568C156.171 113.163 155.739 112.635 155.43 111.984C155.121 111.323 154.966 110.597 154.966 109.808C154.966 109.019 155.137 108.299 155.478 107.648C155.83 106.987 156.299 106.464 156.886 106.08C157.483 105.685 158.155 105.488 158.902 105.488C159.542 105.488 160.118 105.643 160.63 105.952C161.142 106.261 161.553 106.661 161.862 107.152V105.632H163.414V117.408H161.654V112.432C160.95 113.584 159.953 114.16 158.662 114.16ZM159.302 112.656C159.825 112.656 160.283 112.507 160.678 112.208C161.073 111.899 161.398 111.515 161.654 111.056V108.848C161.579 108.517 161.419 108.213 161.174 107.936C160.929 107.648 160.635 107.419 160.294 107.248C159.963 107.077 159.633 106.992 159.302 106.992C158.801 106.992 158.358 107.131 157.974 107.408C157.601 107.675 157.302 108.027 157.078 108.464C156.865 108.901 156.758 109.365 156.758 109.856C156.758 110.368 156.865 110.837 157.078 111.264C157.302 111.691 157.601 112.032 157.974 112.288C158.358 112.533 158.801 112.656 159.302 112.656ZM165.445 110.752V105.632H167.205V110.4C167.205 111.904 167.738 112.656 168.805 112.656C169.306 112.656 169.781 112.501 170.229 112.192C170.677 111.872 171.023 111.424 171.269 110.848V105.632H173.029V112.016C173.029 112.219 173.066 112.363 173.141 112.448C173.215 112.533 173.338 112.581 173.509 112.592V114C173.327 114.032 173.178 114.053 173.061 114.064C172.943 114.075 172.831 114.08 172.725 114.08C172.405 114.08 172.138 113.995 171.925 113.824C171.711 113.653 171.589 113.424 171.557 113.136L171.525 112.304C171.151 112.912 170.666 113.376 170.069 113.696C169.471 114.005 168.815 114.16 168.101 114.16C167.226 114.16 166.565 113.872 166.117 113.296C165.669 112.72 165.445 111.872 165.445 110.752ZM179.067 114.16C178.203 114.16 177.445 113.963 176.795 113.568C176.144 113.173 175.637 112.651 175.275 112C174.912 111.339 174.731 110.619 174.731 109.84C174.731 109.051 174.912 108.325 175.275 107.664C175.637 107.003 176.144 106.475 176.795 106.08C177.445 105.685 178.208 105.488 179.083 105.488C179.957 105.488 180.715 105.691 181.355 106.096C181.995 106.491 182.485 107.013 182.827 107.664C183.179 108.315 183.355 109.013 183.355 109.76C183.355 110.027 183.339 110.24 183.307 110.4H176.603C176.635 110.891 176.768 111.323 177.003 111.696C177.248 112.059 177.552 112.347 177.915 112.56C178.288 112.763 178.693 112.864 179.131 112.864C179.6 112.864 180.043 112.747 180.459 112.512C180.875 112.277 181.163 111.968 181.323 111.584L182.827 112.016C182.539 112.645 182.059 113.163 181.387 113.568C180.725 113.963 179.952 114.16 179.067 114.16ZM176.555 109.232H181.611C181.568 108.752 181.429 108.331 181.195 107.968C180.96 107.595 180.656 107.307 180.283 107.104C179.92 106.891 179.515 106.784 179.067 106.784C178.629 106.784 178.224 106.891 177.851 107.104C177.488 107.307 177.189 107.595 176.955 107.968C176.72 108.331 176.587 108.752 176.555 109.232ZM189.368 113.568C189.144 113.675 188.835 113.797 188.44 113.936C188.046 114.064 187.624 114.128 187.176 114.128C186.622 114.128 186.142 113.979 185.736 113.68C185.342 113.381 185.144 112.896 185.144 112.224V106.992H184.04V105.632H185.144V102.88H186.904V105.632H188.728V106.992H186.904V111.664C186.926 111.963 187.016 112.181 187.176 112.32C187.347 112.448 187.555 112.512 187.8 112.512C188.046 112.512 188.28 112.469 188.504 112.384C188.728 112.299 188.894 112.229 189 112.176L189.368 113.568ZM189.979 111.552C189.979 111.019 190.129 110.555 190.427 110.16C190.726 109.755 191.142 109.445 191.675 109.232C192.219 109.008 192.843 108.896 193.547 108.896C193.921 108.896 194.299 108.928 194.683 108.992C195.078 109.045 195.425 109.125 195.723 109.232V108.704C195.723 108.117 195.547 107.659 195.195 107.328C194.843 106.997 194.337 106.832 193.675 106.832C193.217 106.832 192.774 106.912 192.347 107.072C191.921 107.232 191.478 107.467 191.019 107.776L190.427 106.592C190.982 106.229 191.537 105.957 192.091 105.776C192.657 105.584 193.249 105.488 193.867 105.488C194.987 105.488 195.867 105.787 196.507 106.384C197.158 106.971 197.483 107.808 197.483 108.896V112.016C197.483 112.219 197.515 112.363 197.579 112.448C197.654 112.533 197.777 112.581 197.947 112.592V114C197.787 114.032 197.643 114.053 197.515 114.064C197.387 114.075 197.281 114.08 197.195 114.08C196.811 114.08 196.523 113.989 196.331 113.808C196.15 113.616 196.043 113.403 196.011 113.168L195.963 112.688C195.601 113.157 195.137 113.52 194.571 113.776C194.006 114.032 193.435 114.16 192.859 114.16C192.305 114.16 191.809 114.048 191.371 113.824C190.934 113.589 190.593 113.275 190.347 112.88C190.102 112.485 189.979 112.043 189.979 111.552ZM195.307 112.064C195.585 111.787 195.723 111.525 195.723 111.28V110.32C195.094 110.085 194.454 109.968 193.803 109.968C193.163 109.968 192.641 110.101 192.235 110.368C191.841 110.624 191.643 110.971 191.643 111.408C191.643 111.771 191.787 112.107 192.075 112.416C192.374 112.715 192.801 112.864 193.355 112.864C193.729 112.864 194.091 112.789 194.443 112.64C194.795 112.491 195.083 112.299 195.307 112.064ZM202.595 114.16C201.891 114.16 201.224 114.043 200.595 113.808C199.965 113.573 199.427 113.232 198.979 112.784L199.635 111.6C200.115 112.027 200.595 112.336 201.075 112.528C201.555 112.72 202.04 112.816 202.531 112.816C203.021 112.816 203.421 112.725 203.731 112.544C204.04 112.352 204.195 112.075 204.195 111.712C204.195 111.456 204.115 111.259 203.955 111.12C203.795 110.981 203.56 110.869 203.251 110.784C202.952 110.699 202.589 110.592 202.163 110.464C201.565 110.283 201.064 110.096 200.659 109.904C200.253 109.701 199.949 109.456 199.747 109.168C199.544 108.88 199.443 108.512 199.443 108.064C199.443 107.253 199.747 106.624 200.355 106.176C200.963 105.717 201.757 105.488 202.739 105.488C203.347 105.488 203.907 105.584 204.419 105.776C204.941 105.957 205.4 106.245 205.795 106.64L205.043 107.808C204.317 107.147 203.517 106.816 202.643 106.816C202.259 106.816 201.901 106.891 201.571 107.04C201.251 107.189 201.091 107.467 201.091 107.872C201.091 108.213 201.235 108.459 201.523 108.608C201.811 108.757 202.237 108.917 202.803 109.088C203.443 109.28 203.992 109.472 204.451 109.664C204.92 109.845 205.277 110.085 205.523 110.384C205.779 110.672 205.907 111.072 205.907 111.584C205.907 112.395 205.603 113.029 204.995 113.488C204.387 113.936 203.587 114.16 202.595 114.16ZM216.183 114.16C215.511 114.16 214.919 114 214.407 113.68C213.895 113.36 213.49 112.944 213.191 112.432V117.408H211.431V105.632H212.983V107.136C213.303 106.635 213.719 106.235 214.231 105.936C214.743 105.637 215.314 105.488 215.943 105.488C216.711 105.488 217.388 105.691 217.975 106.096C218.572 106.491 219.042 107.019 219.383 107.68C219.724 108.331 219.895 109.04 219.895 109.808C219.895 110.619 219.735 111.355 219.415 112.016C219.095 112.667 218.658 113.189 218.103 113.584C217.548 113.968 216.908 114.16 216.183 114.16ZM215.607 112.656C216.108 112.656 216.54 112.523 216.903 112.256C217.276 111.979 217.564 111.627 217.767 111.2C217.98 110.763 218.087 110.299 218.087 109.808C218.087 109.296 217.97 108.827 217.735 108.4C217.511 107.973 217.202 107.632 216.807 107.376C216.423 107.12 215.98 106.992 215.479 106.992C215.18 106.992 214.866 107.067 214.535 107.216C214.215 107.365 213.932 107.563 213.687 107.808C213.442 108.053 213.276 108.331 213.191 108.64V110.832C213.404 111.344 213.73 111.776 214.167 112.128C214.615 112.48 215.095 112.656 215.607 112.656ZM220.87 111.552C220.87 111.019 221.019 110.555 221.318 110.16C221.617 109.755 222.033 109.445 222.566 109.232C223.11 109.008 223.734 108.896 224.438 108.896C224.811 108.896 225.19 108.928 225.574 108.992C225.969 109.045 226.315 109.125 226.614 109.232V108.704C226.614 108.117 226.438 107.659 226.086 107.328C225.734 106.997 225.227 106.832 224.566 106.832C224.107 106.832 223.665 106.912 223.238 107.072C222.811 107.232 222.369 107.467 221.91 107.776L221.318 106.592C221.873 106.229 222.427 105.957 222.982 105.776C223.547 105.584 224.139 105.488 224.758 105.488C225.878 105.488 226.758 105.787 227.398 106.384C228.049 106.971 228.374 107.808 228.374 108.896V112.016C228.374 112.219 228.406 112.363 228.47 112.448C228.545 112.533 228.667 112.581 228.838 112.592V114C228.678 114.032 228.534 114.053 228.406 114.064C228.278 114.075 228.171 114.08 228.086 114.08C227.702 114.08 227.414 113.989 227.222 113.808C227.041 113.616 226.934 113.403 226.902 113.168L226.854 112.688C226.491 113.157 226.027 113.52 225.462 113.776C224.897 114.032 224.326 114.16 223.75 114.16C223.195 114.16 222.699 114.048 222.262 113.824C221.825 113.589 221.483 113.275 221.238 112.88C220.993 112.485 220.87 112.043 220.87 111.552ZM226.198 112.064C226.475 111.787 226.614 111.525 226.614 111.28V110.32C225.985 110.085 225.345 109.968 224.694 109.968C224.054 109.968 223.531 110.101 223.126 110.368C222.731 110.624 222.534 110.971 222.534 111.408C222.534 111.771 222.678 112.107 222.966 112.416C223.265 112.715 223.691 112.864 224.246 112.864C224.619 112.864 224.982 112.789 225.334 112.64C225.686 112.491 225.974 112.299 226.198 112.064ZM235.213 107.152C234.53 107.173 233.922 107.333 233.389 107.632C232.866 107.92 232.493 108.336 232.269 108.88V114H230.509V105.632H232.141V107.504C232.429 106.928 232.808 106.469 233.277 106.128C233.746 105.776 234.242 105.584 234.765 105.552C234.861 105.552 234.946 105.552 235.021 105.552C235.096 105.552 235.16 105.557 235.213 105.568V107.152ZM235.87 111.552C235.87 111.019 236.019 110.555 236.318 110.16C236.617 109.755 237.033 109.445 237.566 109.232C238.11 109.008 238.734 108.896 239.438 108.896C239.811 108.896 240.19 108.928 240.574 108.992C240.969 109.045 241.315 109.125 241.614 109.232V108.704C241.614 108.117 241.438 107.659 241.086 107.328C240.734 106.997 240.227 106.832 239.566 106.832C239.107 106.832 238.665 106.912 238.238 107.072C237.811 107.232 237.369 107.467 236.91 107.776L236.318 106.592C236.873 106.229 237.427 105.957 237.982 105.776C238.547 105.584 239.139 105.488 239.758 105.488C240.878 105.488 241.758 105.787 242.398 106.384C243.049 106.971 243.374 107.808 243.374 108.896V112.016C243.374 112.219 243.406 112.363 243.47 112.448C243.545 112.533 243.667 112.581 243.838 112.592V114C243.678 114.032 243.534 114.053 243.406 114.064C243.278 114.075 243.171 114.08 243.086 114.08C242.702 114.08 242.414 113.989 242.222 113.808C242.041 113.616 241.934 113.403 241.902 113.168L241.854 112.688C241.491 113.157 241.027 113.52 240.462 113.776C239.897 114.032 239.326 114.16 238.75 114.16C238.195 114.16 237.699 114.048 237.262 113.824C236.825 113.589 236.483 113.275 236.238 112.88C235.993 112.485 235.87 112.043 235.87 111.552ZM241.198 112.064C241.475 111.787 241.614 111.525 241.614 111.28V110.32C240.985 110.085 240.345 109.968 239.694 109.968C239.054 109.968 238.531 110.101 238.126 110.368C237.731 110.624 237.534 110.971 237.534 111.408C237.534 111.771 237.678 112.107 237.966 112.416C238.265 112.715 238.691 112.864 239.246 112.864C239.619 112.864 239.982 112.789 240.334 112.64C240.686 112.491 240.974 112.299 241.198 112.064ZM249.478 102.32H251.238V111.584C251.238 112.011 251.302 112.283 251.43 112.4C251.558 112.517 251.718 112.576 251.91 112.576C252.124 112.576 252.326 112.555 252.518 112.512C252.71 112.469 252.87 112.416 252.998 112.352L253.254 113.744C252.998 113.851 252.694 113.941 252.342 114.016C251.99 114.091 251.676 114.128 251.398 114.128C250.801 114.128 250.332 113.963 249.99 113.632C249.649 113.291 249.478 112.821 249.478 112.224V102.32ZM258.035 114.16C257.16 114.16 256.397 113.963 255.747 113.568C255.107 113.163 254.611 112.635 254.259 111.984C253.907 111.323 253.731 110.603 253.731 109.824C253.731 109.045 253.907 108.331 254.259 107.68C254.621 107.019 255.123 106.491 255.763 106.096C256.413 105.691 257.171 105.488 258.035 105.488C258.899 105.488 259.651 105.691 260.291 106.096C260.941 106.491 261.443 107.019 261.795 107.68C262.157 108.331 262.339 109.045 262.339 109.824C262.339 110.603 262.163 111.323 261.811 111.984C261.459 112.635 260.957 113.163 260.307 113.568C259.667 113.963 258.909 114.16 258.035 114.16ZM255.539 109.84C255.539 110.373 255.651 110.853 255.875 111.28C256.099 111.707 256.397 112.043 256.771 112.288C257.144 112.533 257.565 112.656 258.035 112.656C258.493 112.656 258.909 112.533 259.283 112.288C259.667 112.032 259.971 111.691 260.195 111.264C260.419 110.837 260.531 110.357 260.531 109.824C260.531 109.291 260.419 108.811 260.195 108.384C259.971 107.957 259.667 107.621 259.283 107.376C258.909 107.12 258.493 106.992 258.035 106.992C257.576 106.992 257.155 107.12 256.771 107.376C256.397 107.621 256.099 107.963 255.875 108.4C255.651 108.827 255.539 109.307 255.539 109.84ZM266.876 114.16C266.172 114.16 265.505 114.043 264.876 113.808C264.246 113.573 263.708 113.232 263.26 112.784L263.916 111.6C264.396 112.027 264.876 112.336 265.356 112.528C265.836 112.72 266.321 112.816 266.812 112.816C267.302 112.816 267.702 112.725 268.012 112.544C268.321 112.352 268.476 112.075 268.476 111.712C268.476 111.456 268.396 111.259 268.236 111.12C268.076 110.981 267.841 110.869 267.532 110.784C267.233 110.699 266.87 110.592 266.444 110.464C265.846 110.283 265.345 110.096 264.94 109.904C264.534 109.701 264.23 109.456 264.028 109.168C263.825 108.88 263.724 108.512 263.724 108.064C263.724 107.253 264.028 106.624 264.636 106.176C265.244 105.717 266.038 105.488 267.02 105.488C267.628 105.488 268.188 105.584 268.7 105.776C269.222 105.957 269.681 106.245 270.076 106.64L269.324 107.808C268.598 107.147 267.798 106.816 266.924 106.816C266.54 106.816 266.182 106.891 265.852 107.04C265.532 107.189 265.372 107.467 265.372 107.872C265.372 108.213 265.516 108.459 265.804 108.608C266.092 108.757 266.518 108.917 267.084 109.088C267.724 109.28 268.273 109.472 268.732 109.664C269.201 109.845 269.558 110.085 269.804 110.384C270.06 110.672 270.188 111.072 270.188 111.584C270.188 112.395 269.884 113.029 269.276 113.488C268.668 113.936 267.868 114.16 266.876 114.16ZM88.9499 133.824C88.9499 133.024 89.1099 132.299 89.4299 131.648C89.7605 130.987 90.2085 130.464 90.7739 130.08C91.3392 129.685 91.9899 129.488 92.7259 129.488C93.3659 129.488 93.9419 129.653 94.4539 129.984C94.9765 130.315 95.3819 130.725 95.6699 131.216V126.32H97.4299V136.016C97.4299 136.219 97.4672 136.363 97.5419 136.448C97.6165 136.533 97.7392 136.581 97.9099 136.592V138C97.5792 138.053 97.3232 138.08 97.1419 138.08C96.8112 138.08 96.5285 137.989 96.2939 137.808C96.0699 137.616 95.9525 137.381 95.9419 137.104L95.9259 136.48C95.6059 137.013 95.1739 137.429 94.6299 137.728C94.0859 138.016 93.5205 138.16 92.9339 138.16C92.1659 138.16 91.4779 137.963 90.8699 137.568C90.2725 137.173 89.8032 136.651 89.4619 136C89.1205 135.339 88.9499 134.613 88.9499 133.824ZM95.6699 134.992V132.8C95.5419 132.459 95.3499 132.155 95.0939 131.888C94.8379 131.611 94.5445 131.392 94.2139 131.232C93.8939 131.072 93.5739 130.992 93.2539 130.992C92.7525 130.992 92.3152 131.131 91.9419 131.408C91.5792 131.675 91.2912 132.027 91.0779 132.464C90.8752 132.901 90.7739 133.365 90.7739 133.856C90.7739 134.368 90.8859 134.837 91.1099 135.264C91.3445 135.691 91.6592 136.032 92.0539 136.288C92.4485 136.533 92.8912 136.656 93.3819 136.656C93.6805 136.656 93.9899 136.587 94.3099 136.448C94.6405 136.299 94.9285 136.101 95.1739 135.856C95.4192 135.6 95.5845 135.312 95.6699 134.992ZM103.457 138.16C102.593 138.16 101.836 137.963 101.185 137.568C100.535 137.173 100.028 136.651 99.6654 136C99.3027 135.339 99.1214 134.619 99.1214 133.84C99.1214 133.051 99.3027 132.325 99.6654 131.664C100.028 131.003 100.535 130.475 101.185 130.08C101.836 129.685 102.599 129.488 103.473 129.488C104.348 129.488 105.105 129.691 105.745 130.096C106.385 130.491 106.876 131.013 107.217 131.664C107.569 132.315 107.745 133.013 107.745 133.76C107.745 134.027 107.729 134.24 107.697 134.4H100.993C101.025 134.891 101.159 135.323 101.393 135.696C101.639 136.059 101.943 136.347 102.305 136.56C102.679 136.763 103.084 136.864 103.521 136.864C103.991 136.864 104.433 136.747 104.849 136.512C105.265 136.277 105.553 135.968 105.713 135.584L107.217 136.016C106.929 136.645 106.449 137.163 105.777 137.568C105.116 137.963 104.343 138.16 103.457 138.16ZM100.945 133.232H106.001C105.959 132.752 105.82 132.331 105.585 131.968C105.351 131.595 105.047 131.307 104.673 131.104C104.311 130.891 103.905 130.784 103.457 130.784C103.02 130.784 102.615 130.891 102.241 131.104C101.879 131.307 101.58 131.595 101.345 131.968C101.111 132.331 100.977 132.752 100.945 133.232ZM113.358 138V126.64H118.302C118.814 126.64 119.283 126.747 119.71 126.96C120.137 127.173 120.505 127.456 120.814 127.808C121.134 128.16 121.379 128.555 121.55 128.992C121.731 129.429 121.822 129.877 121.822 130.336C121.822 130.848 121.726 131.333 121.534 131.792C121.353 132.24 121.097 132.629 120.766 132.96C120.435 133.291 120.046 133.531 119.598 133.68L122.27 138H120.254L117.79 134.048H115.15V138H113.358ZM115.15 132.464H118.286C118.617 132.464 118.91 132.368 119.166 132.176C119.422 131.973 119.625 131.712 119.774 131.392C119.923 131.072 119.998 130.72 119.998 130.336C119.998 129.941 119.913 129.589 119.742 129.28C119.571 128.96 119.347 128.704 119.07 128.512C118.793 128.32 118.499 128.224 118.19 128.224H115.15V132.464ZM122.964 135.552C122.964 135.019 123.113 134.555 123.412 134.16C123.71 133.755 124.126 133.445 124.66 133.232C125.204 133.008 125.828 132.896 126.532 132.896C126.905 132.896 127.284 132.928 127.668 132.992C128.062 133.045 128.409 133.125 128.708 133.232V132.704C128.708 132.117 128.532 131.659 128.18 131.328C127.828 130.997 127.321 130.832 126.66 130.832C126.201 130.832 125.758 130.912 125.332 131.072C124.905 131.232 124.462 131.467 124.004 131.776L123.412 130.592C123.966 130.229 124.521 129.957 125.076 129.776C125.641 129.584 126.233 129.488 126.852 129.488C127.972 129.488 128.852 129.787 129.492 130.384C130.142 130.971 130.468 131.808 130.468 132.896V136.016C130.468 136.219 130.5 136.363 130.564 136.448C130.638 136.533 130.761 136.581 130.932 136.592V138C130.772 138.032 130.628 138.053 130.5 138.064C130.372 138.075 130.265 138.08 130.18 138.08C129.796 138.08 129.508 137.989 129.316 137.808C129.134 137.616 129.028 137.403 128.996 137.168L128.948 136.688C128.585 137.157 128.121 137.52 127.556 137.776C126.99 138.032 126.42 138.16 125.844 138.16C125.289 138.16 124.793 138.048 124.356 137.824C123.918 137.589 123.577 137.275 123.332 136.88C123.086 136.485 122.964 136.043 122.964 135.552ZM128.292 136.064C128.569 135.787 128.708 135.525 128.708 135.28V134.32C128.078 134.085 127.438 133.968 126.788 133.968C126.148 133.968 125.625 134.101 125.22 134.368C124.825 134.624 124.628 134.971 124.628 135.408C124.628 135.771 124.772 136.107 125.06 136.416C125.358 136.715 125.785 136.864 126.34 136.864C126.713 136.864 127.076 136.789 127.428 136.64C127.78 136.491 128.068 136.299 128.292 136.064ZM132.603 128.256V126.32H134.363V128.256H132.603ZM132.603 138V129.632H134.363V138H132.603ZM143.982 138H142.222V133.312C142.222 132.523 142.094 131.952 141.838 131.6C141.593 131.237 141.225 131.056 140.734 131.056C140.393 131.056 140.051 131.141 139.71 131.312C139.379 131.483 139.081 131.717 138.814 132.016C138.547 132.315 138.355 132.651 138.238 133.024V138H136.478V129.632H138.078V131.312C138.398 130.757 138.862 130.315 139.47 129.984C140.078 129.653 140.75 129.488 141.486 129.488C142.147 129.488 142.659 129.648 143.022 129.968C143.385 130.277 143.635 130.688 143.774 131.2C143.913 131.712 143.982 132.277 143.982 132.896V138ZM150.537 138.16C149.897 138.16 149.315 138.011 148.793 137.712C148.27 137.403 147.865 136.992 147.577 136.48V138H146.025V126.32H147.785V131.216C148.115 130.683 148.526 130.261 149.017 129.952C149.518 129.643 150.105 129.488 150.777 129.488C151.523 129.488 152.174 129.691 152.729 130.096C153.283 130.501 153.715 131.04 154.025 131.712C154.334 132.373 154.489 133.088 154.489 133.856C154.489 134.645 154.313 135.365 153.961 136.016C153.619 136.667 153.15 137.189 152.553 137.584C151.955 137.968 151.283 138.16 150.537 138.16ZM150.073 136.656C150.585 136.656 151.038 136.528 151.433 136.272C151.827 136.005 152.131 135.659 152.345 135.232C152.569 134.805 152.681 134.347 152.681 133.856C152.681 133.355 152.574 132.885 152.361 132.448C152.158 132.011 151.87 131.659 151.497 131.392C151.123 131.125 150.691 130.992 150.201 130.992C149.667 130.992 149.187 131.168 148.761 131.52C148.334 131.872 148.009 132.299 147.785 132.8V135.008C147.87 135.328 148.035 135.611 148.281 135.856C148.526 136.101 148.809 136.299 149.129 136.448C149.459 136.587 149.774 136.656 150.073 136.656ZM159.832 138.16C158.957 138.16 158.194 137.963 157.544 137.568C156.904 137.163 156.408 136.635 156.056 135.984C155.704 135.323 155.528 134.603 155.528 133.824C155.528 133.045 155.704 132.331 156.056 131.68C156.418 131.019 156.92 130.491 157.56 130.096C158.21 129.691 158.968 129.488 159.832 129.488C160.696 129.488 161.448 129.691 162.088 130.096C162.738 130.491 163.24 131.019 163.592 131.68C163.954 132.331 164.136 133.045 164.136 133.824C164.136 134.603 163.96 135.323 163.608 135.984C163.256 136.635 162.754 137.163 162.104 137.568C161.464 137.963 160.706 138.16 159.832 138.16ZM157.336 133.84C157.336 134.373 157.448 134.853 157.672 135.28C157.896 135.707 158.194 136.043 158.568 136.288C158.941 136.533 159.362 136.656 159.832 136.656C160.29 136.656 160.706 136.533 161.08 136.288C161.464 136.032 161.768 135.691 161.992 135.264C162.216 134.837 162.328 134.357 162.328 133.824C162.328 133.291 162.216 132.811 161.992 132.384C161.768 131.957 161.464 131.621 161.08 131.376C160.706 131.12 160.29 130.992 159.832 130.992C159.373 130.992 158.952 131.12 158.568 131.376C158.194 131.621 157.896 131.963 157.672 132.4C157.448 132.827 157.336 133.307 157.336 133.84ZM175.847 129.632H177.527L174.007 138H172.503L170.999 134.224L169.495 138H167.991L164.455 129.632H166.135L168.823 136.288L170.007 133.2L168.567 129.648H170.055L170.999 132.256L171.927 129.648H173.415L171.991 133.2L173.175 136.288L175.847 129.632ZM177.476 138V135.952H178.932V138H177.476Z" fill="white"/>
<path d="M1.28 114V102.64H3.072V112.416H9.168V114H1.28ZM9.79175 111.552C9.79175 111.019 9.94108 110.555 10.2398 110.16C10.5384 109.755 10.9544 109.445 11.4878 109.232C12.0318 109.008 12.6558 108.896 13.3598 108.896C13.7331 108.896 14.1118 108.928 14.4958 108.992C14.8904 109.045 15.2371 109.125 15.5358 109.232V108.704C15.5358 108.117 15.3598 107.659 15.0078 107.328C14.6558 106.997 14.1491 106.832 13.4878 106.832C13.0291 106.832 12.5864 106.912 12.1598 107.072C11.7331 107.232 11.2904 107.467 10.8318 107.776L10.2398 106.592C10.7944 106.229 11.3491 105.957 11.9038 105.776C12.4691 105.584 13.0611 105.488 13.6798 105.488C14.7998 105.488 15.6798 105.787 16.3198 106.384C16.9704 106.971 17.2958 107.808 17.2958 108.896V112.016C17.2958 112.219 17.3278 112.363 17.3918 112.448C17.4664 112.533 17.5891 112.581 17.7598 112.592V114C17.5998 114.032 17.4558 114.053 17.3278 114.064C17.1998 114.075 17.0931 114.08 17.0078 114.08C16.6238 114.08 16.3358 113.989 16.1438 113.808C15.9624 113.616 15.8558 113.403 15.8238 113.168L15.7758 112.688C15.4131 113.157 14.9491 113.52 14.3838 113.776C13.8184 114.032 13.2478 114.16 12.6718 114.16C12.1171 114.16 11.6211 114.048 11.1838 113.824C10.7464 113.589 10.4051 113.275 10.1598 112.88C9.91442 112.485 9.79175 112.043 9.79175 111.552ZM15.1198 112.064C15.3971 111.787 15.5358 111.525 15.5358 111.28V110.32C14.9064 110.085 14.2664 109.968 13.6158 109.968C12.9758 109.968 12.4531 110.101 12.0478 110.368C11.6531 110.624 11.4557 110.971 11.4557 111.408C11.4557 111.771 11.5998 112.107 11.8878 112.416C12.1864 112.715 12.6131 112.864 13.1678 112.864C13.5411 112.864 13.9038 112.789 14.2558 112.64C14.6078 112.491 14.8958 112.299 15.1198 112.064ZM28.1361 114.16C27.4641 114.16 26.8721 114 26.3601 113.68C25.8481 113.36 25.4428 112.944 25.1441 112.432V117.408H23.3841V105.632H24.9361V107.136C25.2561 106.635 25.6721 106.235 26.1841 105.936C26.6961 105.637 27.2668 105.488 27.8961 105.488C28.6641 105.488 29.3415 105.691 29.9281 106.096C30.5255 106.491 30.9948 107.019 31.3361 107.68C31.6775 108.331 31.8481 109.04 31.8481 109.808C31.8481 110.619 31.6881 111.355 31.3681 112.016C31.0481 112.667 30.6108 113.189 30.0561 113.584C29.5015 113.968 28.8615 114.16 28.1361 114.16ZM27.5601 112.656C28.0615 112.656 28.4935 112.523 28.8561 112.256C29.2295 111.979 29.5175 111.627 29.7201 111.2C29.9335 110.763 30.0401 110.299 30.0401 109.808C30.0401 109.296 29.9228 108.827 29.6881 108.4C29.4641 107.973 29.1548 107.632 28.7601 107.376C28.3761 107.12 27.9335 106.992 27.4321 106.992C27.1335 106.992 26.8188 107.067 26.4881 107.216C26.1681 107.365 25.8855 107.563 25.6401 107.808C25.3948 108.053 25.2295 108.331 25.1441 108.64V110.832C25.3575 111.344 25.6828 111.776 26.1201 112.128C26.5681 112.48 27.0481 112.656 27.5601 112.656ZM33.447 102.32H35.207V111.584C35.207 112.011 35.271 112.283 35.399 112.4C35.527 112.517 35.687 112.576 35.879 112.576C36.0923 112.576 36.295 112.555 36.487 112.512C36.679 112.469 36.839 112.416 36.967 112.352L37.223 113.744C36.967 113.851 36.663 113.941 36.311 114.016C35.959 114.091 35.6443 114.128 35.367 114.128C34.7697 114.128 34.3003 113.963 33.959 113.632C33.6177 113.291 33.447 112.821 33.447 112.224V102.32ZM37.6355 111.552C37.6355 111.019 37.7848 110.555 38.0835 110.16C38.3822 109.755 38.7982 109.445 39.3315 109.232C39.8755 109.008 40.4995 108.896 41.2035 108.896C41.5768 108.896 41.9555 108.928 42.3395 108.992C42.7342 109.045 43.0808 109.125 43.3795 109.232V108.704C43.3795 108.117 43.2035 107.659 42.8515 107.328C42.4995 106.997 41.9928 106.832 41.3315 106.832C40.8728 106.832 40.4302 106.912 40.0035 107.072C39.5768 107.232 39.1342 107.467 38.6755 107.776L38.0835 106.592C38.6382 106.229 39.1928 105.957 39.7475 105.776C40.3128 105.584 40.9048 105.488 41.5235 105.488C42.6435 105.488 43.5235 105.787 44.1635 106.384C44.8142 106.971 45.1395 107.808 45.1395 108.896V112.016C45.1395 112.219 45.1715 112.363 45.2355 112.448C45.3102 112.533 45.4328 112.581 45.6035 112.592V114C45.4435 114.032 45.2995 114.053 45.1715 114.064C45.0435 114.075 44.9368 114.08 44.8515 114.08C44.4675 114.08 44.1795 113.989 43.9875 113.808C43.8062 113.616 43.6995 113.403 43.6675 113.168L43.6195 112.688C43.2568 113.157 42.7928 113.52 42.2275 113.776C41.6622 114.032 41.0915 114.16 40.5155 114.16C39.9608 114.16 39.4648 114.048 39.0275 113.824C38.5902 113.589 38.2488 113.275 38.0035 112.88C37.7582 112.485 37.6355 112.043 37.6355 111.552ZM42.9635 112.064C43.2408 111.787 43.3795 111.525 43.3795 111.28V110.32C42.7502 110.085 42.1102 109.968 41.4595 109.968C40.8195 109.968 40.2968 110.101 39.8915 110.368C39.4968 110.624 39.2995 110.971 39.2995 111.408C39.2995 111.771 39.4435 112.107 39.7315 112.416C40.0302 112.715 40.4568 112.864 41.0115 112.864C41.3848 112.864 41.7475 112.789 42.0995 112.64C42.4515 112.491 42.7395 112.299 42.9635 112.064ZM51.8683 113.568C51.6443 113.675 51.3349 113.797 50.9403 113.936C50.5456 114.064 50.1243 114.128 49.6763 114.128C49.1216 114.128 48.6416 113.979 48.2363 113.68C47.8416 113.381 47.6443 112.896 47.6443 112.224V106.992H46.5403V105.632H47.6443V102.88H49.4043V105.632H51.2283V106.992H49.4043V111.664C49.4256 111.963 49.5163 112.181 49.6763 112.32C49.8469 112.448 50.0549 112.512 50.3003 112.512C50.5456 112.512 50.7803 112.469 51.0043 112.384C51.2283 112.299 51.3936 112.229 51.5003 112.176L51.8683 113.568ZM52.4793 111.552C52.4793 111.019 52.6286 110.555 52.9273 110.16C53.2259 109.755 53.6419 109.445 54.1753 109.232C54.7193 109.008 55.3433 108.896 56.0473 108.896C56.4206 108.896 56.7993 108.928 57.1833 108.992C57.5779 109.045 57.9246 109.125 58.2233 109.232V108.704C58.2233 108.117 58.0473 107.659 57.6953 107.328C57.3433 106.997 56.8366 106.832 56.1753 106.832C55.7166 106.832 55.2739 106.912 54.8473 107.072C54.4206 107.232 53.9779 107.467 53.5193 107.776L52.9273 106.592C53.4819 106.229 54.0366 105.957 54.5913 105.776C55.1566 105.584 55.7486 105.488 56.3673 105.488C57.4873 105.488 58.3673 105.787 59.0073 106.384C59.6579 106.971 59.9833 107.808 59.9833 108.896V112.016C59.9833 112.219 60.0153 112.363 60.0793 112.448C60.1539 112.533 60.2766 112.581 60.4473 112.592V114C60.2873 114.032 60.1433 114.053 60.0153 114.064C59.8873 114.075 59.7806 114.08 59.6953 114.08C59.3113 114.08 59.0233 113.989 58.8313 113.808C58.6499 113.616 58.5433 113.403 58.5113 113.168L58.4633 112.688C58.1006 113.157 57.6366 113.52 57.0713 113.776C56.5059 114.032 55.9353 114.16 55.3593 114.16C54.8046 114.16 54.3086 114.048 53.8713 113.824C53.4339 113.589 53.0926 113.275 52.8473 112.88C52.6019 112.485 52.4793 112.043 52.4793 111.552ZM57.8073 112.064C58.0846 111.787 58.2233 111.525 58.2233 111.28V110.32C57.5939 110.085 56.9539 109.968 56.3033 109.968C55.6633 109.968 55.1406 110.101 54.7353 110.368C54.3406 110.624 54.1432 110.971 54.1432 111.408C54.1432 111.771 54.2873 112.107 54.5753 112.416C54.8739 112.715 55.3006 112.864 55.8553 112.864C56.2286 112.864 56.5913 112.789 56.9433 112.64C57.2953 112.491 57.5833 112.299 57.8073 112.064ZM62.5516 114V107.2H61.4316V105.84H62.5516V105.504C62.5516 104.48 62.7916 103.669 63.2716 103.072C63.7623 102.464 64.413 102.16 65.2236 102.16C65.9063 102.16 66.557 102.331 67.1756 102.672L66.7916 103.984C66.6316 103.888 66.4396 103.808 66.2156 103.744C66.0023 103.68 65.7943 103.648 65.5916 103.648C65.1756 103.648 64.8556 103.803 64.6316 104.112C64.4183 104.421 64.3116 104.869 64.3116 105.456V105.84H66.4556V107.2H64.3116V114H62.5516ZM71.3941 114.16C70.5195 114.16 69.7568 113.963 69.1061 113.568C68.4661 113.163 67.9701 112.635 67.6181 111.984C67.2661 111.323 67.0901 110.603 67.0901 109.824C67.0901 109.045 67.2661 108.331 67.6181 107.68C67.9808 107.019 68.4821 106.491 69.1221 106.096C69.7728 105.691 70.5301 105.488 71.3941 105.488C72.2581 105.488 73.0101 105.691 73.6501 106.096C74.3008 106.491 74.8021 107.019 75.1541 107.68C75.5168 108.331 75.6981 109.045 75.6981 109.824C75.6981 110.603 75.5221 111.323 75.1701 111.984C74.8181 112.635 74.3168 113.163 73.6661 113.568C73.0261 113.963 72.2688 114.16 71.3941 114.16ZM68.8981 109.84C68.8981 110.373 69.0101 110.853 69.2341 111.28C69.4581 111.707 69.7568 112.043 70.1301 112.288C70.5035 112.533 70.9248 112.656 71.3941 112.656C71.8528 112.656 72.2688 112.533 72.6421 112.288C73.0261 112.032 73.3301 111.691 73.5541 111.264C73.7781 110.837 73.8901 110.357 73.8901 109.824C73.8901 109.291 73.7781 108.811 73.5541 108.384C73.3301 107.957 73.0261 107.621 72.6421 107.376C72.2688 107.12 71.8528 106.992 71.3941 106.992C70.9355 106.992 70.5141 107.12 70.1301 107.376C69.7568 107.621 69.4581 107.963 69.2341 108.4C69.0101 108.827 68.8981 109.307 68.8981 109.84ZM81.9631 107.152C81.2805 107.173 80.6725 107.333 80.1391 107.632C79.6165 107.92 79.2431 108.336 79.0191 108.88V114H77.2591V105.632H78.8911V107.504C79.1791 106.928 79.5578 106.469 80.0271 106.128C80.4965 105.776 80.9925 105.584 81.5151 105.552C81.6111 105.552 81.6965 105.552 81.7711 105.552C81.8458 105.552 81.9098 105.557 81.9631 105.568V107.152ZM96.0435 114H94.2835V109.312C94.2835 108.544 94.1555 107.979 93.8995 107.616C93.6435 107.243 93.2702 107.056 92.7795 107.056C92.2888 107.056 91.8302 107.243 91.4035 107.616C90.9875 107.979 90.6942 108.453 90.5235 109.04V114H88.7635V109.312C88.7635 108.523 88.6355 107.952 88.3795 107.6C88.1235 107.237 87.7555 107.056 87.2755 107.056C86.7848 107.056 86.3262 107.237 85.8995 107.6C85.4835 107.963 85.1848 108.437 85.0035 109.024V114H83.2435V105.632H84.8435V107.312C85.1635 106.725 85.5955 106.277 86.1395 105.968C86.6835 105.648 87.3022 105.488 87.9955 105.488C88.6888 105.488 89.2328 105.669 89.6275 106.032C90.0328 106.395 90.2835 106.848 90.3795 107.392C91.1048 106.123 92.1555 105.488 93.5315 105.488C94.1928 105.488 94.7048 105.648 95.0675 105.968C95.4302 106.277 95.6808 106.693 95.8195 107.216C95.9688 107.728 96.0435 108.288 96.0435 108.896V114ZM97.4636 111.552C97.4636 111.019 97.613 110.555 97.9116 110.16C98.2103 109.755 98.6263 109.445 99.1596 109.232C99.7036 109.008 100.328 108.896 101.032 108.896C101.405 108.896 101.784 108.928 102.168 108.992C102.562 109.045 102.909 109.125 103.208 109.232V108.704C103.208 108.117 103.032 107.659 102.68 107.328C102.328 106.997 101.821 106.832 101.16 106.832C100.701 106.832 100.258 106.912 99.8316 107.072C99.405 107.232 98.9623 107.467 98.5036 107.776L97.9116 106.592C98.4663 106.229 99.021 105.957 99.5756 105.776C100.141 105.584 100.733 105.488 101.352 105.488C102.472 105.488 103.352 105.787 103.992 106.384C104.642 106.971 104.968 107.808 104.968 108.896V112.016C104.968 112.219 105 112.363 105.064 112.448C105.138 112.533 105.261 112.581 105.432 112.592V114C105.272 114.032 105.128 114.053 105 114.064C104.872 114.075 104.765 114.08 104.68 114.08C104.296 114.08 104.008 113.989 103.816 113.808C103.634 113.616 103.528 113.403 103.496 113.168L103.448 112.688C103.085 113.157 102.621 113.52 102.056 113.776C101.49 114.032 100.92 114.16 100.344 114.16C99.789 114.16 99.293 114.048 98.8556 113.824C98.4183 113.589 98.077 113.275 97.8316 112.88C97.5863 112.485 97.4636 112.043 97.4636 111.552ZM102.792 112.064C103.069 111.787 103.208 111.525 103.208 111.28V110.32C102.578 110.085 101.938 109.968 101.288 109.968C100.648 109.968 100.125 110.101 99.7196 110.368C99.325 110.624 99.1276 110.971 99.1276 111.408C99.1276 111.771 99.2716 112.107 99.5596 112.416C99.8583 112.715 100.285 112.864 100.84 112.864C101.213 112.864 101.576 112.789 101.928 112.64C102.28 112.491 102.568 112.299 102.792 112.064ZM114.032 114.16C113.328 114.16 112.661 114.043 112.032 113.808C111.403 113.573 110.864 113.232 110.416 112.784L111.072 111.6C111.552 112.027 112.032 112.336 112.512 112.528C112.992 112.72 113.477 112.816 113.968 112.816C114.459 112.816 114.859 112.725 115.168 112.544C115.477 112.352 115.632 112.075 115.632 111.712C115.632 111.456 115.552 111.259 115.392 111.12C115.232 110.981 114.997 110.869 114.688 110.784C114.389 110.699 114.027 110.592 113.6 110.464C113.003 110.283 112.501 110.096 112.096 109.904C111.691 109.701 111.387 109.456 111.184 109.168C110.981 108.88 110.88 108.512 110.88 108.064C110.88 107.253 111.184 106.624 111.792 106.176C112.4 105.717 113.195 105.488 114.176 105.488C114.784 105.488 115.344 105.584 115.856 105.776C116.379 105.957 116.837 106.245 117.232 106.64L116.48 107.808C115.755 107.147 114.955 106.816 114.08 106.816C113.696 106.816 113.339 106.891 113.008 107.04C112.688 107.189 112.528 107.467 112.528 107.872C112.528 108.213 112.672 108.459 112.96 108.608C113.248 108.757 113.675 108.917 114.24 109.088C114.88 109.28 115.429 109.472 115.888 109.664C116.357 109.845 116.715 110.085 116.96 110.384C117.216 110.672 117.344 111.072 117.344 111.584C117.344 112.395 117.04 113.029 116.432 113.488C115.824 113.936 115.024 114.16 114.032 114.16ZM118.915 104.256V102.32H120.675V104.256H118.915ZM118.915 114V105.632H120.675V114H118.915ZM130.294 114H128.534V109.312C128.534 108.523 128.406 107.952 128.15 107.6C127.905 107.237 127.537 107.056 127.046 107.056C126.705 107.056 126.364 107.141 126.022 107.312C125.692 107.483 125.393 107.717 125.126 108.016C124.86 108.315 124.668 108.651 124.55 109.024V114H122.79V105.632H124.39V107.312C124.71 106.757 125.174 106.315 125.782 105.984C126.39 105.653 127.062 105.488 127.798 105.488C128.46 105.488 128.972 105.648 129.334 105.968C129.697 106.277 129.948 106.688 130.086 107.2C130.225 107.712 130.294 108.277 130.294 108.896V114ZM140.082 114.16C139.218 114.16 138.461 113.963 137.81 113.568C137.16 113.173 136.653 112.651 136.29 112C135.928 111.339 135.746 110.619 135.746 109.84C135.746 109.051 135.928 108.325 136.29 107.664C136.653 107.003 137.16 106.475 137.81 106.08C138.461 105.685 139.224 105.488 140.098 105.488C140.973 105.488 141.73 105.691 142.37 106.096C143.01 106.491 143.501 107.013 143.842 107.664C144.194 108.315 144.37 109.013 144.37 109.76C144.37 110.027 144.354 110.24 144.322 110.4H137.618C137.65 110.891 137.784 111.323 138.018 111.696C138.264 112.059 138.568 112.347 138.93 112.56C139.304 112.763 139.709 112.864 140.146 112.864C140.616 112.864 141.058 112.747 141.474 112.512C141.89 112.277 142.178 111.968 142.338 111.584L143.842 112.016C143.554 112.645 143.074 113.163 142.402 113.568C141.741 113.963 140.968 114.16 140.082 114.16ZM137.57 109.232H142.626C142.584 108.752 142.445 108.331 142.21 107.968C141.976 107.595 141.672 107.307 141.298 107.104C140.936 106.891 140.53 106.784 140.082 106.784C139.645 106.784 139.24 106.891 138.866 107.104C138.504 107.307 138.205 107.595 137.97 107.968C137.736 108.331 137.602 108.752 137.57 109.232ZM150.384 113.568C150.16 113.675 149.851 113.797 149.456 113.936C149.061 114.064 148.64 114.128 148.192 114.128C147.637 114.128 147.157 113.979 146.752 113.68C146.357 113.381 146.16 112.896 146.16 112.224V106.992H145.056V105.632H146.16V102.88H147.92V105.632H149.744V106.992H147.92V111.664C147.941 111.963 148.032 112.181 148.192 112.32C148.363 112.448 148.571 112.512 148.816 112.512C149.061 112.512 149.296 112.469 149.52 112.384C149.744 112.299 149.909 112.229 150.016 112.176L150.384 113.568ZM151.603 104.256V102.32H153.363V104.256H151.603ZM151.603 114V105.632H153.363V114H151.603ZM158.662 114.16C157.937 114.16 157.291 113.963 156.726 113.568C156.171 113.163 155.739 112.635 155.43 111.984C155.121 111.323 154.966 110.597 154.966 109.808C154.966 109.019 155.137 108.299 155.478 107.648C155.83 106.987 156.299 106.464 156.886 106.08C157.483 105.685 158.155 105.488 158.902 105.488C159.542 105.488 160.118 105.643 160.63 105.952C161.142 106.261 161.553 106.661 161.862 107.152V105.632H163.414V117.408H161.654V112.432C160.95 113.584 159.953 114.16 158.662 114.16ZM159.302 112.656C159.825 112.656 160.283 112.507 160.678 112.208C161.073 111.899 161.398 111.515 161.654 111.056V108.848C161.579 108.517 161.419 108.213 161.174 107.936C160.929 107.648 160.635 107.419 160.294 107.248C159.963 107.077 159.633 106.992 159.302 106.992C158.801 106.992 158.358 107.131 157.974 107.408C157.601 107.675 157.302 108.027 157.078 108.464C156.865 108.901 156.758 109.365 156.758 109.856C156.758 110.368 156.865 110.837 157.078 111.264C157.302 111.691 157.601 112.032 157.974 112.288C158.358 112.533 158.801 112.656 159.302 112.656ZM165.445 110.752V105.632H167.205V110.4C167.205 111.904 167.738 112.656 168.805 112.656C169.306 112.656 169.781 112.501 170.229 112.192C170.677 111.872 171.023 111.424 171.269 110.848V105.632H173.029V112.016C173.029 112.219 173.066 112.363 173.141 112.448C173.215 112.533 173.338 112.581 173.509 112.592V114C173.327 114.032 173.178 114.053 173.061 114.064C172.943 114.075 172.831 114.08 172.725 114.08C172.405 114.08 172.138 113.995 171.925 113.824C171.711 113.653 171.589 113.424 171.557 113.136L171.525 112.304C171.151 112.912 170.666 113.376 170.069 113.696C169.471 114.005 168.815 114.16 168.101 114.16C167.226 114.16 166.565 113.872 166.117 113.296C165.669 112.72 165.445 111.872 165.445 110.752ZM179.067 114.16C178.203 114.16 177.445 113.963 176.795 113.568C176.144 113.173 175.637 112.651 175.275 112C174.912 111.339 174.731 110.619 174.731 109.84C174.731 109.051 174.912 108.325 175.275 107.664C175.637 107.003 176.144 106.475 176.795 106.08C177.445 105.685 178.208 105.488 179.083 105.488C179.957 105.488 180.715 105.691 181.355 106.096C181.995 106.491 182.485 107.013 182.827 107.664C183.179 108.315 183.355 109.013 183.355 109.76C183.355 110.027 183.339 110.24 183.307 110.4H176.603C176.635 110.891 176.768 111.323 177.003 111.696C177.248 112.059 177.552 112.347 177.915 112.56C178.288 112.763 178.693 112.864 179.131 112.864C179.6 112.864 180.043 112.747 180.459 112.512C180.875 112.277 181.163 111.968 181.323 111.584L182.827 112.016C182.539 112.645 182.059 113.163 181.387 113.568C180.725 113.963 179.952 114.16 179.067 114.16ZM176.555 109.232H181.611C181.568 108.752 181.429 108.331 181.195 107.968C180.96 107.595 180.656 107.307 180.283 107.104C179.92 106.891 179.515 106.784 179.067 106.784C178.629 106.784 178.224 106.891 177.851 107.104C177.488 107.307 177.189 107.595 176.955 107.968C176.72 108.331 176.587 108.752 176.555 109.232ZM189.368 113.568C189.144 113.675 188.835 113.797 188.44 113.936C188.046 114.064 187.624 114.128 187.176 114.128C186.622 114.128 186.142 113.979 185.736 113.68C185.342 113.381 185.144 112.896 185.144 112.224V106.992H184.04V105.632H185.144V102.88H186.904V105.632H188.728V106.992H186.904V111.664C186.926 111.963 187.016 112.181 187.176 112.32C187.347 112.448 187.555 112.512 187.8 112.512C188.046 112.512 188.28 112.469 188.504 112.384C188.728 112.299 188.894 112.229 189 112.176L189.368 113.568ZM189.979 111.552C189.979 111.019 190.129 110.555 190.427 110.16C190.726 109.755 191.142 109.445 191.675 109.232C192.219 109.008 192.843 108.896 193.547 108.896C193.921 108.896 194.299 108.928 194.683 108.992C195.078 109.045 195.425 109.125 195.723 109.232V108.704C195.723 108.117 195.547 107.659 195.195 107.328C194.843 106.997 194.337 106.832 193.675 106.832C193.217 106.832 192.774 106.912 192.347 107.072C191.921 107.232 191.478 107.467 191.019 107.776L190.427 106.592C190.982 106.229 191.537 105.957 192.091 105.776C192.657 105.584 193.249 105.488 193.867 105.488C194.987 105.488 195.867 105.787 196.507 106.384C197.158 106.971 197.483 107.808 197.483 108.896V112.016C197.483 112.219 197.515 112.363 197.579 112.448C197.654 112.533 197.777 112.581 197.947 112.592V114C197.787 114.032 197.643 114.053 197.515 114.064C197.387 114.075 197.281 114.08 197.195 114.08C196.811 114.08 196.523 113.989 196.331 113.808C196.15 113.616 196.043 113.403 196.011 113.168L195.963 112.688C195.601 113.157 195.137 113.52 194.571 113.776C194.006 114.032 193.435 114.16 192.859 114.16C192.305 114.16 191.809 114.048 191.371 113.824C190.934 113.589 190.593 113.275 190.347 112.88C190.102 112.485 189.979 112.043 189.979 111.552ZM195.307 112.064C195.585 111.787 195.723 111.525 195.723 111.28V110.32C195.094 110.085 194.454 109.968 193.803 109.968C193.163 109.968 192.641 110.101 192.235 110.368C191.841 110.624 191.643 110.971 191.643 111.408C191.643 111.771 191.787 112.107 192.075 112.416C192.374 112.715 192.801 112.864 193.355 112.864C193.729 112.864 194.091 112.789 194.443 112.64C194.795 112.491 195.083 112.299 195.307 112.064ZM202.595 114.16C201.891 114.16 201.224 114.043 200.595 113.808C199.965 113.573 199.427 113.232 198.979 112.784L199.635 111.6C200.115 112.027 200.595 112.336 201.075 112.528C201.555 112.72 202.04 112.816 202.531 112.816C203.021 112.816 203.421 112.725 203.731 112.544C204.04 112.352 204.195 112.075 204.195 111.712C204.195 111.456 204.115 111.259 203.955 111.12C203.795 110.981 203.56 110.869 203.251 110.784C202.952 110.699 202.589 110.592 202.163 110.464C201.565 110.283 201.064 110.096 200.659 109.904C200.253 109.701 199.949 109.456 199.747 109.168C199.544 108.88 199.443 108.512 199.443 108.064C199.443 107.253 199.747 106.624 200.355 106.176C200.963 105.717 201.757 105.488 202.739 105.488C203.347 105.488 203.907 105.584 204.419 105.776C204.941 105.957 205.4 106.245 205.795 106.64L205.043 107.808C204.317 107.147 203.517 106.816 202.643 106.816C202.259 106.816 201.901 106.891 201.571 107.04C201.251 107.189 201.091 107.467 201.091 107.872C201.091 108.213 201.235 108.459 201.523 108.608C201.811 108.757 202.237 108.917 202.803 109.088C203.443 109.28 203.992 109.472 204.451 109.664C204.92 109.845 205.277 110.085 205.523 110.384C205.779 110.672 205.907 111.072 205.907 111.584C205.907 112.395 205.603 113.029 204.995 113.488C204.387 113.936 203.587 114.16 202.595 114.16ZM216.183 114.16C215.511 114.16 214.919 114 214.407 113.68C213.895 113.36 213.49 112.944 213.191 112.432V117.408H211.431V105.632H212.983V107.136C213.303 106.635 213.719 106.235 214.231 105.936C214.743 105.637 215.314 105.488 215.943 105.488C216.711 105.488 217.388 105.691 217.975 106.096C218.572 106.491 219.042 107.019 219.383 107.68C219.724 108.331 219.895 109.04 219.895 109.808C219.895 110.619 219.735 111.355 219.415 112.016C219.095 112.667 218.658 113.189 218.103 113.584C217.548 113.968 216.908 114.16 216.183 114.16ZM215.607 112.656C216.108 112.656 216.54 112.523 216.903 112.256C217.276 111.979 217.564 111.627 217.767 111.2C217.98 110.763 218.087 110.299 218.087 109.808C218.087 109.296 217.97 108.827 217.735 108.4C217.511 107.973 217.202 107.632 216.807 107.376C216.423 107.12 215.98 106.992 215.479 106.992C215.18 106.992 214.866 107.067 214.535 107.216C214.215 107.365 213.932 107.563 213.687 107.808C213.442 108.053 213.276 108.331 213.191 108.64V110.832C213.404 111.344 213.73 111.776 214.167 112.128C214.615 112.48 215.095 112.656 215.607 112.656ZM220.87 111.552C220.87 111.019 221.019 110.555 221.318 110.16C221.617 109.755 222.033 109.445 222.566 109.232C223.11 109.008 223.734 108.896 224.438 108.896C224.811 108.896 225.19 108.928 225.574 108.992C225.969 109.045 226.315 109.125 226.614 109.232V108.704C226.614 108.117 226.438 107.659 226.086 107.328C225.734 106.997 225.227 106.832 224.566 106.832C224.107 106.832 223.665 106.912 223.238 107.072C222.811 107.232 222.369 107.467 221.91 107.776L221.318 106.592C221.873 106.229 222.427 105.957 222.982 105.776C223.547 105.584 224.139 105.488 224.758 105.488C225.878 105.488 226.758 105.787 227.398 106.384C228.049 106.971 228.374 107.808 228.374 108.896V112.016C228.374 112.219 228.406 112.363 228.47 112.448C228.545 112.533 228.667 112.581 228.838 112.592V114C228.678 114.032 228.534 114.053 228.406 114.064C228.278 114.075 228.171 114.08 228.086 114.08C227.702 114.08 227.414 113.989 227.222 113.808C227.041 113.616 226.934 113.403 226.902 113.168L226.854 112.688C226.491 113.157 226.027 113.52 225.462 113.776C224.897 114.032 224.326 114.16 223.75 114.16C223.195 114.16 222.699 114.048 222.262 113.824C221.825 113.589 221.483 113.275 221.238 112.88C220.993 112.485 220.87 112.043 220.87 111.552ZM226.198 112.064C226.475 111.787 226.614 111.525 226.614 111.28V110.32C225.985 110.085 225.345 109.968 224.694 109.968C224.054 109.968 223.531 110.101 223.126 110.368C222.731 110.624 222.534 110.971 222.534 111.408C222.534 111.771 222.678 112.107 222.966 112.416C223.265 112.715 223.691 112.864 224.246 112.864C224.619 112.864 224.982 112.789 225.334 112.64C225.686 112.491 225.974 112.299 226.198 112.064ZM235.213 107.152C234.53 107.173 233.922 107.333 233.389 107.632C232.866 107.92 232.493 108.336 232.269 108.88V114H230.509V105.632H232.141V107.504C232.429 106.928 232.808 106.469 233.277 106.128C233.746 105.776 234.242 105.584 234.765 105.552C234.861 105.552 234.946 105.552 235.021 105.552C235.096 105.552 235.16 105.557 235.213 105.568V107.152ZM235.87 111.552C235.87 111.019 236.019 110.555 236.318 110.16C236.617 109.755 237.033 109.445 237.566 109.232C238.11 109.008 238.734 108.896 239.438 108.896C239.811 108.896 240.19 108.928 240.574 108.992C240.969 109.045 241.315 109.125 241.614 109.232V108.704C241.614 108.117 241.438 107.659 241.086 107.328C240.734 106.997 240.227 106.832 239.566 106.832C239.107 106.832 238.665 106.912 238.238 107.072C237.811 107.232 237.369 107.467 236.91 107.776L236.318 106.592C236.873 106.229 237.427 105.957 237.982 105.776C238.547 105.584 239.139 105.488 239.758 105.488C240.878 105.488 241.758 105.787 242.398 106.384C243.049 106.971 243.374 107.808 243.374 108.896V112.016C243.374 112.219 243.406 112.363 243.47 112.448C243.545 112.533 243.667 112.581 243.838 112.592V114C243.678 114.032 243.534 114.053 243.406 114.064C243.278 114.075 243.171 114.08 243.086 114.08C242.702 114.08 242.414 113.989 242.222 113.808C242.041 113.616 241.934 113.403 241.902 113.168L241.854 112.688C241.491 113.157 241.027 113.52 240.462 113.776C239.897 114.032 239.326 114.16 238.75 114.16C238.195 114.16 237.699 114.048 237.262 113.824C236.825 113.589 236.483 113.275 236.238 112.88C235.993 112.485 235.87 112.043 235.87 111.552ZM241.198 112.064C241.475 111.787 241.614 111.525 241.614 111.28V110.32C240.985 110.085 240.345 109.968 239.694 109.968C239.054 109.968 238.531 110.101 238.126 110.368C237.731 110.624 237.534 110.971 237.534 111.408C237.534 111.771 237.678 112.107 237.966 112.416C238.265 112.715 238.691 112.864 239.246 112.864C239.619 112.864 239.982 112.789 240.334 112.64C240.686 112.491 240.974 112.299 241.198 112.064ZM249.478 102.32H251.238V111.584C251.238 112.011 251.302 112.283 251.43 112.4C251.558 112.517 251.718 112.576 251.91 112.576C252.124 112.576 252.326 112.555 252.518 112.512C252.71 112.469 252.87 112.416 252.998 112.352L253.254 113.744C252.998 113.851 252.694 113.941 252.342 114.016C251.99 114.091 251.676 114.128 251.398 114.128C250.801 114.128 250.332 113.963 249.99 113.632C249.649 113.291 249.478 112.821 249.478 112.224V102.32ZM258.035 114.16C257.16 114.16 256.397 113.963 255.747 113.568C255.107 113.163 254.611 112.635 254.259 111.984C253.907 111.323 253.731 110.603 253.731 109.824C253.731 109.045 253.907 108.331 254.259 107.68C254.621 107.019 255.123 106.491 255.763 106.096C256.413 105.691 257.171 105.488 258.035 105.488C258.899 105.488 259.651 105.691 260.291 106.096C260.941 106.491 261.443 107.019 261.795 107.68C262.157 108.331 262.339 109.045 262.339 109.824C262.339 110.603 262.163 111.323 261.811 111.984C261.459 112.635 260.957 113.163 260.307 113.568C259.667 113.963 258.909 114.16 258.035 114.16ZM255.539 109.84C255.539 110.373 255.651 110.853 255.875 111.28C256.099 111.707 256.397 112.043 256.771 112.288C257.144 112.533 257.565 112.656 258.035 112.656C258.493 112.656 258.909 112.533 259.283 112.288C259.667 112.032 259.971 111.691 260.195 111.264C260.419 110.837 260.531 110.357 260.531 109.824C260.531 109.291 260.419 108.811 260.195 108.384C259.971 107.957 259.667 107.621 259.283 107.376C258.909 107.12 258.493 106.992 258.035 106.992C257.576 106.992 257.155 107.12 256.771 107.376C256.397 107.621 256.099 107.963 255.875 108.4C255.651 108.827 255.539 109.307 255.539 109.84ZM266.876 114.16C266.172 114.16 265.505 114.043 264.876 113.808C264.246 113.573 263.708 113.232 263.26 112.784L263.916 111.6C264.396 112.027 264.876 112.336 265.356 112.528C265.836 112.72 266.321 112.816 266.812 112.816C267.302 112.816 267.702 112.725 268.012 112.544C268.321 112.352 268.476 112.075 268.476 111.712C268.476 111.456 268.396 111.259 268.236 111.12C268.076 110.981 267.841 110.869 267.532 110.784C267.233 110.699 266.87 110.592 266.444 110.464C265.846 110.283 265.345 110.096 264.94 109.904C264.534 109.701 264.23 109.456 264.028 109.168C263.825 108.88 263.724 108.512 263.724 108.064C263.724 107.253 264.028 106.624 264.636 106.176C265.244 105.717 266.038 105.488 267.02 105.488C267.628 105.488 268.188 105.584 268.7 105.776C269.222 105.957 269.681 106.245 270.076 106.64L269.324 107.808C268.598 107.147 267.798 106.816 266.924 106.816C266.54 106.816 266.182 106.891 265.852 107.04C265.532 107.189 265.372 107.467 265.372 107.872C265.372 108.213 265.516 108.459 265.804 108.608C266.092 108.757 266.518 108.917 267.084 109.088C267.724 109.28 268.273 109.472 268.732 109.664C269.201 109.845 269.558 110.085 269.804 110.384C270.06 110.672 270.188 111.072 270.188 111.584C270.188 112.395 269.884 113.029 269.276 113.488C268.668 113.936 267.868 114.16 266.876 114.16ZM88.9499 133.824C88.9499 133.024 89.1099 132.299 89.4299 131.648C89.7605 130.987 90.2085 130.464 90.7739 130.08C91.3392 129.685 91.9899 129.488 92.7259 129.488C93.3659 129.488 93.9419 129.653 94.4539 129.984C94.9765 130.315 95.3819 130.725 95.6699 131.216V126.32H97.4299V136.016C97.4299 136.219 97.4672 136.363 97.5419 136.448C97.6165 136.533 97.7392 136.581 97.9099 136.592V138C97.5792 138.053 97.3232 138.08 97.1419 138.08C96.8112 138.08 96.5285 137.989 96.2939 137.808C96.0699 137.616 95.9525 137.381 95.9419 137.104L95.9259 136.48C95.6059 137.013 95.1739 137.429 94.6299 137.728C94.0859 138.016 93.5205 138.16 92.9339 138.16C92.1659 138.16 91.4779 137.963 90.8699 137.568C90.2725 137.173 89.8032 136.651 89.4619 136C89.1205 135.339 88.9499 134.613 88.9499 133.824ZM95.6699 134.992V132.8C95.5419 132.459 95.3499 132.155 95.0939 131.888C94.8379 131.611 94.5445 131.392 94.2139 131.232C93.8939 131.072 93.5739 130.992 93.2539 130.992C92.7525 130.992 92.3152 131.131 91.9419 131.408C91.5792 131.675 91.2912 132.027 91.0779 132.464C90.8752 132.901 90.7739 133.365 90.7739 133.856C90.7739 134.368 90.8859 134.837 91.1099 135.264C91.3445 135.691 91.6592 136.032 92.0539 136.288C92.4485 136.533 92.8912 136.656 93.3819 136.656C93.6805 136.656 93.9899 136.587 94.3099 136.448C94.6405 136.299 94.9285 136.101 95.1739 135.856C95.4192 135.6 95.5845 135.312 95.6699 134.992ZM103.457 138.16C102.593 138.16 101.836 137.963 101.185 137.568C100.535 137.173 100.028 136.651 99.6654 136C99.3027 135.339 99.1214 134.619 99.1214 133.84C99.1214 133.051 99.3027 132.325 99.6654 131.664C100.028 131.003 100.535 130.475 101.185 130.08C101.836 129.685 102.599 129.488 103.473 129.488C104.348 129.488 105.105 129.691 105.745 130.096C106.385 130.491 106.876 131.013 107.217 131.664C107.569 132.315 107.745 133.013 107.745 133.76C107.745 134.027 107.729 134.24 107.697 134.4H100.993C101.025 134.891 101.159 135.323 101.393 135.696C101.639 136.059 101.943 136.347 102.305 136.56C102.679 136.763 103.084 136.864 103.521 136.864C103.991 136.864 104.433 136.747 104.849 136.512C105.265 136.277 105.553 135.968 105.713 135.584L107.217 136.016C106.929 136.645 106.449 137.163 105.777 137.568C105.116 137.963 104.343 138.16 103.457 138.16ZM100.945 133.232H106.001C105.959 132.752 105.82 132.331 105.585 131.968C105.351 131.595 105.047 131.307 104.673 131.104C104.311 130.891 103.905 130.784 103.457 130.784C103.02 130.784 102.615 130.891 102.241 131.104C101.879 131.307 101.58 131.595 101.345 131.968C101.111 132.331 100.977 132.752 100.945 133.232ZM113.358 138V126.64H118.302C118.814 126.64 119.283 126.747 119.71 126.96C120.137 127.173 120.505 127.456 120.814 127.808C121.134 128.16 121.379 128.555 121.55 128.992C121.731 129.429 121.822 129.877 121.822 130.336C121.822 130.848 121.726 131.333 121.534 131.792C121.353 132.24 121.097 132.629 120.766 132.96C120.435 133.291 120.046 133.531 119.598 133.68L122.27 138H120.254L117.79 134.048H115.15V138H113.358ZM115.15 132.464H118.286C118.617 132.464 118.91 132.368 119.166 132.176C119.422 131.973 119.625 131.712 119.774 131.392C119.923 131.072 119.998 130.72 119.998 130.336C119.998 129.941 119.913 129.589 119.742 129.28C119.571 128.96 119.347 128.704 119.07 128.512C118.793 128.32 118.499 128.224 118.19 128.224H115.15V132.464ZM122.964 135.552C122.964 135.019 123.113 134.555 123.412 134.16C123.71 133.755 124.126 133.445 124.66 133.232C125.204 133.008 125.828 132.896 126.532 132.896C126.905 132.896 127.284 132.928 127.668 132.992C128.062 133.045 128.409 133.125 128.708 133.232V132.704C128.708 132.117 128.532 131.659 128.18 131.328C127.828 130.997 127.321 130.832 126.66 130.832C126.201 130.832 125.758 130.912 125.332 131.072C124.905 131.232 124.462 131.467 124.004 131.776L123.412 130.592C123.966 130.229 124.521 129.957 125.076 129.776C125.641 129.584 126.233 129.488 126.852 129.488C127.972 129.488 128.852 129.787 129.492 130.384C130.142 130.971 130.468 131.808 130.468 132.896V136.016C130.468 136.219 130.5 136.363 130.564 136.448C130.638 136.533 130.761 136.581 130.932 136.592V138C130.772 138.032 130.628 138.053 130.5 138.064C130.372 138.075 130.265 138.08 130.18 138.08C129.796 138.08 129.508 137.989 129.316 137.808C129.134 137.616 129.028 137.403 128.996 137.168L128.948 136.688C128.585 137.157 128.121 137.52 127.556 137.776C126.99 138.032 126.42 138.16 125.844 138.16C125.289 138.16 124.793 138.048 124.356 137.824C123.918 137.589 123.577 137.275 123.332 136.88C123.086 136.485 122.964 136.043 122.964 135.552ZM128.292 136.064C128.569 135.787 128.708 135.525 128.708 135.28V134.32C128.078 134.085 127.438 133.968 126.788 133.968C126.148 133.968 125.625 134.101 125.22 134.368C124.825 134.624 124.628 134.971 124.628 135.408C124.628 135.771 124.772 136.107 125.06 136.416C125.358 136.715 125.785 136.864 126.34 136.864C126.713 136.864 127.076 136.789 127.428 136.64C127.78 136.491 128.068 136.299 128.292 136.064ZM132.603 128.256V126.32H134.363V128.256H132.603ZM132.603 138V129.632H134.363V138H132.603ZM143.982 138H142.222V133.312C142.222 132.523 142.094 131.952 141.838 131.6C141.593 131.237 141.225 131.056 140.734 131.056C140.393 131.056 140.051 131.141 139.71 131.312C139.379 131.483 139.081 131.717 138.814 132.016C138.547 132.315 138.355 132.651 138.238 133.024V138H136.478V129.632H138.078V131.312C138.398 130.757 138.862 130.315 139.47 129.984C140.078 129.653 140.75 129.488 141.486 129.488C142.147 129.488 142.659 129.648 143.022 129.968C143.385 130.277 143.635 130.688 143.774 131.2C143.913 131.712 143.982 132.277 143.982 132.896V138ZM150.537 138.16C149.897 138.16 149.315 138.011 148.793 137.712C148.27 137.403 147.865 136.992 147.577 136.48V138H146.025V126.32H147.785V131.216C148.115 130.683 148.526 130.261 149.017 129.952C149.518 129.643 150.105 129.488 150.777 129.488C151.523 129.488 152.174 129.691 152.729 130.096C153.283 130.501 153.715 131.04 154.025 131.712C154.334 132.373 154.489 133.088 154.489 133.856C154.489 134.645 154.313 135.365 153.961 136.016C153.619 136.667 153.15 137.189 152.553 137.584C151.955 137.968 151.283 138.16 150.537 138.16ZM150.073 136.656C150.585 136.656 151.038 136.528 151.433 136.272C151.827 136.005 152.131 135.659 152.345 135.232C152.569 134.805 152.681 134.347 152.681 133.856C152.681 133.355 152.574 132.885 152.361 132.448C152.158 132.011 151.87 131.659 151.497 131.392C151.123 131.125 150.691 130.992 150.201 130.992C149.667 130.992 149.187 131.168 148.761 131.52C148.334 131.872 148.009 132.299 147.785 132.8V135.008C147.87 135.328 148.035 135.611 148.281 135.856C148.526 136.101 148.809 136.299 149.129 136.448C149.459 136.587 149.774 136.656 150.073 136.656ZM159.832 138.16C158.957 138.16 158.194 137.963 157.544 137.568C156.904 137.163 156.408 136.635 156.056 135.984C155.704 135.323 155.528 134.603 155.528 133.824C155.528 133.045 155.704 132.331 156.056 131.68C156.418 131.019 156.92 130.491 157.56 130.096C158.21 129.691 158.968 129.488 159.832 129.488C160.696 129.488 161.448 129.691 162.088 130.096C162.738 130.491 163.24 131.019 163.592 131.68C163.954 132.331 164.136 133.045 164.136 133.824C164.136 134.603 163.96 135.323 163.608 135.984C163.256 136.635 162.754 137.163 162.104 137.568C161.464 137.963 160.706 138.16 159.832 138.16ZM157.336 133.84C157.336 134.373 157.448 134.853 157.672 135.28C157.896 135.707 158.194 136.043 158.568 136.288C158.941 136.533 159.362 136.656 159.832 136.656C160.29 136.656 160.706 136.533 161.08 136.288C161.464 136.032 161.768 135.691 161.992 135.264C162.216 134.837 162.328 134.357 162.328 133.824C162.328 133.291 162.216 132.811 161.992 132.384C161.768 131.957 161.464 131.621 161.08 131.376C160.706 131.12 160.29 130.992 159.832 130.992C159.373 130.992 158.952 131.12 158.568 131.376C158.194 131.621 157.896 131.963 157.672 132.4C157.448 132.827 157.336 133.307 157.336 133.84ZM175.847 129.632H177.527L174.007 138H172.503L170.999 134.224L169.495 138H167.991L164.455 129.632H166.135L168.823 136.288L170.007 133.2L168.567 129.648H170.055L170.999 132.256L171.927 129.648H173.415L171.991 133.2L173.175 136.288L175.847 129.632ZM177.476 138V135.952H178.932V138H177.476Z" fill="url(#paint2_linear)"/>
<path d="M1.056 128.256V126.32H2.816V128.256H1.056ZM1.056 138V129.632H2.816V138H1.056ZM12.435 138H10.675V133.312C10.675 132.523 10.547 131.952 10.291 131.6C10.0457 131.237 9.67767 131.056 9.187 131.056C8.84567 131.056 8.50433 131.141 8.163 131.312C7.83233 131.483 7.53367 131.717 7.267 132.016C7.00033 132.315 6.80833 132.651 6.691 133.024V138H4.931V129.632H6.531V131.312C6.851 130.757 7.315 130.315 7.923 129.984C8.531 129.653 9.203 129.488 9.939 129.488C10.6003 129.488 11.1123 129.648 11.475 129.968C11.8377 130.277 12.0883 130.688 12.227 131.2C12.3657 131.712 12.435 132.277 12.435 132.896V138ZM21.6474 138.112C21.0394 138.112 20.5647 137.952 20.2234 137.632C19.882 137.301 19.7114 136.859 19.7114 136.304V129.424C19.7114 129.125 19.6687 128.843 19.5834 128.576C19.498 128.309 19.3434 128.091 19.1194 127.92C18.906 127.749 18.602 127.664 18.2074 127.664C17.6634 127.664 17.2687 127.851 17.0234 128.224C16.7887 128.587 16.666 129.056 16.6554 129.632V129.84H18.1914V131.2H16.6554V138H14.8954V131.2H13.7754V129.84H14.8954V129.36C14.8954 128.357 15.178 127.573 15.7434 127.008C16.3194 126.443 17.13 126.16 18.1754 126.16C19.2847 126.16 20.1114 126.432 20.6554 126.976C21.1994 127.509 21.4714 128.203 21.4714 129.056V135.552C21.4714 135.957 21.53 136.224 21.6474 136.352C21.7754 136.48 21.9354 136.544 22.1274 136.544C22.3407 136.544 22.5487 136.517 22.7514 136.464C22.9647 136.411 23.1247 136.363 23.2314 136.32L23.4874 137.744C23.2954 137.819 23.018 137.899 22.6554 137.984C22.2927 138.069 21.9567 138.112 21.6474 138.112ZM24.4135 134.752V129.632H26.1735V134.4C26.1735 135.904 26.7068 136.656 27.7735 136.656C28.2748 136.656 28.7495 136.501 29.1975 136.192C29.6455 135.872 29.9922 135.424 30.2375 134.848V129.632H31.9975V136.016C31.9975 136.219 32.0348 136.363 32.1095 136.448C32.1842 136.533 32.3068 136.581 32.4775 136.592V138C32.2962 138.032 32.1468 138.053 32.0295 138.064C31.9122 138.075 31.8002 138.08 31.6935 138.08C31.3735 138.08 31.1068 137.995 30.8935 137.824C30.6802 137.653 30.5575 137.424 30.5255 137.136L30.4935 136.304C30.1202 136.912 29.6348 137.376 29.0375 137.696C28.4402 138.005 27.7842 138.16 27.0695 138.16C26.1948 138.16 25.5335 137.872 25.0855 137.296C24.6375 136.72 24.4135 135.872 24.4135 134.752ZM38.0355 138.16C37.1715 138.16 36.4142 137.963 35.7635 137.568C35.1128 137.173 34.6062 136.651 34.2435 136C33.8808 135.339 33.6995 134.619 33.6995 133.84C33.6995 133.051 33.8808 132.325 34.2435 131.664C34.6062 131.003 35.1128 130.475 35.7635 130.08C36.4142 129.685 37.1768 129.488 38.0515 129.488C38.9262 129.488 39.6835 129.691 40.3235 130.096C40.9635 130.491 41.4542 131.013 41.7955 131.664C42.1475 132.315 42.3235 133.013 42.3235 133.76C42.3235 134.027 42.3075 134.24 42.2755 134.4H35.5715C35.6035 134.891 35.7368 135.323 35.9715 135.696C36.2168 136.059 36.5208 136.347 36.8835 136.56C37.2568 136.763 37.6622 136.864 38.0995 136.864C38.5688 136.864 39.0115 136.747 39.4275 136.512C39.8435 136.277 40.1315 135.968 40.2915 135.584L41.7955 136.016C41.5075 136.645 41.0275 137.163 40.3555 137.568C39.6942 137.963 38.9208 138.16 38.0355 138.16ZM35.5235 133.232H40.5795C40.5368 132.752 40.3982 132.331 40.1635 131.968C39.9288 131.595 39.6248 131.307 39.2515 131.104C38.8888 130.891 38.4835 130.784 38.0355 130.784C37.5982 130.784 37.1928 130.891 36.8195 131.104C36.4568 131.307 36.1582 131.595 35.9235 131.968C35.6888 132.331 35.5555 132.752 35.5235 133.232ZM51.2631 138H49.5031V133.312C49.5031 132.523 49.3751 131.952 49.1191 131.6C48.8738 131.237 48.5058 131.056 48.0151 131.056C47.6738 131.056 47.3325 131.141 46.9911 131.312C46.6605 131.483 46.3618 131.717 46.0951 132.016C45.8285 132.315 45.6365 132.651 45.5191 133.024V138H43.7591V129.632H45.3591V131.312C45.6791 130.757 46.1431 130.315 46.7511 129.984C47.3591 129.653 48.0311 129.488 48.7671 129.488C49.4285 129.488 49.9405 129.648 50.3031 129.968C50.6658 130.277 50.9165 130.688 51.0551 131.2C51.1938 131.712 51.2631 132.277 51.2631 132.896V138ZM57.098 138.16C56.234 138.16 55.4767 137.963 54.826 137.568C54.1753 137.163 53.6687 136.629 53.306 135.968C52.9433 135.307 52.762 134.587 52.762 133.808C52.762 133.029 52.938 132.315 53.29 131.664C53.6527 131.003 54.154 130.475 54.794 130.08C55.4447 129.685 56.2127 129.488 57.098 129.488C57.962 129.488 58.7033 129.68 59.322 130.064C59.9513 130.437 60.4207 130.939 60.73 131.568L59.018 132.112C58.826 131.76 58.554 131.488 58.202 131.296C57.8607 131.093 57.482 130.992 57.066 130.992C56.5967 130.992 56.17 131.115 55.786 131.36C55.4127 131.595 55.114 131.925 54.89 132.352C54.6767 132.779 54.57 133.264 54.57 133.808C54.57 134.352 54.682 134.837 54.906 135.264C55.1407 135.691 55.4447 136.032 55.818 136.288C56.202 136.533 56.6233 136.656 57.082 136.656C57.5087 136.656 57.914 136.544 58.298 136.32C58.682 136.096 58.938 135.824 59.066 135.504L60.794 136.016C60.5167 136.645 60.0527 137.163 59.402 137.568C58.7513 137.963 57.9833 138.16 57.098 138.16ZM65.9574 138.16C65.0934 138.16 64.336 137.963 63.6854 137.568C63.0347 137.173 62.528 136.651 62.1654 136C61.8027 135.339 61.6214 134.619 61.6214 133.84C61.6214 133.051 61.8027 132.325 62.1654 131.664C62.528 131.003 63.0347 130.475 63.6854 130.08C64.336 129.685 65.0987 129.488 65.9734 129.488C66.848 129.488 67.6054 129.691 68.2454 130.096C68.8854 130.491 69.376 131.013 69.7174 131.664C70.0694 132.315 70.2454 133.013 70.2454 133.76C70.2454 134.027 70.2294 134.24 70.1974 134.4H63.4934C63.5254 134.891 63.6587 135.323 63.8934 135.696C64.1387 136.059 64.4427 136.347 64.8054 136.56C65.1787 136.763 65.584 136.864 66.0214 136.864C66.4907 136.864 66.9334 136.747 67.3494 136.512C67.7654 136.277 68.0534 135.968 68.2134 135.584L69.7174 136.016C69.4294 136.645 68.9494 137.163 68.2774 137.568C67.616 137.963 66.8427 138.16 65.9574 138.16ZM63.4454 133.232H68.5014C68.4587 132.752 68.32 132.331 68.0854 131.968C67.8507 131.595 67.5467 131.307 67.1734 131.104C66.8107 130.891 66.4054 130.784 65.9574 130.784C65.52 130.784 65.1147 130.891 64.7414 131.104C64.3787 131.307 64.08 131.595 63.8454 131.968C63.6107 132.331 63.4774 132.752 63.4454 133.232ZM76.385 131.152C75.7023 131.173 75.0943 131.333 74.561 131.632C74.0383 131.92 73.665 132.336 73.441 132.88V138H71.681V129.632H73.313V131.504C73.601 130.928 73.9797 130.469 74.449 130.128C74.9183 129.776 75.4143 129.584 75.937 129.552C76.033 129.552 76.1183 129.552 76.193 129.552C76.2677 129.552 76.3317 129.557 76.385 129.568V131.152ZM80.6414 138.16C79.9374 138.16 79.2707 138.043 78.6414 137.808C78.012 137.573 77.4734 137.232 77.0254 136.784L77.6814 135.6C78.1614 136.027 78.6414 136.336 79.1214 136.528C79.6014 136.72 80.0867 136.816 80.5774 136.816C81.068 136.816 81.468 136.725 81.7774 136.544C82.0867 136.352 82.2414 136.075 82.2414 135.712C82.2414 135.456 82.1614 135.259 82.0014 135.12C81.8414 134.981 81.6067 134.869 81.2974 134.784C80.9987 134.699 80.636 134.592 80.2094 134.464C79.612 134.283 79.1107 134.096 78.7054 133.904C78.3 133.701 77.996 133.456 77.7934 133.168C77.5907 132.88 77.4894 132.512 77.4894 132.064C77.4894 131.253 77.7934 130.624 78.4014 130.176C79.0094 129.717 79.804 129.488 80.7854 129.488C81.3934 129.488 81.9534 129.584 82.4654 129.776C82.988 129.957 83.4467 130.245 83.8414 130.64L83.0894 131.808C82.364 131.147 81.564 130.816 80.6894 130.816C80.3054 130.816 79.948 130.891 79.6174 131.04C79.2974 131.189 79.1374 131.467 79.1374 131.872C79.1374 132.213 79.2814 132.459 79.5694 132.608C79.8574 132.757 80.284 132.917 80.8494 133.088C81.4894 133.28 82.0387 133.472 82.4974 133.664C82.9667 133.845 83.324 134.085 83.5694 134.384C83.8254 134.672 83.9534 135.072 83.9534 135.584C83.9534 136.395 83.6494 137.029 83.0414 137.488C82.4334 137.936 81.6334 138.16 80.6414 138.16Z" fill="#FFF129"/>
<defs>
<linearGradient id="paint0_linear" x1="163.5" y1="0" x2="163.5" y2="38" gradientUnits="userSpaceOnUse">
<stop stop-color="white"/>
<stop offset="1" stop-color="white" stop-opacity="0"/>
</linearGradient>
<linearGradient id="paint1_linear" x1="163.5" y1="38" x2="163.5" y2="84" gradientUnits="userSpaceOnUse">
<stop stop-color="white"/>
<stop offset="1" stop-color="white" stop-opacity="0"/>
</linearGradient>
<linearGradient id="paint2_linear" x1="163.5" y1="96" x2="163.5" y2="144" gradientUnits="userSpaceOnUse">
<stop stop-color="white"/>
<stop offset="1" stop-color="white" stop-opacity="0"/>
</linearGradient>
</defs>
</svg>
