<svg width="503" height="137" viewBox="0 0 503 137" fill="none" xmlns="http://www.w3.org/2000/svg">
<path d="M31.92 36.264C31.92 38.312 31.36 39.976 30.24 41.256C29.152 42.536 27.68 43.48 25.824 44.088C23.968 44.696 21.92 45 19.68 45H2.928V10.92H22.704C24.304 10.92 25.68 11.352 26.832 12.216C28.016 13.048 28.912 14.136 29.52 15.48C30.16 16.824 30.48 18.216 30.48 19.656C30.48 21.224 30.064 22.744 29.232 24.216C28.432 25.688 27.216 26.792 25.584 27.528C27.536 28.104 29.072 29.112 30.192 30.552C31.344 31.992 31.92 33.896 31.92 36.264ZM12.288 18.888V24.12H18.672C19.312 24.12 19.888 23.944 20.4 23.592C20.944 23.24 21.216 22.536 21.216 21.48C21.216 20.552 20.992 19.896 20.544 19.512C20.096 19.096 19.568 18.888 18.96 18.888H12.288ZM22.416 34.344C22.416 33.512 22.192 32.824 21.744 32.28C21.296 31.704 20.72 31.416 20.016 31.416H12.288V37.128H19.68C20.448 37.128 21.088 36.888 21.6 36.408C22.144 35.928 22.416 35.24 22.416 34.344ZM35.4446 17.64V9.96H44.5646V17.64H35.4446ZM35.4446 45V19.752H44.5646V45H35.4446ZM61.611 45.48C58.667 45.48 56.155 44.888 54.075 43.704C52.027 42.52 50.459 40.952 49.371 39C48.315 37.048 47.787 34.952 47.787 32.712C47.787 30.28 48.315 28.056 49.371 26.04C50.427 23.992 51.979 22.36 54.027 21.144C56.075 19.896 58.603 19.272 61.611 19.272C64.619 19.272 67.147 19.88 69.195 21.096C71.243 22.312 72.795 23.912 73.851 25.896C74.907 27.88 75.435 30.04 75.435 32.376C75.435 33.368 75.355 34.296 75.195 35.16H57.483C57.579 36.504 58.075 37.48 58.971 38.088C59.867 38.664 60.843 38.952 61.899 38.952C62.891 38.952 63.819 38.728 64.683 38.28C65.579 37.832 66.171 37.208 66.459 36.408L74.187 38.616C73.163 40.632 71.579 42.28 69.435 43.56C67.291 44.84 64.683 45.48 61.611 45.48ZM57.291 29.688H65.643C65.515 28.472 65.067 27.512 64.299 26.808C63.563 26.104 62.619 25.752 61.467 25.752C60.315 25.752 59.371 26.104 58.635 26.808C57.899 27.512 57.451 28.472 57.291 29.688ZM103.821 45H94.701V30.792C94.701 29.544 94.413 28.648 93.837 28.104C93.293 27.528 92.653 27.24 91.917 27.24C91.149 27.24 90.333 27.576 89.469 28.248C88.605 28.92 87.965 29.784 87.549 30.84V45H78.429V19.752H86.637V23.496C87.533 22.12 88.797 21.08 90.429 20.376C92.061 19.64 93.965 19.272 96.141 19.272C97.869 19.272 99.245 19.576 100.269 20.184C101.293 20.792 102.061 21.576 102.573 22.536C103.085 23.496 103.421 24.504 103.581 25.56C103.741 26.584 103.821 27.528 103.821 28.392V45ZM114.153 45L105.657 19.752H115.017L119.529 36.888L124.089 19.752H132.585L124.089 45H114.153ZM146.549 45.48C143.605 45.48 141.093 44.888 139.013 43.704C136.965 42.52 135.397 40.952 134.309 39C133.253 37.048 132.725 34.952 132.725 32.712C132.725 30.28 133.253 28.056 134.309 26.04C135.365 23.992 136.917 22.36 138.965 21.144C141.013 19.896 143.541 19.272 146.549 19.272C149.557 19.272 152.085 19.88 154.133 21.096C156.181 22.312 157.733 23.912 158.789 25.896C159.845 27.88 160.373 30.04 160.373 32.376C160.373 33.368 160.293 34.296 160.133 35.16H142.421C142.517 36.504 143.013 37.48 143.909 38.088C144.805 38.664 145.781 38.952 146.837 38.952C147.829 38.952 148.757 38.728 149.621 38.28C150.517 37.832 151.109 37.208 151.397 36.408L159.125 38.616C158.101 40.632 156.517 42.28 154.373 43.56C152.229 44.84 149.621 45.48 146.549 45.48ZM142.229 29.688H150.581C150.453 28.472 150.005 27.512 149.237 26.808C148.501 26.104 147.557 25.752 146.405 25.752C145.253 25.752 144.309 26.104 143.573 26.808C142.837 27.512 142.389 28.472 142.229 29.688ZM188.759 45H179.639V30.792C179.639 29.544 179.351 28.648 178.775 28.104C178.231 27.528 177.591 27.24 176.855 27.24C176.087 27.24 175.271 27.576 174.407 28.248C173.543 28.92 172.903 29.784 172.487 30.84V45H163.367V19.752H171.575V23.496C172.471 22.12 173.735 21.08 175.367 20.376C176.999 19.64 178.903 19.272 181.079 19.272C182.807 19.272 184.183 19.576 185.207 20.184C186.231 20.792 186.999 21.576 187.51 22.536C188.023 23.496 188.359 24.504 188.519 25.56C188.679 26.584 188.759 27.528 188.759 28.392V45ZM193.179 17.64V9.96H202.299V17.64H193.179ZM193.179 45V19.752H202.299V45H193.179ZM205.569 32.328C205.569 29.832 206.033 27.608 206.961 25.656C207.921 23.672 209.233 22.12 210.897 21C212.561 19.848 214.465 19.272 216.609 19.272C218.241 19.272 219.745 19.656 221.121 20.424C222.497 21.16 223.537 22.184 224.241 23.496V9.96H233.361V34.92C233.361 35.784 233.489 36.392 233.745 36.744C234.001 37.064 234.449 37.256 235.089 37.32V45C233.521 45.32 232.241 45.48 231.249 45.48C228.145 45.48 226.353 44.312 225.873 41.976L225.681 41.064C224.817 42.6 223.649 43.72 222.177 44.424C220.705 45.128 219.137 45.48 217.473 45.48C215.169 45.48 213.121 44.92 211.329 43.8C209.537 42.68 208.129 41.128 207.105 39.144C206.081 37.16 205.569 34.888 205.569 32.328ZM224.289 35.208V30.696C223.873 29.576 223.217 28.68 222.321 28.008C221.457 27.304 220.545 26.952 219.585 26.952C218.273 26.952 217.169 27.496 216.273 28.584C215.409 29.672 214.977 30.984 214.977 32.52C214.977 34.088 215.441 35.368 216.369 36.36C217.297 37.32 218.497 37.8 219.969 37.8C221.665 37.8 223.105 36.936 224.289 35.208ZM251.267 45.48C248.259 45.48 245.731 44.872 243.683 43.656C241.635 42.408 240.083 40.792 239.027 38.808C237.971 36.824 237.443 34.68 237.443 32.376C237.443 30.04 237.971 27.88 239.027 25.896C240.083 23.912 241.635 22.312 243.683 21.096C245.731 19.88 248.259 19.272 251.267 19.272C254.275 19.272 256.803 19.88 258.851 21.096C260.899 22.312 262.451 23.912 263.507 25.896C264.563 27.88 265.091 30.04 265.091 32.376C265.091 34.68 264.563 36.824 263.507 38.808C262.451 40.792 260.899 42.408 258.851 43.656C256.803 44.872 254.275 45.48 251.267 45.48ZM246.803 32.376C246.803 34.04 247.219 35.368 248.051 36.36C248.915 37.32 249.987 37.8 251.267 37.8C252.579 37.8 253.651 37.32 254.483 36.36C255.315 35.368 255.731 34.04 255.731 32.376C255.731 30.68 255.315 29.352 254.483 28.392C253.651 27.432 252.579 26.952 251.267 26.952C249.987 26.952 248.915 27.432 248.051 28.392C247.219 29.352 246.803 30.68 246.803 32.376Z" fill="white"/>
<path d="M31.92 36.264C31.92 38.312 31.36 39.976 30.24 41.256C29.152 42.536 27.68 43.48 25.824 44.088C23.968 44.696 21.92 45 19.68 45H2.928V10.92H22.704C24.304 10.92 25.68 11.352 26.832 12.216C28.016 13.048 28.912 14.136 29.52 15.48C30.16 16.824 30.48 18.216 30.48 19.656C30.48 21.224 30.064 22.744 29.232 24.216C28.432 25.688 27.216 26.792 25.584 27.528C27.536 28.104 29.072 29.112 30.192 30.552C31.344 31.992 31.92 33.896 31.92 36.264ZM12.288 18.888V24.12H18.672C19.312 24.12 19.888 23.944 20.4 23.592C20.944 23.24 21.216 22.536 21.216 21.48C21.216 20.552 20.992 19.896 20.544 19.512C20.096 19.096 19.568 18.888 18.96 18.888H12.288ZM22.416 34.344C22.416 33.512 22.192 32.824 21.744 32.28C21.296 31.704 20.72 31.416 20.016 31.416H12.288V37.128H19.68C20.448 37.128 21.088 36.888 21.6 36.408C22.144 35.928 22.416 35.24 22.416 34.344ZM35.4446 17.64V9.96H44.5646V17.64H35.4446ZM35.4446 45V19.752H44.5646V45H35.4446ZM61.611 45.48C58.667 45.48 56.155 44.888 54.075 43.704C52.027 42.52 50.459 40.952 49.371 39C48.315 37.048 47.787 34.952 47.787 32.712C47.787 30.28 48.315 28.056 49.371 26.04C50.427 23.992 51.979 22.36 54.027 21.144C56.075 19.896 58.603 19.272 61.611 19.272C64.619 19.272 67.147 19.88 69.195 21.096C71.243 22.312 72.795 23.912 73.851 25.896C74.907 27.88 75.435 30.04 75.435 32.376C75.435 33.368 75.355 34.296 75.195 35.16H57.483C57.579 36.504 58.075 37.48 58.971 38.088C59.867 38.664 60.843 38.952 61.899 38.952C62.891 38.952 63.819 38.728 64.683 38.28C65.579 37.832 66.171 37.208 66.459 36.408L74.187 38.616C73.163 40.632 71.579 42.28 69.435 43.56C67.291 44.84 64.683 45.48 61.611 45.48ZM57.291 29.688H65.643C65.515 28.472 65.067 27.512 64.299 26.808C63.563 26.104 62.619 25.752 61.467 25.752C60.315 25.752 59.371 26.104 58.635 26.808C57.899 27.512 57.451 28.472 57.291 29.688ZM103.821 45H94.701V30.792C94.701 29.544 94.413 28.648 93.837 28.104C93.293 27.528 92.653 27.24 91.917 27.24C91.149 27.24 90.333 27.576 89.469 28.248C88.605 28.92 87.965 29.784 87.549 30.84V45H78.429V19.752H86.637V23.496C87.533 22.12 88.797 21.08 90.429 20.376C92.061 19.64 93.965 19.272 96.141 19.272C97.869 19.272 99.245 19.576 100.269 20.184C101.293 20.792 102.061 21.576 102.573 22.536C103.085 23.496 103.421 24.504 103.581 25.56C103.741 26.584 103.821 27.528 103.821 28.392V45ZM114.153 45L105.657 19.752H115.017L119.529 36.888L124.089 19.752H132.585L124.089 45H114.153ZM146.549 45.48C143.605 45.48 141.093 44.888 139.013 43.704C136.965 42.52 135.397 40.952 134.309 39C133.253 37.048 132.725 34.952 132.725 32.712C132.725 30.28 133.253 28.056 134.309 26.04C135.365 23.992 136.917 22.36 138.965 21.144C141.013 19.896 143.541 19.272 146.549 19.272C149.557 19.272 152.085 19.88 154.133 21.096C156.181 22.312 157.733 23.912 158.789 25.896C159.845 27.88 160.373 30.04 160.373 32.376C160.373 33.368 160.293 34.296 160.133 35.16H142.421C142.517 36.504 143.013 37.48 143.909 38.088C144.805 38.664 145.781 38.952 146.837 38.952C147.829 38.952 148.757 38.728 149.621 38.28C150.517 37.832 151.109 37.208 151.397 36.408L159.125 38.616C158.101 40.632 156.517 42.28 154.373 43.56C152.229 44.84 149.621 45.48 146.549 45.48ZM142.229 29.688H150.581C150.453 28.472 150.005 27.512 149.237 26.808C148.501 26.104 147.557 25.752 146.405 25.752C145.253 25.752 144.309 26.104 143.573 26.808C142.837 27.512 142.389 28.472 142.229 29.688ZM188.759 45H179.639V30.792C179.639 29.544 179.351 28.648 178.775 28.104C178.231 27.528 177.591 27.24 176.855 27.24C176.087 27.24 175.271 27.576 174.407 28.248C173.543 28.92 172.903 29.784 172.487 30.84V45H163.367V19.752H171.575V23.496C172.471 22.12 173.735 21.08 175.367 20.376C176.999 19.64 178.903 19.272 181.079 19.272C182.807 19.272 184.183 19.576 185.207 20.184C186.231 20.792 186.999 21.576 187.51 22.536C188.023 23.496 188.359 24.504 188.519 25.56C188.679 26.584 188.759 27.528 188.759 28.392V45ZM193.179 17.64V9.96H202.299V17.64H193.179ZM193.179 45V19.752H202.299V45H193.179ZM205.569 32.328C205.569 29.832 206.033 27.608 206.961 25.656C207.921 23.672 209.233 22.12 210.897 21C212.561 19.848 214.465 19.272 216.609 19.272C218.241 19.272 219.745 19.656 221.121 20.424C222.497 21.16 223.537 22.184 224.241 23.496V9.96H233.361V34.92C233.361 35.784 233.489 36.392 233.745 36.744C234.001 37.064 234.449 37.256 235.089 37.32V45C233.521 45.32 232.241 45.48 231.249 45.48C228.145 45.48 226.353 44.312 225.873 41.976L225.681 41.064C224.817 42.6 223.649 43.72 222.177 44.424C220.705 45.128 219.137 45.48 217.473 45.48C215.169 45.48 213.121 44.92 211.329 43.8C209.537 42.68 208.129 41.128 207.105 39.144C206.081 37.16 205.569 34.888 205.569 32.328ZM224.289 35.208V30.696C223.873 29.576 223.217 28.68 222.321 28.008C221.457 27.304 220.545 26.952 219.585 26.952C218.273 26.952 217.169 27.496 216.273 28.584C215.409 29.672 214.977 30.984 214.977 32.52C214.977 34.088 215.441 35.368 216.369 36.36C217.297 37.32 218.497 37.8 219.969 37.8C221.665 37.8 223.105 36.936 224.289 35.208ZM251.267 45.48C248.259 45.48 245.731 44.872 243.683 43.656C241.635 42.408 240.083 40.792 239.027 38.808C237.971 36.824 237.443 34.68 237.443 32.376C237.443 30.04 237.971 27.88 239.027 25.896C240.083 23.912 241.635 22.312 243.683 21.096C245.731 19.88 248.259 19.272 251.267 19.272C254.275 19.272 256.803 19.88 258.851 21.096C260.899 22.312 262.451 23.912 263.507 25.896C264.563 27.88 265.091 30.04 265.091 32.376C265.091 34.68 264.563 36.824 263.507 38.808C262.451 40.792 260.899 42.408 258.851 43.656C256.803 44.872 254.275 45.48 251.267 45.48ZM246.803 32.376C246.803 34.04 247.219 35.368 248.051 36.36C248.915 37.32 249.987 37.8 251.267 37.8C252.579 37.8 253.651 37.32 254.483 36.36C255.315 35.368 255.731 34.04 255.731 32.376C255.731 30.68 255.315 29.352 254.483 28.392C253.651 27.432 252.579 26.952 251.267 26.952C249.987 26.952 248.915 27.432 248.051 28.392C247.219 29.352 246.803 30.68 246.803 32.376Z" fill="url(#paint0_linear)"/>
<path d="M37.492 73.356H29.224L28.184 77.88H34.84V85.16H26.416L24.284 94H16.432L18.616 85.16H15.496L13.364 94H5.512L7.696 85.16H1.872V77.88H9.464L10.504 73.356H4.524V66.596H12.168L14.508 57.08H22.36L19.968 66.596H23.088L25.428 57.08H33.28L30.888 66.596H37.492V73.356ZM20.384 77.88L21.424 73.356H18.304L17.264 77.88H20.384ZM42.5275 94V57.08H59.4795C61.2821 57.08 62.9461 57.444 64.4715 58.172C65.9968 58.9 67.3141 59.888 68.4235 61.136C69.5328 62.3493 70.3821 63.7187 70.9715 65.244C71.5955 66.7693 71.9075 68.312 71.9075 69.872C71.9075 71.9867 71.4395 73.98 70.5035 75.852C69.5675 77.724 68.2675 79.2493 66.6035 80.428L74.4035 94H63.2755L56.7755 82.664H52.6675V94H42.5275ZM52.6675 73.824H59.0635C59.6875 73.824 60.2595 73.4773 60.7795 72.784C61.3341 72.0907 61.6115 71.12 61.6115 69.872C61.6115 68.5893 61.2995 67.6187 60.6755 66.96C60.0515 66.2667 59.4275 65.92 58.8035 65.92H52.6675V73.824ZM86.1453 57.08H97.4813L109.233 94H98.9373L96.7013 86.772H86.8733L84.6893 94H74.3413L86.1453 57.08ZM95.0893 80.012L91.8133 67.012L88.3813 80.012H95.0893ZM112.301 94V57.08H122.441V94H112.301ZM138.945 75.852V94H128.805V57.08H136.709L151.529 75.852V57.08H161.669V94H153.609L138.945 75.852Z" fill="white"/>
<path d="M37.492 73.356H29.224L28.184 77.88H34.84V85.16H26.416L24.284 94H16.432L18.616 85.16H15.496L13.364 94H5.512L7.696 85.16H1.872V77.88H9.464L10.504 73.356H4.524V66.596H12.168L14.508 57.08H22.36L19.968 66.596H23.088L25.428 57.08H33.28L30.888 66.596H37.492V73.356ZM20.384 77.88L21.424 73.356H18.304L17.264 77.88H20.384ZM42.5275 94V57.08H59.4795C61.2821 57.08 62.9461 57.444 64.4715 58.172C65.9968 58.9 67.3141 59.888 68.4235 61.136C69.5328 62.3493 70.3821 63.7187 70.9715 65.244C71.5955 66.7693 71.9075 68.312 71.9075 69.872C71.9075 71.9867 71.4395 73.98 70.5035 75.852C69.5675 77.724 68.2675 79.2493 66.6035 80.428L74.4035 94H63.2755L56.7755 82.664H52.6675V94H42.5275ZM52.6675 73.824H59.0635C59.6875 73.824 60.2595 73.4773 60.7795 72.784C61.3341 72.0907 61.6115 71.12 61.6115 69.872C61.6115 68.5893 61.2995 67.6187 60.6755 66.96C60.0515 66.2667 59.4275 65.92 58.8035 65.92H52.6675V73.824ZM86.1453 57.08H97.4813L109.233 94H98.9373L96.7013 86.772H86.8733L84.6893 94H74.3413L86.1453 57.08ZM95.0893 80.012L91.8133 67.012L88.3813 80.012H95.0893ZM112.301 94V57.08H122.441V94H112.301ZM138.945 75.852V94H128.805V57.08H136.709L151.529 75.852V57.08H161.669V94H153.609L138.945 75.852Z" fill="url(#paint1_linear)"/>
<path d="M168.008 94V57.08H193.332V65.92H178.148V72.056H190.524V80.272H178.148V94H168.008ZM197.309 94V57.08H207.449V85.16H224.193V94H197.309ZM243.288 94.312C240.341 94.312 237.811 93.8267 235.696 92.856C233.581 91.8853 231.848 90.5507 230.496 88.852C229.179 87.1533 228.208 85.212 227.584 83.028C226.96 80.8093 226.648 78.4867 226.648 76.06V57.08H236.788V76.06C236.788 77.6893 236.996 79.2147 237.412 80.636C237.863 82.0227 238.556 83.1493 239.492 84.016C240.463 84.8827 241.728 85.316 243.288 85.316C244.883 85.316 246.148 84.8827 247.084 84.016C248.055 83.1147 248.748 81.9707 249.164 80.584C249.615 79.1627 249.84 77.6547 249.84 76.06V57.08H259.98V76.06C259.98 79.492 259.373 82.5947 258.16 85.368C256.981 88.1067 255.161 90.2907 252.7 91.92C250.239 93.5147 247.101 94.312 243.288 94.312ZM292.125 85.16V94H265.813V57.08H291.657V65.92H275.953V71.12H289.369V79.336H275.953V85.16H292.125Z" fill="#FFF129"/>
<path d="M306.98 75.852V94H296.84V57.08H304.744L319.564 75.852V57.08H329.704V94H321.644L306.98 75.852ZM334.015 75.228C334.015 72.9747 334.431 70.7733 335.263 68.624C336.13 66.44 337.378 64.464 339.007 62.696C340.636 60.928 342.612 59.524 344.935 58.484C347.292 57.4093 349.944 56.872 352.891 56.872C356.427 56.872 359.512 57.6173 362.147 59.108C364.782 60.564 366.74 62.5053 368.023 64.932L360.275 70.444C359.824 69.2307 359.166 68.2947 358.299 67.636C357.467 66.9773 356.548 66.5267 355.543 66.284C354.572 66.0067 353.619 65.868 352.683 65.868C350.742 65.868 349.147 66.3533 347.899 67.324C346.686 68.2947 345.784 69.5253 345.195 71.016C344.606 72.472 344.311 73.98 344.311 75.54C344.311 77.2387 344.64 78.8333 345.299 80.324C345.992 81.8147 346.963 83.028 348.211 83.964C349.494 84.8653 351.019 85.316 352.787 85.316C353.723 85.316 354.676 85.1773 355.647 84.9C356.618 84.588 357.502 84.1027 358.299 83.444C359.096 82.7853 359.703 81.9013 360.119 80.792L368.387 85.732C367.659 87.5347 366.446 89.0773 364.747 90.36C363.048 91.6427 361.124 92.6307 358.975 93.324C356.826 93.9827 354.694 94.312 352.579 94.312C349.84 94.312 347.327 93.7747 345.039 92.7C342.786 91.5907 340.827 90.1347 339.163 88.332C337.534 86.4947 336.268 84.4493 335.367 82.196C334.466 79.908 334.015 77.5853 334.015 75.228ZM398.308 85.16V94H371.996V57.08H397.84V65.92H382.136V71.12H395.552V79.336H382.136V85.16H398.308ZM403.024 94V57.08H419.976C421.778 57.08 423.442 57.444 424.968 58.172C426.493 58.9 427.81 59.888 428.92 61.136C430.029 62.3493 430.878 63.7187 431.468 65.244C432.092 66.7693 432.404 68.312 432.404 69.872C432.404 71.9867 431.936 73.98 431 75.852C430.064 77.724 428.764 79.2493 427.1 80.428L434.9 94H423.772L417.272 82.664H413.164V94H403.024ZM413.164 73.824H419.56C420.184 73.824 420.756 73.4773 421.276 72.784C421.83 72.0907 422.108 71.12 422.108 69.872C422.108 68.5893 421.796 67.6187 421.172 66.96C420.548 66.2667 419.924 65.92 419.3 65.92H413.164V73.824Z" fill="#51E5FF"/>
<path d="M1.28 131V119.64H3.072V129.416H9.168V131H1.28ZM9.79175 128.552C9.79175 128.019 9.94108 127.555 10.2398 127.16C10.5384 126.755 10.9544 126.445 11.4878 126.232C12.0318 126.008 12.6558 125.896 13.3598 125.896C13.7331 125.896 14.1118 125.928 14.4958 125.992C14.8904 126.045 15.2371 126.125 15.5358 126.232V125.704C15.5358 125.117 15.3598 124.659 15.0078 124.328C14.6558 123.997 14.1491 123.832 13.4878 123.832C13.0291 123.832 12.5864 123.912 12.1598 124.072C11.7331 124.232 11.2904 124.467 10.8318 124.776L10.2398 123.592C10.7944 123.229 11.3491 122.957 11.9038 122.776C12.4691 122.584 13.0611 122.488 13.6798 122.488C14.7998 122.488 15.6798 122.787 16.3198 123.384C16.9704 123.971 17.2958 124.808 17.2958 125.896V129.016C17.2958 129.219 17.3278 129.363 17.3918 129.448C17.4664 129.533 17.5891 129.581 17.7598 129.592V131C17.5998 131.032 17.4558 131.053 17.3278 131.064C17.1998 131.075 17.0931 131.08 17.0078 131.08C16.6238 131.08 16.3358 130.989 16.1438 130.808C15.9624 130.616 15.8558 130.403 15.8238 130.168L15.7758 129.688C15.4131 130.157 14.9491 130.52 14.3838 130.776C13.8184 131.032 13.2478 131.16 12.6718 131.16C12.1171 131.16 11.6211 131.048 11.1838 130.824C10.7464 130.589 10.4051 130.275 10.1598 129.88C9.91442 129.485 9.79175 129.043 9.79175 128.552ZM15.1198 129.064C15.3971 128.787 15.5358 128.525 15.5358 128.28V127.32C14.9064 127.085 14.2664 126.968 13.6158 126.968C12.9758 126.968 12.4531 127.101 12.0478 127.368C11.6531 127.624 11.4557 127.971 11.4557 128.408C11.4557 128.771 11.5998 129.107 11.8878 129.416C12.1864 129.715 12.6131 129.864 13.1678 129.864C13.5411 129.864 13.9038 129.789 14.2558 129.64C14.6078 129.491 14.8958 129.299 15.1198 129.064ZM28.1361 131.16C27.4641 131.16 26.8721 131 26.3601 130.68C25.8481 130.36 25.4428 129.944 25.1441 129.432V134.408H23.3841V122.632H24.9361V124.136C25.2561 123.635 25.6721 123.235 26.1841 122.936C26.6961 122.637 27.2668 122.488 27.8961 122.488C28.6641 122.488 29.3415 122.691 29.9281 123.096C30.5255 123.491 30.9948 124.019 31.3361 124.68C31.6775 125.331 31.8481 126.04 31.8481 126.808C31.8481 127.619 31.6881 128.355 31.3681 129.016C31.0481 129.667 30.6108 130.189 30.0561 130.584C29.5015 130.968 28.8615 131.16 28.1361 131.16ZM27.5601 129.656C28.0615 129.656 28.4935 129.523 28.8561 129.256C29.2295 128.979 29.5175 128.627 29.7201 128.2C29.9335 127.763 30.0401 127.299 30.0401 126.808C30.0401 126.296 29.9228 125.827 29.6881 125.4C29.4641 124.973 29.1548 124.632 28.7601 124.376C28.3761 124.12 27.9335 123.992 27.4321 123.992C27.1335 123.992 26.8188 124.067 26.4881 124.216C26.1681 124.365 25.8855 124.563 25.6401 124.808C25.3948 125.053 25.2295 125.331 25.1441 125.64V127.832C25.3575 128.344 25.6828 128.776 26.1201 129.128C26.5681 129.48 27.0481 129.656 27.5601 129.656ZM33.447 119.32H35.207V128.584C35.207 129.011 35.271 129.283 35.399 129.4C35.527 129.517 35.687 129.576 35.879 129.576C36.0923 129.576 36.295 129.555 36.487 129.512C36.679 129.469 36.839 129.416 36.967 129.352L37.223 130.744C36.967 130.851 36.663 130.941 36.311 131.016C35.959 131.091 35.6443 131.128 35.367 131.128C34.7697 131.128 34.3003 130.963 33.959 130.632C33.6177 130.291 33.447 129.821 33.447 129.224V119.32ZM37.6355 128.552C37.6355 128.019 37.7848 127.555 38.0835 127.16C38.3822 126.755 38.7982 126.445 39.3315 126.232C39.8755 126.008 40.4995 125.896 41.2035 125.896C41.5768 125.896 41.9555 125.928 42.3395 125.992C42.7342 126.045 43.0808 126.125 43.3795 126.232V125.704C43.3795 125.117 43.2035 124.659 42.8515 124.328C42.4995 123.997 41.9928 123.832 41.3315 123.832C40.8728 123.832 40.4302 123.912 40.0035 124.072C39.5768 124.232 39.1342 124.467 38.6755 124.776L38.0835 123.592C38.6382 123.229 39.1928 122.957 39.7475 122.776C40.3128 122.584 40.9048 122.488 41.5235 122.488C42.6435 122.488 43.5235 122.787 44.1635 123.384C44.8142 123.971 45.1395 124.808 45.1395 125.896V129.016C45.1395 129.219 45.1715 129.363 45.2355 129.448C45.3102 129.533 45.4328 129.581 45.6035 129.592V131C45.4435 131.032 45.2995 131.053 45.1715 131.064C45.0435 131.075 44.9368 131.08 44.8515 131.08C44.4675 131.08 44.1795 130.989 43.9875 130.808C43.8062 130.616 43.6995 130.403 43.6675 130.168L43.6195 129.688C43.2568 130.157 42.7928 130.52 42.2275 130.776C41.6622 131.032 41.0915 131.16 40.5155 131.16C39.9608 131.16 39.4648 131.048 39.0275 130.824C38.5902 130.589 38.2488 130.275 38.0035 129.88C37.7582 129.485 37.6355 129.043 37.6355 128.552ZM42.9635 129.064C43.2408 128.787 43.3795 128.525 43.3795 128.28V127.32C42.7502 127.085 42.1102 126.968 41.4595 126.968C40.8195 126.968 40.2968 127.101 39.8915 127.368C39.4968 127.624 39.2995 127.971 39.2995 128.408C39.2995 128.771 39.4435 129.107 39.7315 129.416C40.0302 129.715 40.4568 129.864 41.0115 129.864C41.3848 129.864 41.7475 129.789 42.0995 129.64C42.4515 129.491 42.7395 129.299 42.9635 129.064ZM51.8683 130.568C51.6443 130.675 51.3349 130.797 50.9403 130.936C50.5456 131.064 50.1243 131.128 49.6763 131.128C49.1216 131.128 48.6416 130.979 48.2363 130.68C47.8416 130.381 47.6443 129.896 47.6443 129.224V123.992H46.5403V122.632H47.6443V119.88H49.4043V122.632H51.2283V123.992H49.4043V128.664C49.4256 128.963 49.5163 129.181 49.6763 129.32C49.8469 129.448 50.0549 129.512 50.3003 129.512C50.5456 129.512 50.7803 129.469 51.0043 129.384C51.2283 129.299 51.3936 129.229 51.5003 129.176L51.8683 130.568ZM52.4793 128.552C52.4793 128.019 52.6286 127.555 52.9273 127.16C53.2259 126.755 53.6419 126.445 54.1753 126.232C54.7193 126.008 55.3433 125.896 56.0473 125.896C56.4206 125.896 56.7993 125.928 57.1833 125.992C57.5779 126.045 57.9246 126.125 58.2233 126.232V125.704C58.2233 125.117 58.0473 124.659 57.6953 124.328C57.3433 123.997 56.8366 123.832 56.1753 123.832C55.7166 123.832 55.2739 123.912 54.8473 124.072C54.4206 124.232 53.9779 124.467 53.5193 124.776L52.9273 123.592C53.4819 123.229 54.0366 122.957 54.5913 122.776C55.1566 122.584 55.7486 122.488 56.3673 122.488C57.4873 122.488 58.3673 122.787 59.0073 123.384C59.6579 123.971 59.9833 124.808 59.9833 125.896V129.016C59.9833 129.219 60.0153 129.363 60.0793 129.448C60.1539 129.533 60.2766 129.581 60.4473 129.592V131C60.2873 131.032 60.1433 131.053 60.0153 131.064C59.8873 131.075 59.7806 131.08 59.6953 131.08C59.3113 131.08 59.0233 130.989 58.8313 130.808C58.6499 130.616 58.5433 130.403 58.5113 130.168L58.4633 129.688C58.1006 130.157 57.6366 130.52 57.0713 130.776C56.5059 131.032 55.9353 131.16 55.3593 131.16C54.8046 131.16 54.3086 131.048 53.8713 130.824C53.4339 130.589 53.0926 130.275 52.8473 129.88C52.6019 129.485 52.4793 129.043 52.4793 128.552ZM57.8073 129.064C58.0846 128.787 58.2233 128.525 58.2233 128.28V127.32C57.5939 127.085 56.9539 126.968 56.3033 126.968C55.6633 126.968 55.1406 127.101 54.7353 127.368C54.3406 127.624 54.1432 127.971 54.1432 128.408C54.1432 128.771 54.2873 129.107 54.5753 129.416C54.8739 129.715 55.3006 129.864 55.8553 129.864C56.2286 129.864 56.5913 129.789 56.9433 129.64C57.2953 129.491 57.5833 129.299 57.8073 129.064ZM62.5516 131V124.2H61.4316V122.84H62.5516V122.504C62.5516 121.48 62.7916 120.669 63.2716 120.072C63.7623 119.464 64.413 119.16 65.2236 119.16C65.9063 119.16 66.557 119.331 67.1756 119.672L66.7916 120.984C66.6316 120.888 66.4396 120.808 66.2156 120.744C66.0023 120.68 65.7943 120.648 65.5916 120.648C65.1756 120.648 64.8556 120.803 64.6316 121.112C64.4183 121.421 64.3116 121.869 64.3116 122.456V122.84H66.4556V124.2H64.3116V131H62.5516ZM71.3941 131.16C70.5195 131.16 69.7568 130.963 69.1061 130.568C68.4661 130.163 67.9701 129.635 67.6181 128.984C67.2661 128.323 67.0901 127.603 67.0901 126.824C67.0901 126.045 67.2661 125.331 67.6181 124.68C67.9808 124.019 68.4821 123.491 69.1221 123.096C69.7728 122.691 70.5301 122.488 71.3941 122.488C72.2581 122.488 73.0101 122.691 73.6501 123.096C74.3008 123.491 74.8021 124.019 75.1541 124.68C75.5168 125.331 75.6981 126.045 75.6981 126.824C75.6981 127.603 75.5221 128.323 75.1701 128.984C74.8181 129.635 74.3168 130.163 73.6661 130.568C73.0261 130.963 72.2688 131.16 71.3941 131.16ZM68.8981 126.84C68.8981 127.373 69.0101 127.853 69.2341 128.28C69.4581 128.707 69.7568 129.043 70.1301 129.288C70.5035 129.533 70.9248 129.656 71.3941 129.656C71.8528 129.656 72.2688 129.533 72.6421 129.288C73.0261 129.032 73.3301 128.691 73.5541 128.264C73.7781 127.837 73.8901 127.357 73.8901 126.824C73.8901 126.291 73.7781 125.811 73.5541 125.384C73.3301 124.957 73.0261 124.621 72.6421 124.376C72.2688 124.12 71.8528 123.992 71.3941 123.992C70.9355 123.992 70.5141 124.12 70.1301 124.376C69.7568 124.621 69.4581 124.963 69.2341 125.4C69.0101 125.827 68.8981 126.307 68.8981 126.84ZM81.9631 124.152C81.2805 124.173 80.6725 124.333 80.1391 124.632C79.6165 124.92 79.2431 125.336 79.0191 125.88V131H77.2591V122.632H78.8911V124.504C79.1791 123.928 79.5578 123.469 80.0271 123.128C80.4965 122.776 80.9925 122.584 81.5151 122.552C81.6111 122.552 81.6965 122.552 81.7711 122.552C81.8458 122.552 81.9098 122.557 81.9631 122.568V124.152ZM96.0435 131H94.2835V126.312C94.2835 125.544 94.1555 124.979 93.8995 124.616C93.6435 124.243 93.2702 124.056 92.7795 124.056C92.2888 124.056 91.8302 124.243 91.4035 124.616C90.9875 124.979 90.6942 125.453 90.5235 126.04V131H88.7635V126.312C88.7635 125.523 88.6355 124.952 88.3795 124.6C88.1235 124.237 87.7555 124.056 87.2755 124.056C86.7848 124.056 86.3262 124.237 85.8995 124.6C85.4835 124.963 85.1848 125.437 85.0035 126.024V131H83.2435V122.632H84.8435V124.312C85.1635 123.725 85.5955 123.277 86.1395 122.968C86.6835 122.648 87.3022 122.488 87.9955 122.488C88.6888 122.488 89.2328 122.669 89.6275 123.032C90.0328 123.395 90.2835 123.848 90.3795 124.392C91.1048 123.123 92.1555 122.488 93.5315 122.488C94.1928 122.488 94.7048 122.648 95.0675 122.968C95.4302 123.277 95.6808 123.693 95.8195 124.216C95.9688 124.728 96.0435 125.288 96.0435 125.896V131ZM97.4636 128.552C97.4636 128.019 97.613 127.555 97.9116 127.16C98.2103 126.755 98.6263 126.445 99.1596 126.232C99.7036 126.008 100.328 125.896 101.032 125.896C101.405 125.896 101.784 125.928 102.168 125.992C102.562 126.045 102.909 126.125 103.208 126.232V125.704C103.208 125.117 103.032 124.659 102.68 124.328C102.328 123.997 101.821 123.832 101.16 123.832C100.701 123.832 100.258 123.912 99.8316 124.072C99.405 124.232 98.9623 124.467 98.5036 124.776L97.9116 123.592C98.4663 123.229 99.021 122.957 99.5756 122.776C100.141 122.584 100.733 122.488 101.352 122.488C102.472 122.488 103.352 122.787 103.992 123.384C104.642 123.971 104.968 124.808 104.968 125.896V129.016C104.968 129.219 105 129.363 105.064 129.448C105.138 129.533 105.261 129.581 105.432 129.592V131C105.272 131.032 105.128 131.053 105 131.064C104.872 131.075 104.765 131.08 104.68 131.08C104.296 131.08 104.008 130.989 103.816 130.808C103.634 130.616 103.528 130.403 103.496 130.168L103.448 129.688C103.085 130.157 102.621 130.52 102.056 130.776C101.49 131.032 100.92 131.16 100.344 131.16C99.789 131.16 99.293 131.048 98.8556 130.824C98.4183 130.589 98.077 130.275 97.8316 129.88C97.5863 129.485 97.4636 129.043 97.4636 128.552ZM102.792 129.064C103.069 128.787 103.208 128.525 103.208 128.28V127.32C102.578 127.085 101.938 126.968 101.288 126.968C100.648 126.968 100.125 127.101 99.7196 127.368C99.325 127.624 99.1276 127.971 99.1276 128.408C99.1276 128.771 99.2716 129.107 99.5596 129.416C99.8583 129.715 100.285 129.864 100.84 129.864C101.213 129.864 101.576 129.789 101.928 129.64C102.28 129.491 102.568 129.299 102.792 129.064ZM114.032 131.16C113.328 131.16 112.661 131.043 112.032 130.808C111.403 130.573 110.864 130.232 110.416 129.784L111.072 128.6C111.552 129.027 112.032 129.336 112.512 129.528C112.992 129.72 113.477 129.816 113.968 129.816C114.459 129.816 114.859 129.725 115.168 129.544C115.477 129.352 115.632 129.075 115.632 128.712C115.632 128.456 115.552 128.259 115.392 128.12C115.232 127.981 114.997 127.869 114.688 127.784C114.389 127.699 114.027 127.592 113.6 127.464C113.003 127.283 112.501 127.096 112.096 126.904C111.691 126.701 111.387 126.456 111.184 126.168C110.981 125.88 110.88 125.512 110.88 125.064C110.88 124.253 111.184 123.624 111.792 123.176C112.4 122.717 113.195 122.488 114.176 122.488C114.784 122.488 115.344 122.584 115.856 122.776C116.379 122.957 116.837 123.245 117.232 123.64L116.48 124.808C115.755 124.147 114.955 123.816 114.08 123.816C113.696 123.816 113.339 123.891 113.008 124.04C112.688 124.189 112.528 124.467 112.528 124.872C112.528 125.213 112.672 125.459 112.96 125.608C113.248 125.757 113.675 125.917 114.24 126.088C114.88 126.28 115.429 126.472 115.888 126.664C116.357 126.845 116.715 127.085 116.96 127.384C117.216 127.672 117.344 128.072 117.344 128.584C117.344 129.395 117.04 130.029 116.432 130.488C115.824 130.936 115.024 131.16 114.032 131.16ZM118.915 121.256V119.32H120.675V121.256H118.915ZM118.915 131V122.632H120.675V131H118.915ZM130.294 131H128.534V126.312C128.534 125.523 128.406 124.952 128.15 124.6C127.905 124.237 127.537 124.056 127.046 124.056C126.705 124.056 126.364 124.141 126.022 124.312C125.692 124.483 125.393 124.717 125.126 125.016C124.86 125.315 124.668 125.651 124.55 126.024V131H122.79V122.632H124.39V124.312C124.71 123.757 125.174 123.315 125.782 122.984C126.39 122.653 127.062 122.488 127.798 122.488C128.46 122.488 128.972 122.648 129.334 122.968C129.697 123.277 129.948 123.688 130.086 124.2C130.225 124.712 130.294 125.277 130.294 125.896V131ZM140.082 131.16C139.218 131.16 138.461 130.963 137.81 130.568C137.16 130.173 136.653 129.651 136.29 129C135.928 128.339 135.746 127.619 135.746 126.84C135.746 126.051 135.928 125.325 136.29 124.664C136.653 124.003 137.16 123.475 137.81 123.08C138.461 122.685 139.224 122.488 140.098 122.488C140.973 122.488 141.73 122.691 142.37 123.096C143.01 123.491 143.501 124.013 143.842 124.664C144.194 125.315 144.37 126.013 144.37 126.76C144.37 127.027 144.354 127.24 144.322 127.4H137.618C137.65 127.891 137.784 128.323 138.018 128.696C138.264 129.059 138.568 129.347 138.93 129.56C139.304 129.763 139.709 129.864 140.146 129.864C140.616 129.864 141.058 129.747 141.474 129.512C141.89 129.277 142.178 128.968 142.338 128.584L143.842 129.016C143.554 129.645 143.074 130.163 142.402 130.568C141.741 130.963 140.968 131.16 140.082 131.16ZM137.57 126.232H142.626C142.584 125.752 142.445 125.331 142.21 124.968C141.976 124.595 141.672 124.307 141.298 124.104C140.936 123.891 140.53 123.784 140.082 123.784C139.645 123.784 139.24 123.891 138.866 124.104C138.504 124.307 138.205 124.595 137.97 124.968C137.736 125.331 137.602 125.752 137.57 126.232ZM150.384 130.568C150.16 130.675 149.851 130.797 149.456 130.936C149.061 131.064 148.64 131.128 148.192 131.128C147.637 131.128 147.157 130.979 146.752 130.68C146.357 130.381 146.16 129.896 146.16 129.224V123.992H145.056V122.632H146.16V119.88H147.92V122.632H149.744V123.992H147.92V128.664C147.941 128.963 148.032 129.181 148.192 129.32C148.363 129.448 148.571 129.512 148.816 129.512C149.061 129.512 149.296 129.469 149.52 129.384C149.744 129.299 149.909 129.229 150.016 129.176L150.384 130.568ZM151.603 121.256V119.32H153.363V121.256H151.603ZM151.603 131V122.632H153.363V131H151.603ZM158.662 131.16C157.937 131.16 157.291 130.963 156.726 130.568C156.171 130.163 155.739 129.635 155.43 128.984C155.121 128.323 154.966 127.597 154.966 126.808C154.966 126.019 155.137 125.299 155.478 124.648C155.83 123.987 156.299 123.464 156.886 123.08C157.483 122.685 158.155 122.488 158.902 122.488C159.542 122.488 160.118 122.643 160.63 122.952C161.142 123.261 161.553 123.661 161.862 124.152V122.632H163.414V134.408H161.654V129.432C160.95 130.584 159.953 131.16 158.662 131.16ZM159.302 129.656C159.825 129.656 160.283 129.507 160.678 129.208C161.073 128.899 161.398 128.515 161.654 128.056V125.848C161.579 125.517 161.419 125.213 161.174 124.936C160.929 124.648 160.635 124.419 160.294 124.248C159.963 124.077 159.633 123.992 159.302 123.992C158.801 123.992 158.358 124.131 157.974 124.408C157.601 124.675 157.302 125.027 157.078 125.464C156.865 125.901 156.758 126.365 156.758 126.856C156.758 127.368 156.865 127.837 157.078 128.264C157.302 128.691 157.601 129.032 157.974 129.288C158.358 129.533 158.801 129.656 159.302 129.656ZM165.445 127.752V122.632H167.205V127.4C167.205 128.904 167.738 129.656 168.805 129.656C169.306 129.656 169.781 129.501 170.229 129.192C170.677 128.872 171.023 128.424 171.269 127.848V122.632H173.029V129.016C173.029 129.219 173.066 129.363 173.141 129.448C173.215 129.533 173.338 129.581 173.509 129.592V131C173.327 131.032 173.178 131.053 173.061 131.064C172.943 131.075 172.831 131.08 172.725 131.08C172.405 131.08 172.138 130.995 171.925 130.824C171.711 130.653 171.589 130.424 171.557 130.136L171.525 129.304C171.151 129.912 170.666 130.376 170.069 130.696C169.471 131.005 168.815 131.16 168.101 131.16C167.226 131.16 166.565 130.872 166.117 130.296C165.669 129.72 165.445 128.872 165.445 127.752ZM179.067 131.16C178.203 131.16 177.445 130.963 176.795 130.568C176.144 130.173 175.637 129.651 175.275 129C174.912 128.339 174.731 127.619 174.731 126.84C174.731 126.051 174.912 125.325 175.275 124.664C175.637 124.003 176.144 123.475 176.795 123.08C177.445 122.685 178.208 122.488 179.083 122.488C179.957 122.488 180.715 122.691 181.355 123.096C181.995 123.491 182.485 124.013 182.827 124.664C183.179 125.315 183.355 126.013 183.355 126.76C183.355 127.027 183.339 127.24 183.307 127.4H176.603C176.635 127.891 176.768 128.323 177.003 128.696C177.248 129.059 177.552 129.347 177.915 129.56C178.288 129.763 178.693 129.864 179.131 129.864C179.6 129.864 180.043 129.747 180.459 129.512C180.875 129.277 181.163 128.968 181.323 128.584L182.827 129.016C182.539 129.645 182.059 130.163 181.387 130.568C180.725 130.963 179.952 131.16 179.067 131.16ZM176.555 126.232H181.611C181.568 125.752 181.429 125.331 181.195 124.968C180.96 124.595 180.656 124.307 180.283 124.104C179.92 123.891 179.515 123.784 179.067 123.784C178.629 123.784 178.224 123.891 177.851 124.104C177.488 124.307 177.189 124.595 176.955 124.968C176.72 125.331 176.587 125.752 176.555 126.232ZM189.368 130.568C189.144 130.675 188.835 130.797 188.44 130.936C188.046 131.064 187.624 131.128 187.176 131.128C186.622 131.128 186.142 130.979 185.736 130.68C185.342 130.381 185.144 129.896 185.144 129.224V123.992H184.04V122.632H185.144V119.88H186.904V122.632H188.728V123.992H186.904V128.664C186.926 128.963 187.016 129.181 187.176 129.32C187.347 129.448 187.555 129.512 187.8 129.512C188.046 129.512 188.28 129.469 188.504 129.384C188.728 129.299 188.894 129.229 189 129.176L189.368 130.568ZM189.979 128.552C189.979 128.019 190.129 127.555 190.427 127.16C190.726 126.755 191.142 126.445 191.675 126.232C192.219 126.008 192.843 125.896 193.547 125.896C193.921 125.896 194.299 125.928 194.683 125.992C195.078 126.045 195.425 126.125 195.723 126.232V125.704C195.723 125.117 195.547 124.659 195.195 124.328C194.843 123.997 194.337 123.832 193.675 123.832C193.217 123.832 192.774 123.912 192.347 124.072C191.921 124.232 191.478 124.467 191.019 124.776L190.427 123.592C190.982 123.229 191.537 122.957 192.091 122.776C192.657 122.584 193.249 122.488 193.867 122.488C194.987 122.488 195.867 122.787 196.507 123.384C197.158 123.971 197.483 124.808 197.483 125.896V129.016C197.483 129.219 197.515 129.363 197.579 129.448C197.654 129.533 197.777 129.581 197.947 129.592V131C197.787 131.032 197.643 131.053 197.515 131.064C197.387 131.075 197.281 131.08 197.195 131.08C196.811 131.08 196.523 130.989 196.331 130.808C196.15 130.616 196.043 130.403 196.011 130.168L195.963 129.688C195.601 130.157 195.137 130.52 194.571 130.776C194.006 131.032 193.435 131.16 192.859 131.16C192.305 131.16 191.809 131.048 191.371 130.824C190.934 130.589 190.593 130.275 190.347 129.88C190.102 129.485 189.979 129.043 189.979 128.552ZM195.307 129.064C195.585 128.787 195.723 128.525 195.723 128.28V127.32C195.094 127.085 194.454 126.968 193.803 126.968C193.163 126.968 192.641 127.101 192.235 127.368C191.841 127.624 191.643 127.971 191.643 128.408C191.643 128.771 191.787 129.107 192.075 129.416C192.374 129.715 192.801 129.864 193.355 129.864C193.729 129.864 194.091 129.789 194.443 129.64C194.795 129.491 195.083 129.299 195.307 129.064ZM202.595 131.16C201.891 131.16 201.224 131.043 200.595 130.808C199.965 130.573 199.427 130.232 198.979 129.784L199.635 128.6C200.115 129.027 200.595 129.336 201.075 129.528C201.555 129.72 202.04 129.816 202.531 129.816C203.021 129.816 203.421 129.725 203.731 129.544C204.04 129.352 204.195 129.075 204.195 128.712C204.195 128.456 204.115 128.259 203.955 128.12C203.795 127.981 203.56 127.869 203.251 127.784C202.952 127.699 202.589 127.592 202.163 127.464C201.565 127.283 201.064 127.096 200.659 126.904C200.253 126.701 199.949 126.456 199.747 126.168C199.544 125.88 199.443 125.512 199.443 125.064C199.443 124.253 199.747 123.624 200.355 123.176C200.963 122.717 201.757 122.488 202.739 122.488C203.347 122.488 203.907 122.584 204.419 122.776C204.941 122.957 205.4 123.245 205.795 123.64L205.043 124.808C204.317 124.147 203.517 123.816 202.643 123.816C202.259 123.816 201.901 123.891 201.571 124.04C201.251 124.189 201.091 124.467 201.091 124.872C201.091 125.213 201.235 125.459 201.523 125.608C201.811 125.757 202.237 125.917 202.803 126.088C203.443 126.28 203.992 126.472 204.451 126.664C204.92 126.845 205.277 127.085 205.523 127.384C205.779 127.672 205.907 128.072 205.907 128.584C205.907 129.395 205.603 130.029 204.995 130.488C204.387 130.936 203.587 131.16 202.595 131.16ZM216.183 131.16C215.511 131.16 214.919 131 214.407 130.68C213.895 130.36 213.49 129.944 213.191 129.432V134.408H211.431V122.632H212.983V124.136C213.303 123.635 213.719 123.235 214.231 122.936C214.743 122.637 215.314 122.488 215.943 122.488C216.711 122.488 217.388 122.691 217.975 123.096C218.572 123.491 219.042 124.019 219.383 124.68C219.724 125.331 219.895 126.04 219.895 126.808C219.895 127.619 219.735 128.355 219.415 129.016C219.095 129.667 218.658 130.189 218.103 130.584C217.548 130.968 216.908 131.16 216.183 131.16ZM215.607 129.656C216.108 129.656 216.54 129.523 216.903 129.256C217.276 128.979 217.564 128.627 217.767 128.2C217.98 127.763 218.087 127.299 218.087 126.808C218.087 126.296 217.97 125.827 217.735 125.4C217.511 124.973 217.202 124.632 216.807 124.376C216.423 124.12 215.98 123.992 215.479 123.992C215.18 123.992 214.866 124.067 214.535 124.216C214.215 124.365 213.932 124.563 213.687 124.808C213.442 125.053 213.276 125.331 213.191 125.64V127.832C213.404 128.344 213.73 128.776 214.167 129.128C214.615 129.48 215.095 129.656 215.607 129.656ZM220.87 128.552C220.87 128.019 221.019 127.555 221.318 127.16C221.617 126.755 222.033 126.445 222.566 126.232C223.11 126.008 223.734 125.896 224.438 125.896C224.811 125.896 225.19 125.928 225.574 125.992C225.969 126.045 226.315 126.125 226.614 126.232V125.704C226.614 125.117 226.438 124.659 226.086 124.328C225.734 123.997 225.227 123.832 224.566 123.832C224.107 123.832 223.665 123.912 223.238 124.072C222.811 124.232 222.369 124.467 221.91 124.776L221.318 123.592C221.873 123.229 222.427 122.957 222.982 122.776C223.547 122.584 224.139 122.488 224.758 122.488C225.878 122.488 226.758 122.787 227.398 123.384C228.049 123.971 228.374 124.808 228.374 125.896V129.016C228.374 129.219 228.406 129.363 228.47 129.448C228.545 129.533 228.667 129.581 228.838 129.592V131C228.678 131.032 228.534 131.053 228.406 131.064C228.278 131.075 228.171 131.08 228.086 131.08C227.702 131.08 227.414 130.989 227.222 130.808C227.041 130.616 226.934 130.403 226.902 130.168L226.854 129.688C226.491 130.157 226.027 130.52 225.462 130.776C224.897 131.032 224.326 131.16 223.75 131.16C223.195 131.16 222.699 131.048 222.262 130.824C221.825 130.589 221.483 130.275 221.238 129.88C220.993 129.485 220.87 129.043 220.87 128.552ZM226.198 129.064C226.475 128.787 226.614 128.525 226.614 128.28V127.32C225.985 127.085 225.345 126.968 224.694 126.968C224.054 126.968 223.531 127.101 223.126 127.368C222.731 127.624 222.534 127.971 222.534 128.408C222.534 128.771 222.678 129.107 222.966 129.416C223.265 129.715 223.691 129.864 224.246 129.864C224.619 129.864 224.982 129.789 225.334 129.64C225.686 129.491 225.974 129.299 226.198 129.064ZM235.213 124.152C234.53 124.173 233.922 124.333 233.389 124.632C232.866 124.92 232.493 125.336 232.269 125.88V131H230.509V122.632H232.141V124.504C232.429 123.928 232.808 123.469 233.277 123.128C233.746 122.776 234.242 122.584 234.765 122.552C234.861 122.552 234.946 122.552 235.021 122.552C235.096 122.552 235.16 122.557 235.213 122.568V124.152ZM235.87 128.552C235.87 128.019 236.019 127.555 236.318 127.16C236.617 126.755 237.033 126.445 237.566 126.232C238.11 126.008 238.734 125.896 239.438 125.896C239.811 125.896 240.19 125.928 240.574 125.992C240.969 126.045 241.315 126.125 241.614 126.232V125.704C241.614 125.117 241.438 124.659 241.086 124.328C240.734 123.997 240.227 123.832 239.566 123.832C239.107 123.832 238.665 123.912 238.238 124.072C237.811 124.232 237.369 124.467 236.91 124.776L236.318 123.592C236.873 123.229 237.427 122.957 237.982 122.776C238.547 122.584 239.139 122.488 239.758 122.488C240.878 122.488 241.758 122.787 242.398 123.384C243.049 123.971 243.374 124.808 243.374 125.896V129.016C243.374 129.219 243.406 129.363 243.47 129.448C243.545 129.533 243.667 129.581 243.838 129.592V131C243.678 131.032 243.534 131.053 243.406 131.064C243.278 131.075 243.171 131.08 243.086 131.08C242.702 131.08 242.414 130.989 242.222 130.808C242.041 130.616 241.934 130.403 241.902 130.168L241.854 129.688C241.491 130.157 241.027 130.52 240.462 130.776C239.897 131.032 239.326 131.16 238.75 131.16C238.195 131.16 237.699 131.048 237.262 130.824C236.825 130.589 236.483 130.275 236.238 129.88C235.993 129.485 235.87 129.043 235.87 128.552ZM241.198 129.064C241.475 128.787 241.614 128.525 241.614 128.28V127.32C240.985 127.085 240.345 126.968 239.694 126.968C239.054 126.968 238.531 127.101 238.126 127.368C237.731 127.624 237.534 127.971 237.534 128.408C237.534 128.771 237.678 129.107 237.966 129.416C238.265 129.715 238.691 129.864 239.246 129.864C239.619 129.864 239.982 129.789 240.334 129.64C240.686 129.491 240.974 129.299 241.198 129.064ZM249.478 119.32H251.238V128.584C251.238 129.011 251.302 129.283 251.43 129.4C251.558 129.517 251.718 129.576 251.91 129.576C252.124 129.576 252.326 129.555 252.518 129.512C252.71 129.469 252.87 129.416 252.998 129.352L253.254 130.744C252.998 130.851 252.694 130.941 252.342 131.016C251.99 131.091 251.676 131.128 251.398 131.128C250.801 131.128 250.332 130.963 249.99 130.632C249.649 130.291 249.478 129.821 249.478 129.224V119.32ZM258.035 131.16C257.16 131.16 256.397 130.963 255.747 130.568C255.107 130.163 254.611 129.635 254.259 128.984C253.907 128.323 253.731 127.603 253.731 126.824C253.731 126.045 253.907 125.331 254.259 124.68C254.621 124.019 255.123 123.491 255.763 123.096C256.413 122.691 257.171 122.488 258.035 122.488C258.899 122.488 259.651 122.691 260.291 123.096C260.941 123.491 261.443 124.019 261.795 124.68C262.157 125.331 262.339 126.045 262.339 126.824C262.339 127.603 262.163 128.323 261.811 128.984C261.459 129.635 260.957 130.163 260.307 130.568C259.667 130.963 258.909 131.16 258.035 131.16ZM255.539 126.84C255.539 127.373 255.651 127.853 255.875 128.28C256.099 128.707 256.397 129.043 256.771 129.288C257.144 129.533 257.565 129.656 258.035 129.656C258.493 129.656 258.909 129.533 259.283 129.288C259.667 129.032 259.971 128.691 260.195 128.264C260.419 127.837 260.531 127.357 260.531 126.824C260.531 126.291 260.419 125.811 260.195 125.384C259.971 124.957 259.667 124.621 259.283 124.376C258.909 124.12 258.493 123.992 258.035 123.992C257.576 123.992 257.155 124.12 256.771 124.376C256.397 124.621 256.099 124.963 255.875 125.4C255.651 125.827 255.539 126.307 255.539 126.84ZM266.876 131.16C266.172 131.16 265.505 131.043 264.876 130.808C264.246 130.573 263.708 130.232 263.26 129.784L263.916 128.6C264.396 129.027 264.876 129.336 265.356 129.528C265.836 129.72 266.321 129.816 266.812 129.816C267.302 129.816 267.702 129.725 268.012 129.544C268.321 129.352 268.476 129.075 268.476 128.712C268.476 128.456 268.396 128.259 268.236 128.12C268.076 127.981 267.841 127.869 267.532 127.784C267.233 127.699 266.87 127.592 266.444 127.464C265.846 127.283 265.345 127.096 264.94 126.904C264.534 126.701 264.23 126.456 264.028 126.168C263.825 125.88 263.724 125.512 263.724 125.064C263.724 124.253 264.028 123.624 264.636 123.176C265.244 122.717 266.038 122.488 267.02 122.488C267.628 122.488 268.188 122.584 268.7 122.776C269.222 122.957 269.681 123.245 270.076 123.64L269.324 124.808C268.598 124.147 267.798 123.816 266.924 123.816C266.54 123.816 266.182 123.891 265.852 124.04C265.532 124.189 265.372 124.467 265.372 124.872C265.372 125.213 265.516 125.459 265.804 125.608C266.092 125.757 266.518 125.917 267.084 126.088C267.724 126.28 268.273 126.472 268.732 126.664C269.201 126.845 269.558 127.085 269.804 127.384C270.06 127.672 270.188 128.072 270.188 128.584C270.188 129.395 269.884 130.029 269.276 130.488C268.668 130.936 267.868 131.16 266.876 131.16ZM363.606 126.824C363.606 126.024 363.766 125.299 364.086 124.648C364.417 123.987 364.865 123.464 365.43 123.08C365.995 122.685 366.646 122.488 367.382 122.488C368.022 122.488 368.598 122.653 369.11 122.984C369.633 123.315 370.038 123.725 370.326 124.216V119.32H372.086V129.016C372.086 129.219 372.123 129.363 372.198 129.448C372.273 129.533 372.395 129.581 372.566 129.592V131C372.235 131.053 371.979 131.08 371.798 131.08C371.467 131.08 371.185 130.989 370.95 130.808C370.726 130.616 370.609 130.381 370.598 130.104L370.582 129.48C370.262 130.013 369.83 130.429 369.286 130.728C368.742 131.016 368.177 131.16 367.59 131.16C366.822 131.16 366.134 130.963 365.526 130.568C364.929 130.173 364.459 129.651 364.118 129C363.777 128.339 363.606 127.613 363.606 126.824ZM370.326 127.992V125.8C370.198 125.459 370.006 125.155 369.75 124.888C369.494 124.611 369.201 124.392 368.87 124.232C368.55 124.072 368.23 123.992 367.91 123.992C367.409 123.992 366.971 124.131 366.598 124.408C366.235 124.675 365.947 125.027 365.734 125.464C365.531 125.901 365.43 126.365 365.43 126.856C365.43 127.368 365.542 127.837 365.766 128.264C366.001 128.691 366.315 129.032 366.71 129.288C367.105 129.533 367.547 129.656 368.038 129.656C368.337 129.656 368.646 129.587 368.966 129.448C369.297 129.299 369.585 129.101 369.83 128.856C370.075 128.6 370.241 128.312 370.326 127.992ZM378.114 131.16C377.25 131.16 376.492 130.963 375.842 130.568C375.191 130.173 374.684 129.651 374.322 129C373.959 128.339 373.778 127.619 373.778 126.84C373.778 126.051 373.959 125.325 374.322 124.664C374.684 124.003 375.191 123.475 375.842 123.08C376.492 122.685 377.255 122.488 378.13 122.488C379.004 122.488 379.762 122.691 380.402 123.096C381.042 123.491 381.532 124.013 381.874 124.664C382.226 125.315 382.402 126.013 382.402 126.76C382.402 127.027 382.386 127.24 382.354 127.4H375.65C375.682 127.891 375.815 128.323 376.05 128.696C376.295 129.059 376.599 129.347 376.962 129.56C377.335 129.763 377.74 129.864 378.178 129.864C378.647 129.864 379.09 129.747 379.506 129.512C379.922 129.277 380.21 128.968 380.37 128.584L381.874 129.016C381.586 129.645 381.106 130.163 380.434 130.568C379.772 130.963 378.999 131.16 378.114 131.16ZM375.602 126.232H380.658C380.615 125.752 380.476 125.331 380.242 124.968C380.007 124.595 379.703 124.307 379.33 124.104C378.967 123.891 378.562 123.784 378.114 123.784C377.676 123.784 377.271 123.891 376.898 124.104C376.535 124.307 376.236 124.595 376.002 124.968C375.767 125.331 375.634 125.752 375.602 126.232ZM388.014 131V119.64H392.958C393.47 119.64 393.94 119.747 394.366 119.96C394.793 120.173 395.161 120.456 395.47 120.808C395.79 121.16 396.036 121.555 396.206 121.992C396.388 122.429 396.478 122.877 396.478 123.336C396.478 123.848 396.382 124.333 396.19 124.792C396.009 125.24 395.753 125.629 395.422 125.96C395.092 126.291 394.702 126.531 394.254 126.68L396.926 131H394.91L392.446 127.048H389.806V131H388.014ZM389.806 125.464H392.942C393.273 125.464 393.566 125.368 393.822 125.176C394.078 124.973 394.281 124.712 394.43 124.392C394.58 124.072 394.654 123.72 394.654 123.336C394.654 122.941 394.569 122.589 394.398 122.28C394.228 121.96 394.004 121.704 393.726 121.512C393.449 121.32 393.156 121.224 392.846 121.224H389.806V125.464ZM397.62 128.552C397.62 128.019 397.769 127.555 398.068 127.16C398.367 126.755 398.783 126.445 399.316 126.232C399.86 126.008 400.484 125.896 401.188 125.896C401.561 125.896 401.94 125.928 402.324 125.992C402.719 126.045 403.065 126.125 403.364 126.232V125.704C403.364 125.117 403.188 124.659 402.836 124.328C402.484 123.997 401.977 123.832 401.316 123.832C400.857 123.832 400.415 123.912 399.988 124.072C399.561 124.232 399.119 124.467 398.66 124.776L398.068 123.592C398.623 123.229 399.177 122.957 399.732 122.776C400.297 122.584 400.889 122.488 401.508 122.488C402.628 122.488 403.508 122.787 404.148 123.384C404.799 123.971 405.124 124.808 405.124 125.896V129.016C405.124 129.219 405.156 129.363 405.22 129.448C405.295 129.533 405.417 129.581 405.588 129.592V131C405.428 131.032 405.284 131.053 405.156 131.064C405.028 131.075 404.921 131.08 404.836 131.08C404.452 131.08 404.164 130.989 403.972 130.808C403.791 130.616 403.684 130.403 403.652 130.168L403.604 129.688C403.241 130.157 402.777 130.52 402.212 130.776C401.647 131.032 401.076 131.16 400.5 131.16C399.945 131.16 399.449 131.048 399.012 130.824C398.575 130.589 398.233 130.275 397.988 129.88C397.743 129.485 397.62 129.043 397.62 128.552ZM402.948 129.064C403.225 128.787 403.364 128.525 403.364 128.28V127.32C402.735 127.085 402.095 126.968 401.444 126.968C400.804 126.968 400.281 127.101 399.876 127.368C399.481 127.624 399.284 127.971 399.284 128.408C399.284 128.771 399.428 129.107 399.716 129.416C400.015 129.715 400.441 129.864 400.996 129.864C401.369 129.864 401.732 129.789 402.084 129.64C402.436 129.491 402.724 129.299 402.948 129.064ZM407.259 121.256V119.32H409.019V121.256H407.259ZM407.259 131V122.632H409.019V131H407.259ZM418.638 131H416.878V126.312C416.878 125.523 416.75 124.952 416.494 124.6C416.249 124.237 415.881 124.056 415.39 124.056C415.049 124.056 414.707 124.141 414.366 124.312C414.035 124.483 413.737 124.717 413.47 125.016C413.203 125.315 413.011 125.651 412.894 126.024V131H411.134V122.632H412.734V124.312C413.054 123.757 413.518 123.315 414.126 122.984C414.734 122.653 415.406 122.488 416.142 122.488C416.803 122.488 417.315 122.648 417.678 122.968C418.041 123.277 418.291 123.688 418.43 124.2C418.569 124.712 418.638 125.277 418.638 125.896V131ZM425.193 131.16C424.553 131.16 423.972 131.011 423.449 130.712C422.926 130.403 422.521 129.992 422.233 129.48V131H420.681V119.32H422.441V124.216C422.772 123.683 423.182 123.261 423.673 122.952C424.174 122.643 424.761 122.488 425.433 122.488C426.18 122.488 426.83 122.691 427.385 123.096C427.94 123.501 428.372 124.04 428.681 124.712C428.99 125.373 429.145 126.088 429.145 126.856C429.145 127.645 428.969 128.365 428.617 129.016C428.276 129.667 427.806 130.189 427.209 130.584C426.612 130.968 425.94 131.16 425.193 131.16ZM424.729 129.656C425.241 129.656 425.694 129.528 426.089 129.272C426.484 129.005 426.788 128.659 427.001 128.232C427.225 127.805 427.337 127.347 427.337 126.856C427.337 126.355 427.23 125.885 427.017 125.448C426.814 125.011 426.526 124.659 426.153 124.392C425.78 124.125 425.348 123.992 424.857 123.992C424.324 123.992 423.844 124.168 423.417 124.52C422.99 124.872 422.665 125.299 422.441 125.8V128.008C422.526 128.328 422.692 128.611 422.937 128.856C423.182 129.101 423.465 129.299 423.785 129.448C424.116 129.587 424.43 129.656 424.729 129.656ZM434.488 131.16C433.613 131.16 432.851 130.963 432.2 130.568C431.56 130.163 431.064 129.635 430.712 128.984C430.36 128.323 430.184 127.603 430.184 126.824C430.184 126.045 430.36 125.331 430.712 124.68C431.075 124.019 431.576 123.491 432.216 123.096C432.867 122.691 433.624 122.488 434.488 122.488C435.352 122.488 436.104 122.691 436.744 123.096C437.395 123.491 437.896 124.019 438.248 124.68C438.611 125.331 438.792 126.045 438.792 126.824C438.792 127.603 438.616 128.323 438.264 128.984C437.912 129.635 437.411 130.163 436.76 130.568C436.12 130.963 435.363 131.16 434.488 131.16ZM431.992 126.84C431.992 127.373 432.104 127.853 432.328 128.28C432.552 128.707 432.851 129.043 433.224 129.288C433.597 129.533 434.019 129.656 434.488 129.656C434.947 129.656 435.363 129.533 435.736 129.288C436.12 129.032 436.424 128.691 436.648 128.264C436.872 127.837 436.984 127.357 436.984 126.824C436.984 126.291 436.872 125.811 436.648 125.384C436.424 124.957 436.12 124.621 435.736 124.376C435.363 124.12 434.947 123.992 434.488 123.992C434.029 123.992 433.608 124.12 433.224 124.376C432.851 124.621 432.552 124.963 432.328 125.4C432.104 125.827 431.992 126.307 431.992 126.84ZM450.504 122.632H452.184L448.664 131H447.16L445.656 127.224L444.152 131H442.648L439.112 122.632H440.792L443.48 129.288L444.664 126.2L443.224 122.648H444.712L445.656 125.256L446.584 122.648H448.072L446.648 126.2L447.832 129.288L450.504 122.632ZM452.132 131V128.952H453.588V131H452.132Z" fill="white"/>
<path d="M1.28 131V119.64H3.072V129.416H9.168V131H1.28ZM9.79175 128.552C9.79175 128.019 9.94108 127.555 10.2398 127.16C10.5384 126.755 10.9544 126.445 11.4878 126.232C12.0318 126.008 12.6558 125.896 13.3598 125.896C13.7331 125.896 14.1118 125.928 14.4958 125.992C14.8904 126.045 15.2371 126.125 15.5358 126.232V125.704C15.5358 125.117 15.3598 124.659 15.0078 124.328C14.6558 123.997 14.1491 123.832 13.4878 123.832C13.0291 123.832 12.5864 123.912 12.1598 124.072C11.7331 124.232 11.2904 124.467 10.8318 124.776L10.2398 123.592C10.7944 123.229 11.3491 122.957 11.9038 122.776C12.4691 122.584 13.0611 122.488 13.6798 122.488C14.7998 122.488 15.6798 122.787 16.3198 123.384C16.9704 123.971 17.2958 124.808 17.2958 125.896V129.016C17.2958 129.219 17.3278 129.363 17.3918 129.448C17.4664 129.533 17.5891 129.581 17.7598 129.592V131C17.5998 131.032 17.4558 131.053 17.3278 131.064C17.1998 131.075 17.0931 131.08 17.0078 131.08C16.6238 131.08 16.3358 130.989 16.1438 130.808C15.9624 130.616 15.8558 130.403 15.8238 130.168L15.7758 129.688C15.4131 130.157 14.9491 130.52 14.3838 130.776C13.8184 131.032 13.2478 131.16 12.6718 131.16C12.1171 131.16 11.6211 131.048 11.1838 130.824C10.7464 130.589 10.4051 130.275 10.1598 129.88C9.91442 129.485 9.79175 129.043 9.79175 128.552ZM15.1198 129.064C15.3971 128.787 15.5358 128.525 15.5358 128.28V127.32C14.9064 127.085 14.2664 126.968 13.6158 126.968C12.9758 126.968 12.4531 127.101 12.0478 127.368C11.6531 127.624 11.4557 127.971 11.4557 128.408C11.4557 128.771 11.5998 129.107 11.8878 129.416C12.1864 129.715 12.6131 129.864 13.1678 129.864C13.5411 129.864 13.9038 129.789 14.2558 129.64C14.6078 129.491 14.8958 129.299 15.1198 129.064ZM28.1361 131.16C27.4641 131.16 26.8721 131 26.3601 130.68C25.8481 130.36 25.4428 129.944 25.1441 129.432V134.408H23.3841V122.632H24.9361V124.136C25.2561 123.635 25.6721 123.235 26.1841 122.936C26.6961 122.637 27.2668 122.488 27.8961 122.488C28.6641 122.488 29.3415 122.691 29.9281 123.096C30.5255 123.491 30.9948 124.019 31.3361 124.68C31.6775 125.331 31.8481 126.04 31.8481 126.808C31.8481 127.619 31.6881 128.355 31.3681 129.016C31.0481 129.667 30.6108 130.189 30.0561 130.584C29.5015 130.968 28.8615 131.16 28.1361 131.16ZM27.5601 129.656C28.0615 129.656 28.4935 129.523 28.8561 129.256C29.2295 128.979 29.5175 128.627 29.7201 128.2C29.9335 127.763 30.0401 127.299 30.0401 126.808C30.0401 126.296 29.9228 125.827 29.6881 125.4C29.4641 124.973 29.1548 124.632 28.7601 124.376C28.3761 124.12 27.9335 123.992 27.4321 123.992C27.1335 123.992 26.8188 124.067 26.4881 124.216C26.1681 124.365 25.8855 124.563 25.6401 124.808C25.3948 125.053 25.2295 125.331 25.1441 125.64V127.832C25.3575 128.344 25.6828 128.776 26.1201 129.128C26.5681 129.48 27.0481 129.656 27.5601 129.656ZM33.447 119.32H35.207V128.584C35.207 129.011 35.271 129.283 35.399 129.4C35.527 129.517 35.687 129.576 35.879 129.576C36.0923 129.576 36.295 129.555 36.487 129.512C36.679 129.469 36.839 129.416 36.967 129.352L37.223 130.744C36.967 130.851 36.663 130.941 36.311 131.016C35.959 131.091 35.6443 131.128 35.367 131.128C34.7697 131.128 34.3003 130.963 33.959 130.632C33.6177 130.291 33.447 129.821 33.447 129.224V119.32ZM37.6355 128.552C37.6355 128.019 37.7848 127.555 38.0835 127.16C38.3822 126.755 38.7982 126.445 39.3315 126.232C39.8755 126.008 40.4995 125.896 41.2035 125.896C41.5768 125.896 41.9555 125.928 42.3395 125.992C42.7342 126.045 43.0808 126.125 43.3795 126.232V125.704C43.3795 125.117 43.2035 124.659 42.8515 124.328C42.4995 123.997 41.9928 123.832 41.3315 123.832C40.8728 123.832 40.4302 123.912 40.0035 124.072C39.5768 124.232 39.1342 124.467 38.6755 124.776L38.0835 123.592C38.6382 123.229 39.1928 122.957 39.7475 122.776C40.3128 122.584 40.9048 122.488 41.5235 122.488C42.6435 122.488 43.5235 122.787 44.1635 123.384C44.8142 123.971 45.1395 124.808 45.1395 125.896V129.016C45.1395 129.219 45.1715 129.363 45.2355 129.448C45.3102 129.533 45.4328 129.581 45.6035 129.592V131C45.4435 131.032 45.2995 131.053 45.1715 131.064C45.0435 131.075 44.9368 131.08 44.8515 131.08C44.4675 131.08 44.1795 130.989 43.9875 130.808C43.8062 130.616 43.6995 130.403 43.6675 130.168L43.6195 129.688C43.2568 130.157 42.7928 130.52 42.2275 130.776C41.6622 131.032 41.0915 131.16 40.5155 131.16C39.9608 131.16 39.4648 131.048 39.0275 130.824C38.5902 130.589 38.2488 130.275 38.0035 129.88C37.7582 129.485 37.6355 129.043 37.6355 128.552ZM42.9635 129.064C43.2408 128.787 43.3795 128.525 43.3795 128.28V127.32C42.7502 127.085 42.1102 126.968 41.4595 126.968C40.8195 126.968 40.2968 127.101 39.8915 127.368C39.4968 127.624 39.2995 127.971 39.2995 128.408C39.2995 128.771 39.4435 129.107 39.7315 129.416C40.0302 129.715 40.4568 129.864 41.0115 129.864C41.3848 129.864 41.7475 129.789 42.0995 129.64C42.4515 129.491 42.7395 129.299 42.9635 129.064ZM51.8683 130.568C51.6443 130.675 51.3349 130.797 50.9403 130.936C50.5456 131.064 50.1243 131.128 49.6763 131.128C49.1216 131.128 48.6416 130.979 48.2363 130.68C47.8416 130.381 47.6443 129.896 47.6443 129.224V123.992H46.5403V122.632H47.6443V119.88H49.4043V122.632H51.2283V123.992H49.4043V128.664C49.4256 128.963 49.5163 129.181 49.6763 129.32C49.8469 129.448 50.0549 129.512 50.3003 129.512C50.5456 129.512 50.7803 129.469 51.0043 129.384C51.2283 129.299 51.3936 129.229 51.5003 129.176L51.8683 130.568ZM52.4793 128.552C52.4793 128.019 52.6286 127.555 52.9273 127.16C53.2259 126.755 53.6419 126.445 54.1753 126.232C54.7193 126.008 55.3433 125.896 56.0473 125.896C56.4206 125.896 56.7993 125.928 57.1833 125.992C57.5779 126.045 57.9246 126.125 58.2233 126.232V125.704C58.2233 125.117 58.0473 124.659 57.6953 124.328C57.3433 123.997 56.8366 123.832 56.1753 123.832C55.7166 123.832 55.2739 123.912 54.8473 124.072C54.4206 124.232 53.9779 124.467 53.5193 124.776L52.9273 123.592C53.4819 123.229 54.0366 122.957 54.5913 122.776C55.1566 122.584 55.7486 122.488 56.3673 122.488C57.4873 122.488 58.3673 122.787 59.0073 123.384C59.6579 123.971 59.9833 124.808 59.9833 125.896V129.016C59.9833 129.219 60.0153 129.363 60.0793 129.448C60.1539 129.533 60.2766 129.581 60.4473 129.592V131C60.2873 131.032 60.1433 131.053 60.0153 131.064C59.8873 131.075 59.7806 131.08 59.6953 131.08C59.3113 131.08 59.0233 130.989 58.8313 130.808C58.6499 130.616 58.5433 130.403 58.5113 130.168L58.4633 129.688C58.1006 130.157 57.6366 130.52 57.0713 130.776C56.5059 131.032 55.9353 131.16 55.3593 131.16C54.8046 131.16 54.3086 131.048 53.8713 130.824C53.4339 130.589 53.0926 130.275 52.8473 129.88C52.6019 129.485 52.4793 129.043 52.4793 128.552ZM57.8073 129.064C58.0846 128.787 58.2233 128.525 58.2233 128.28V127.32C57.5939 127.085 56.9539 126.968 56.3033 126.968C55.6633 126.968 55.1406 127.101 54.7353 127.368C54.3406 127.624 54.1432 127.971 54.1432 128.408C54.1432 128.771 54.2873 129.107 54.5753 129.416C54.8739 129.715 55.3006 129.864 55.8553 129.864C56.2286 129.864 56.5913 129.789 56.9433 129.64C57.2953 129.491 57.5833 129.299 57.8073 129.064ZM62.5516 131V124.2H61.4316V122.84H62.5516V122.504C62.5516 121.48 62.7916 120.669 63.2716 120.072C63.7623 119.464 64.413 119.16 65.2236 119.16C65.9063 119.16 66.557 119.331 67.1756 119.672L66.7916 120.984C66.6316 120.888 66.4396 120.808 66.2156 120.744C66.0023 120.68 65.7943 120.648 65.5916 120.648C65.1756 120.648 64.8556 120.803 64.6316 121.112C64.4183 121.421 64.3116 121.869 64.3116 122.456V122.84H66.4556V124.2H64.3116V131H62.5516ZM71.3941 131.16C70.5195 131.16 69.7568 130.963 69.1061 130.568C68.4661 130.163 67.9701 129.635 67.6181 128.984C67.2661 128.323 67.0901 127.603 67.0901 126.824C67.0901 126.045 67.2661 125.331 67.6181 124.68C67.9808 124.019 68.4821 123.491 69.1221 123.096C69.7728 122.691 70.5301 122.488 71.3941 122.488C72.2581 122.488 73.0101 122.691 73.6501 123.096C74.3008 123.491 74.8021 124.019 75.1541 124.68C75.5168 125.331 75.6981 126.045 75.6981 126.824C75.6981 127.603 75.5221 128.323 75.1701 128.984C74.8181 129.635 74.3168 130.163 73.6661 130.568C73.0261 130.963 72.2688 131.16 71.3941 131.16ZM68.8981 126.84C68.8981 127.373 69.0101 127.853 69.2341 128.28C69.4581 128.707 69.7568 129.043 70.1301 129.288C70.5035 129.533 70.9248 129.656 71.3941 129.656C71.8528 129.656 72.2688 129.533 72.6421 129.288C73.0261 129.032 73.3301 128.691 73.5541 128.264C73.7781 127.837 73.8901 127.357 73.8901 126.824C73.8901 126.291 73.7781 125.811 73.5541 125.384C73.3301 124.957 73.0261 124.621 72.6421 124.376C72.2688 124.12 71.8528 123.992 71.3941 123.992C70.9355 123.992 70.5141 124.12 70.1301 124.376C69.7568 124.621 69.4581 124.963 69.2341 125.4C69.0101 125.827 68.8981 126.307 68.8981 126.84ZM81.9631 124.152C81.2805 124.173 80.6725 124.333 80.1391 124.632C79.6165 124.92 79.2431 125.336 79.0191 125.88V131H77.2591V122.632H78.8911V124.504C79.1791 123.928 79.5578 123.469 80.0271 123.128C80.4965 122.776 80.9925 122.584 81.5151 122.552C81.6111 122.552 81.6965 122.552 81.7711 122.552C81.8458 122.552 81.9098 122.557 81.9631 122.568V124.152ZM96.0435 131H94.2835V126.312C94.2835 125.544 94.1555 124.979 93.8995 124.616C93.6435 124.243 93.2702 124.056 92.7795 124.056C92.2888 124.056 91.8302 124.243 91.4035 124.616C90.9875 124.979 90.6942 125.453 90.5235 126.04V131H88.7635V126.312C88.7635 125.523 88.6355 124.952 88.3795 124.6C88.1235 124.237 87.7555 124.056 87.2755 124.056C86.7848 124.056 86.3262 124.237 85.8995 124.6C85.4835 124.963 85.1848 125.437 85.0035 126.024V131H83.2435V122.632H84.8435V124.312C85.1635 123.725 85.5955 123.277 86.1395 122.968C86.6835 122.648 87.3022 122.488 87.9955 122.488C88.6888 122.488 89.2328 122.669 89.6275 123.032C90.0328 123.395 90.2835 123.848 90.3795 124.392C91.1048 123.123 92.1555 122.488 93.5315 122.488C94.1928 122.488 94.7048 122.648 95.0675 122.968C95.4302 123.277 95.6808 123.693 95.8195 124.216C95.9688 124.728 96.0435 125.288 96.0435 125.896V131ZM97.4636 128.552C97.4636 128.019 97.613 127.555 97.9116 127.16C98.2103 126.755 98.6263 126.445 99.1596 126.232C99.7036 126.008 100.328 125.896 101.032 125.896C101.405 125.896 101.784 125.928 102.168 125.992C102.562 126.045 102.909 126.125 103.208 126.232V125.704C103.208 125.117 103.032 124.659 102.68 124.328C102.328 123.997 101.821 123.832 101.16 123.832C100.701 123.832 100.258 123.912 99.8316 124.072C99.405 124.232 98.9623 124.467 98.5036 124.776L97.9116 123.592C98.4663 123.229 99.021 122.957 99.5756 122.776C100.141 122.584 100.733 122.488 101.352 122.488C102.472 122.488 103.352 122.787 103.992 123.384C104.642 123.971 104.968 124.808 104.968 125.896V129.016C104.968 129.219 105 129.363 105.064 129.448C105.138 129.533 105.261 129.581 105.432 129.592V131C105.272 131.032 105.128 131.053 105 131.064C104.872 131.075 104.765 131.08 104.68 131.08C104.296 131.08 104.008 130.989 103.816 130.808C103.634 130.616 103.528 130.403 103.496 130.168L103.448 129.688C103.085 130.157 102.621 130.52 102.056 130.776C101.49 131.032 100.92 131.16 100.344 131.16C99.789 131.16 99.293 131.048 98.8556 130.824C98.4183 130.589 98.077 130.275 97.8316 129.88C97.5863 129.485 97.4636 129.043 97.4636 128.552ZM102.792 129.064C103.069 128.787 103.208 128.525 103.208 128.28V127.32C102.578 127.085 101.938 126.968 101.288 126.968C100.648 126.968 100.125 127.101 99.7196 127.368C99.325 127.624 99.1276 127.971 99.1276 128.408C99.1276 128.771 99.2716 129.107 99.5596 129.416C99.8583 129.715 100.285 129.864 100.84 129.864C101.213 129.864 101.576 129.789 101.928 129.64C102.28 129.491 102.568 129.299 102.792 129.064ZM114.032 131.16C113.328 131.16 112.661 131.043 112.032 130.808C111.403 130.573 110.864 130.232 110.416 129.784L111.072 128.6C111.552 129.027 112.032 129.336 112.512 129.528C112.992 129.72 113.477 129.816 113.968 129.816C114.459 129.816 114.859 129.725 115.168 129.544C115.477 129.352 115.632 129.075 115.632 128.712C115.632 128.456 115.552 128.259 115.392 128.12C115.232 127.981 114.997 127.869 114.688 127.784C114.389 127.699 114.027 127.592 113.6 127.464C113.003 127.283 112.501 127.096 112.096 126.904C111.691 126.701 111.387 126.456 111.184 126.168C110.981 125.88 110.88 125.512 110.88 125.064C110.88 124.253 111.184 123.624 111.792 123.176C112.4 122.717 113.195 122.488 114.176 122.488C114.784 122.488 115.344 122.584 115.856 122.776C116.379 122.957 116.837 123.245 117.232 123.64L116.48 124.808C115.755 124.147 114.955 123.816 114.08 123.816C113.696 123.816 113.339 123.891 113.008 124.04C112.688 124.189 112.528 124.467 112.528 124.872C112.528 125.213 112.672 125.459 112.96 125.608C113.248 125.757 113.675 125.917 114.24 126.088C114.88 126.28 115.429 126.472 115.888 126.664C116.357 126.845 116.715 127.085 116.96 127.384C117.216 127.672 117.344 128.072 117.344 128.584C117.344 129.395 117.04 130.029 116.432 130.488C115.824 130.936 115.024 131.16 114.032 131.16ZM118.915 121.256V119.32H120.675V121.256H118.915ZM118.915 131V122.632H120.675V131H118.915ZM130.294 131H128.534V126.312C128.534 125.523 128.406 124.952 128.15 124.6C127.905 124.237 127.537 124.056 127.046 124.056C126.705 124.056 126.364 124.141 126.022 124.312C125.692 124.483 125.393 124.717 125.126 125.016C124.86 125.315 124.668 125.651 124.55 126.024V131H122.79V122.632H124.39V124.312C124.71 123.757 125.174 123.315 125.782 122.984C126.39 122.653 127.062 122.488 127.798 122.488C128.46 122.488 128.972 122.648 129.334 122.968C129.697 123.277 129.948 123.688 130.086 124.2C130.225 124.712 130.294 125.277 130.294 125.896V131ZM140.082 131.16C139.218 131.16 138.461 130.963 137.81 130.568C137.16 130.173 136.653 129.651 136.29 129C135.928 128.339 135.746 127.619 135.746 126.84C135.746 126.051 135.928 125.325 136.29 124.664C136.653 124.003 137.16 123.475 137.81 123.08C138.461 122.685 139.224 122.488 140.098 122.488C140.973 122.488 141.73 122.691 142.37 123.096C143.01 123.491 143.501 124.013 143.842 124.664C144.194 125.315 144.37 126.013 144.37 126.76C144.37 127.027 144.354 127.24 144.322 127.4H137.618C137.65 127.891 137.784 128.323 138.018 128.696C138.264 129.059 138.568 129.347 138.93 129.56C139.304 129.763 139.709 129.864 140.146 129.864C140.616 129.864 141.058 129.747 141.474 129.512C141.89 129.277 142.178 128.968 142.338 128.584L143.842 129.016C143.554 129.645 143.074 130.163 142.402 130.568C141.741 130.963 140.968 131.16 140.082 131.16ZM137.57 126.232H142.626C142.584 125.752 142.445 125.331 142.21 124.968C141.976 124.595 141.672 124.307 141.298 124.104C140.936 123.891 140.53 123.784 140.082 123.784C139.645 123.784 139.24 123.891 138.866 124.104C138.504 124.307 138.205 124.595 137.97 124.968C137.736 125.331 137.602 125.752 137.57 126.232ZM150.384 130.568C150.16 130.675 149.851 130.797 149.456 130.936C149.061 131.064 148.64 131.128 148.192 131.128C147.637 131.128 147.157 130.979 146.752 130.68C146.357 130.381 146.16 129.896 146.16 129.224V123.992H145.056V122.632H146.16V119.88H147.92V122.632H149.744V123.992H147.92V128.664C147.941 128.963 148.032 129.181 148.192 129.32C148.363 129.448 148.571 129.512 148.816 129.512C149.061 129.512 149.296 129.469 149.52 129.384C149.744 129.299 149.909 129.229 150.016 129.176L150.384 130.568ZM151.603 121.256V119.32H153.363V121.256H151.603ZM151.603 131V122.632H153.363V131H151.603ZM158.662 131.16C157.937 131.16 157.291 130.963 156.726 130.568C156.171 130.163 155.739 129.635 155.43 128.984C155.121 128.323 154.966 127.597 154.966 126.808C154.966 126.019 155.137 125.299 155.478 124.648C155.83 123.987 156.299 123.464 156.886 123.08C157.483 122.685 158.155 122.488 158.902 122.488C159.542 122.488 160.118 122.643 160.63 122.952C161.142 123.261 161.553 123.661 161.862 124.152V122.632H163.414V134.408H161.654V129.432C160.95 130.584 159.953 131.16 158.662 131.16ZM159.302 129.656C159.825 129.656 160.283 129.507 160.678 129.208C161.073 128.899 161.398 128.515 161.654 128.056V125.848C161.579 125.517 161.419 125.213 161.174 124.936C160.929 124.648 160.635 124.419 160.294 124.248C159.963 124.077 159.633 123.992 159.302 123.992C158.801 123.992 158.358 124.131 157.974 124.408C157.601 124.675 157.302 125.027 157.078 125.464C156.865 125.901 156.758 126.365 156.758 126.856C156.758 127.368 156.865 127.837 157.078 128.264C157.302 128.691 157.601 129.032 157.974 129.288C158.358 129.533 158.801 129.656 159.302 129.656ZM165.445 127.752V122.632H167.205V127.4C167.205 128.904 167.738 129.656 168.805 129.656C169.306 129.656 169.781 129.501 170.229 129.192C170.677 128.872 171.023 128.424 171.269 127.848V122.632H173.029V129.016C173.029 129.219 173.066 129.363 173.141 129.448C173.215 129.533 173.338 129.581 173.509 129.592V131C173.327 131.032 173.178 131.053 173.061 131.064C172.943 131.075 172.831 131.08 172.725 131.08C172.405 131.08 172.138 130.995 171.925 130.824C171.711 130.653 171.589 130.424 171.557 130.136L171.525 129.304C171.151 129.912 170.666 130.376 170.069 130.696C169.471 131.005 168.815 131.16 168.101 131.16C167.226 131.16 166.565 130.872 166.117 130.296C165.669 129.72 165.445 128.872 165.445 127.752ZM179.067 131.16C178.203 131.16 177.445 130.963 176.795 130.568C176.144 130.173 175.637 129.651 175.275 129C174.912 128.339 174.731 127.619 174.731 126.84C174.731 126.051 174.912 125.325 175.275 124.664C175.637 124.003 176.144 123.475 176.795 123.08C177.445 122.685 178.208 122.488 179.083 122.488C179.957 122.488 180.715 122.691 181.355 123.096C181.995 123.491 182.485 124.013 182.827 124.664C183.179 125.315 183.355 126.013 183.355 126.76C183.355 127.027 183.339 127.24 183.307 127.4H176.603C176.635 127.891 176.768 128.323 177.003 128.696C177.248 129.059 177.552 129.347 177.915 129.56C178.288 129.763 178.693 129.864 179.131 129.864C179.6 129.864 180.043 129.747 180.459 129.512C180.875 129.277 181.163 128.968 181.323 128.584L182.827 129.016C182.539 129.645 182.059 130.163 181.387 130.568C180.725 130.963 179.952 131.16 179.067 131.16ZM176.555 126.232H181.611C181.568 125.752 181.429 125.331 181.195 124.968C180.96 124.595 180.656 124.307 180.283 124.104C179.92 123.891 179.515 123.784 179.067 123.784C178.629 123.784 178.224 123.891 177.851 124.104C177.488 124.307 177.189 124.595 176.955 124.968C176.72 125.331 176.587 125.752 176.555 126.232ZM189.368 130.568C189.144 130.675 188.835 130.797 188.44 130.936C188.046 131.064 187.624 131.128 187.176 131.128C186.622 131.128 186.142 130.979 185.736 130.68C185.342 130.381 185.144 129.896 185.144 129.224V123.992H184.04V122.632H185.144V119.88H186.904V122.632H188.728V123.992H186.904V128.664C186.926 128.963 187.016 129.181 187.176 129.32C187.347 129.448 187.555 129.512 187.8 129.512C188.046 129.512 188.28 129.469 188.504 129.384C188.728 129.299 188.894 129.229 189 129.176L189.368 130.568ZM189.979 128.552C189.979 128.019 190.129 127.555 190.427 127.16C190.726 126.755 191.142 126.445 191.675 126.232C192.219 126.008 192.843 125.896 193.547 125.896C193.921 125.896 194.299 125.928 194.683 125.992C195.078 126.045 195.425 126.125 195.723 126.232V125.704C195.723 125.117 195.547 124.659 195.195 124.328C194.843 123.997 194.337 123.832 193.675 123.832C193.217 123.832 192.774 123.912 192.347 124.072C191.921 124.232 191.478 124.467 191.019 124.776L190.427 123.592C190.982 123.229 191.537 122.957 192.091 122.776C192.657 122.584 193.249 122.488 193.867 122.488C194.987 122.488 195.867 122.787 196.507 123.384C197.158 123.971 197.483 124.808 197.483 125.896V129.016C197.483 129.219 197.515 129.363 197.579 129.448C197.654 129.533 197.777 129.581 197.947 129.592V131C197.787 131.032 197.643 131.053 197.515 131.064C197.387 131.075 197.281 131.08 197.195 131.08C196.811 131.08 196.523 130.989 196.331 130.808C196.15 130.616 196.043 130.403 196.011 130.168L195.963 129.688C195.601 130.157 195.137 130.52 194.571 130.776C194.006 131.032 193.435 131.16 192.859 131.16C192.305 131.16 191.809 131.048 191.371 130.824C190.934 130.589 190.593 130.275 190.347 129.88C190.102 129.485 189.979 129.043 189.979 128.552ZM195.307 129.064C195.585 128.787 195.723 128.525 195.723 128.28V127.32C195.094 127.085 194.454 126.968 193.803 126.968C193.163 126.968 192.641 127.101 192.235 127.368C191.841 127.624 191.643 127.971 191.643 128.408C191.643 128.771 191.787 129.107 192.075 129.416C192.374 129.715 192.801 129.864 193.355 129.864C193.729 129.864 194.091 129.789 194.443 129.64C194.795 129.491 195.083 129.299 195.307 129.064ZM202.595 131.16C201.891 131.16 201.224 131.043 200.595 130.808C199.965 130.573 199.427 130.232 198.979 129.784L199.635 128.6C200.115 129.027 200.595 129.336 201.075 129.528C201.555 129.72 202.04 129.816 202.531 129.816C203.021 129.816 203.421 129.725 203.731 129.544C204.04 129.352 204.195 129.075 204.195 128.712C204.195 128.456 204.115 128.259 203.955 128.12C203.795 127.981 203.56 127.869 203.251 127.784C202.952 127.699 202.589 127.592 202.163 127.464C201.565 127.283 201.064 127.096 200.659 126.904C200.253 126.701 199.949 126.456 199.747 126.168C199.544 125.88 199.443 125.512 199.443 125.064C199.443 124.253 199.747 123.624 200.355 123.176C200.963 122.717 201.757 122.488 202.739 122.488C203.347 122.488 203.907 122.584 204.419 122.776C204.941 122.957 205.4 123.245 205.795 123.64L205.043 124.808C204.317 124.147 203.517 123.816 202.643 123.816C202.259 123.816 201.901 123.891 201.571 124.04C201.251 124.189 201.091 124.467 201.091 124.872C201.091 125.213 201.235 125.459 201.523 125.608C201.811 125.757 202.237 125.917 202.803 126.088C203.443 126.28 203.992 126.472 204.451 126.664C204.92 126.845 205.277 127.085 205.523 127.384C205.779 127.672 205.907 128.072 205.907 128.584C205.907 129.395 205.603 130.029 204.995 130.488C204.387 130.936 203.587 131.16 202.595 131.16ZM216.183 131.16C215.511 131.16 214.919 131 214.407 130.68C213.895 130.36 213.49 129.944 213.191 129.432V134.408H211.431V122.632H212.983V124.136C213.303 123.635 213.719 123.235 214.231 122.936C214.743 122.637 215.314 122.488 215.943 122.488C216.711 122.488 217.388 122.691 217.975 123.096C218.572 123.491 219.042 124.019 219.383 124.68C219.724 125.331 219.895 126.04 219.895 126.808C219.895 127.619 219.735 128.355 219.415 129.016C219.095 129.667 218.658 130.189 218.103 130.584C217.548 130.968 216.908 131.16 216.183 131.16ZM215.607 129.656C216.108 129.656 216.54 129.523 216.903 129.256C217.276 128.979 217.564 128.627 217.767 128.2C217.98 127.763 218.087 127.299 218.087 126.808C218.087 126.296 217.97 125.827 217.735 125.4C217.511 124.973 217.202 124.632 216.807 124.376C216.423 124.12 215.98 123.992 215.479 123.992C215.18 123.992 214.866 124.067 214.535 124.216C214.215 124.365 213.932 124.563 213.687 124.808C213.442 125.053 213.276 125.331 213.191 125.64V127.832C213.404 128.344 213.73 128.776 214.167 129.128C214.615 129.48 215.095 129.656 215.607 129.656ZM220.87 128.552C220.87 128.019 221.019 127.555 221.318 127.16C221.617 126.755 222.033 126.445 222.566 126.232C223.11 126.008 223.734 125.896 224.438 125.896C224.811 125.896 225.19 125.928 225.574 125.992C225.969 126.045 226.315 126.125 226.614 126.232V125.704C226.614 125.117 226.438 124.659 226.086 124.328C225.734 123.997 225.227 123.832 224.566 123.832C224.107 123.832 223.665 123.912 223.238 124.072C222.811 124.232 222.369 124.467 221.91 124.776L221.318 123.592C221.873 123.229 222.427 122.957 222.982 122.776C223.547 122.584 224.139 122.488 224.758 122.488C225.878 122.488 226.758 122.787 227.398 123.384C228.049 123.971 228.374 124.808 228.374 125.896V129.016C228.374 129.219 228.406 129.363 228.47 129.448C228.545 129.533 228.667 129.581 228.838 129.592V131C228.678 131.032 228.534 131.053 228.406 131.064C228.278 131.075 228.171 131.08 228.086 131.08C227.702 131.08 227.414 130.989 227.222 130.808C227.041 130.616 226.934 130.403 226.902 130.168L226.854 129.688C226.491 130.157 226.027 130.52 225.462 130.776C224.897 131.032 224.326 131.16 223.75 131.16C223.195 131.16 222.699 131.048 222.262 130.824C221.825 130.589 221.483 130.275 221.238 129.88C220.993 129.485 220.87 129.043 220.87 128.552ZM226.198 129.064C226.475 128.787 226.614 128.525 226.614 128.28V127.32C225.985 127.085 225.345 126.968 224.694 126.968C224.054 126.968 223.531 127.101 223.126 127.368C222.731 127.624 222.534 127.971 222.534 128.408C222.534 128.771 222.678 129.107 222.966 129.416C223.265 129.715 223.691 129.864 224.246 129.864C224.619 129.864 224.982 129.789 225.334 129.64C225.686 129.491 225.974 129.299 226.198 129.064ZM235.213 124.152C234.53 124.173 233.922 124.333 233.389 124.632C232.866 124.92 232.493 125.336 232.269 125.88V131H230.509V122.632H232.141V124.504C232.429 123.928 232.808 123.469 233.277 123.128C233.746 122.776 234.242 122.584 234.765 122.552C234.861 122.552 234.946 122.552 235.021 122.552C235.096 122.552 235.16 122.557 235.213 122.568V124.152ZM235.87 128.552C235.87 128.019 236.019 127.555 236.318 127.16C236.617 126.755 237.033 126.445 237.566 126.232C238.11 126.008 238.734 125.896 239.438 125.896C239.811 125.896 240.19 125.928 240.574 125.992C240.969 126.045 241.315 126.125 241.614 126.232V125.704C241.614 125.117 241.438 124.659 241.086 124.328C240.734 123.997 240.227 123.832 239.566 123.832C239.107 123.832 238.665 123.912 238.238 124.072C237.811 124.232 237.369 124.467 236.91 124.776L236.318 123.592C236.873 123.229 237.427 122.957 237.982 122.776C238.547 122.584 239.139 122.488 239.758 122.488C240.878 122.488 241.758 122.787 242.398 123.384C243.049 123.971 243.374 124.808 243.374 125.896V129.016C243.374 129.219 243.406 129.363 243.47 129.448C243.545 129.533 243.667 129.581 243.838 129.592V131C243.678 131.032 243.534 131.053 243.406 131.064C243.278 131.075 243.171 131.08 243.086 131.08C242.702 131.08 242.414 130.989 242.222 130.808C242.041 130.616 241.934 130.403 241.902 130.168L241.854 129.688C241.491 130.157 241.027 130.52 240.462 130.776C239.897 131.032 239.326 131.16 238.75 131.16C238.195 131.16 237.699 131.048 237.262 130.824C236.825 130.589 236.483 130.275 236.238 129.88C235.993 129.485 235.87 129.043 235.87 128.552ZM241.198 129.064C241.475 128.787 241.614 128.525 241.614 128.28V127.32C240.985 127.085 240.345 126.968 239.694 126.968C239.054 126.968 238.531 127.101 238.126 127.368C237.731 127.624 237.534 127.971 237.534 128.408C237.534 128.771 237.678 129.107 237.966 129.416C238.265 129.715 238.691 129.864 239.246 129.864C239.619 129.864 239.982 129.789 240.334 129.64C240.686 129.491 240.974 129.299 241.198 129.064ZM249.478 119.32H251.238V128.584C251.238 129.011 251.302 129.283 251.43 129.4C251.558 129.517 251.718 129.576 251.91 129.576C252.124 129.576 252.326 129.555 252.518 129.512C252.71 129.469 252.87 129.416 252.998 129.352L253.254 130.744C252.998 130.851 252.694 130.941 252.342 131.016C251.99 131.091 251.676 131.128 251.398 131.128C250.801 131.128 250.332 130.963 249.99 130.632C249.649 130.291 249.478 129.821 249.478 129.224V119.32ZM258.035 131.16C257.16 131.16 256.397 130.963 255.747 130.568C255.107 130.163 254.611 129.635 254.259 128.984C253.907 128.323 253.731 127.603 253.731 126.824C253.731 126.045 253.907 125.331 254.259 124.68C254.621 124.019 255.123 123.491 255.763 123.096C256.413 122.691 257.171 122.488 258.035 122.488C258.899 122.488 259.651 122.691 260.291 123.096C260.941 123.491 261.443 124.019 261.795 124.68C262.157 125.331 262.339 126.045 262.339 126.824C262.339 127.603 262.163 128.323 261.811 128.984C261.459 129.635 260.957 130.163 260.307 130.568C259.667 130.963 258.909 131.16 258.035 131.16ZM255.539 126.84C255.539 127.373 255.651 127.853 255.875 128.28C256.099 128.707 256.397 129.043 256.771 129.288C257.144 129.533 257.565 129.656 258.035 129.656C258.493 129.656 258.909 129.533 259.283 129.288C259.667 129.032 259.971 128.691 260.195 128.264C260.419 127.837 260.531 127.357 260.531 126.824C260.531 126.291 260.419 125.811 260.195 125.384C259.971 124.957 259.667 124.621 259.283 124.376C258.909 124.12 258.493 123.992 258.035 123.992C257.576 123.992 257.155 124.12 256.771 124.376C256.397 124.621 256.099 124.963 255.875 125.4C255.651 125.827 255.539 126.307 255.539 126.84ZM266.876 131.16C266.172 131.16 265.505 131.043 264.876 130.808C264.246 130.573 263.708 130.232 263.26 129.784L263.916 128.6C264.396 129.027 264.876 129.336 265.356 129.528C265.836 129.72 266.321 129.816 266.812 129.816C267.302 129.816 267.702 129.725 268.012 129.544C268.321 129.352 268.476 129.075 268.476 128.712C268.476 128.456 268.396 128.259 268.236 128.12C268.076 127.981 267.841 127.869 267.532 127.784C267.233 127.699 266.87 127.592 266.444 127.464C265.846 127.283 265.345 127.096 264.94 126.904C264.534 126.701 264.23 126.456 264.028 126.168C263.825 125.88 263.724 125.512 263.724 125.064C263.724 124.253 264.028 123.624 264.636 123.176C265.244 122.717 266.038 122.488 267.02 122.488C267.628 122.488 268.188 122.584 268.7 122.776C269.222 122.957 269.681 123.245 270.076 123.64L269.324 124.808C268.598 124.147 267.798 123.816 266.924 123.816C266.54 123.816 266.182 123.891 265.852 124.04C265.532 124.189 265.372 124.467 265.372 124.872C265.372 125.213 265.516 125.459 265.804 125.608C266.092 125.757 266.518 125.917 267.084 126.088C267.724 126.28 268.273 126.472 268.732 126.664C269.201 126.845 269.558 127.085 269.804 127.384C270.06 127.672 270.188 128.072 270.188 128.584C270.188 129.395 269.884 130.029 269.276 130.488C268.668 130.936 267.868 131.16 266.876 131.16ZM363.606 126.824C363.606 126.024 363.766 125.299 364.086 124.648C364.417 123.987 364.865 123.464 365.43 123.08C365.995 122.685 366.646 122.488 367.382 122.488C368.022 122.488 368.598 122.653 369.11 122.984C369.633 123.315 370.038 123.725 370.326 124.216V119.32H372.086V129.016C372.086 129.219 372.123 129.363 372.198 129.448C372.273 129.533 372.395 129.581 372.566 129.592V131C372.235 131.053 371.979 131.08 371.798 131.08C371.467 131.08 371.185 130.989 370.95 130.808C370.726 130.616 370.609 130.381 370.598 130.104L370.582 129.48C370.262 130.013 369.83 130.429 369.286 130.728C368.742 131.016 368.177 131.16 367.59 131.16C366.822 131.16 366.134 130.963 365.526 130.568C364.929 130.173 364.459 129.651 364.118 129C363.777 128.339 363.606 127.613 363.606 126.824ZM370.326 127.992V125.8C370.198 125.459 370.006 125.155 369.75 124.888C369.494 124.611 369.201 124.392 368.87 124.232C368.55 124.072 368.23 123.992 367.91 123.992C367.409 123.992 366.971 124.131 366.598 124.408C366.235 124.675 365.947 125.027 365.734 125.464C365.531 125.901 365.43 126.365 365.43 126.856C365.43 127.368 365.542 127.837 365.766 128.264C366.001 128.691 366.315 129.032 366.71 129.288C367.105 129.533 367.547 129.656 368.038 129.656C368.337 129.656 368.646 129.587 368.966 129.448C369.297 129.299 369.585 129.101 369.83 128.856C370.075 128.6 370.241 128.312 370.326 127.992ZM378.114 131.16C377.25 131.16 376.492 130.963 375.842 130.568C375.191 130.173 374.684 129.651 374.322 129C373.959 128.339 373.778 127.619 373.778 126.84C373.778 126.051 373.959 125.325 374.322 124.664C374.684 124.003 375.191 123.475 375.842 123.08C376.492 122.685 377.255 122.488 378.13 122.488C379.004 122.488 379.762 122.691 380.402 123.096C381.042 123.491 381.532 124.013 381.874 124.664C382.226 125.315 382.402 126.013 382.402 126.76C382.402 127.027 382.386 127.24 382.354 127.4H375.65C375.682 127.891 375.815 128.323 376.05 128.696C376.295 129.059 376.599 129.347 376.962 129.56C377.335 129.763 377.74 129.864 378.178 129.864C378.647 129.864 379.09 129.747 379.506 129.512C379.922 129.277 380.21 128.968 380.37 128.584L381.874 129.016C381.586 129.645 381.106 130.163 380.434 130.568C379.772 130.963 378.999 131.16 378.114 131.16ZM375.602 126.232H380.658C380.615 125.752 380.476 125.331 380.242 124.968C380.007 124.595 379.703 124.307 379.33 124.104C378.967 123.891 378.562 123.784 378.114 123.784C377.676 123.784 377.271 123.891 376.898 124.104C376.535 124.307 376.236 124.595 376.002 124.968C375.767 125.331 375.634 125.752 375.602 126.232ZM388.014 131V119.64H392.958C393.47 119.64 393.94 119.747 394.366 119.96C394.793 120.173 395.161 120.456 395.47 120.808C395.79 121.16 396.036 121.555 396.206 121.992C396.388 122.429 396.478 122.877 396.478 123.336C396.478 123.848 396.382 124.333 396.19 124.792C396.009 125.24 395.753 125.629 395.422 125.96C395.092 126.291 394.702 126.531 394.254 126.68L396.926 131H394.91L392.446 127.048H389.806V131H388.014ZM389.806 125.464H392.942C393.273 125.464 393.566 125.368 393.822 125.176C394.078 124.973 394.281 124.712 394.43 124.392C394.58 124.072 394.654 123.72 394.654 123.336C394.654 122.941 394.569 122.589 394.398 122.28C394.228 121.96 394.004 121.704 393.726 121.512C393.449 121.32 393.156 121.224 392.846 121.224H389.806V125.464ZM397.62 128.552C397.62 128.019 397.769 127.555 398.068 127.16C398.367 126.755 398.783 126.445 399.316 126.232C399.86 126.008 400.484 125.896 401.188 125.896C401.561 125.896 401.94 125.928 402.324 125.992C402.719 126.045 403.065 126.125 403.364 126.232V125.704C403.364 125.117 403.188 124.659 402.836 124.328C402.484 123.997 401.977 123.832 401.316 123.832C400.857 123.832 400.415 123.912 399.988 124.072C399.561 124.232 399.119 124.467 398.66 124.776L398.068 123.592C398.623 123.229 399.177 122.957 399.732 122.776C400.297 122.584 400.889 122.488 401.508 122.488C402.628 122.488 403.508 122.787 404.148 123.384C404.799 123.971 405.124 124.808 405.124 125.896V129.016C405.124 129.219 405.156 129.363 405.22 129.448C405.295 129.533 405.417 129.581 405.588 129.592V131C405.428 131.032 405.284 131.053 405.156 131.064C405.028 131.075 404.921 131.08 404.836 131.08C404.452 131.08 404.164 130.989 403.972 130.808C403.791 130.616 403.684 130.403 403.652 130.168L403.604 129.688C403.241 130.157 402.777 130.52 402.212 130.776C401.647 131.032 401.076 131.16 400.5 131.16C399.945 131.16 399.449 131.048 399.012 130.824C398.575 130.589 398.233 130.275 397.988 129.88C397.743 129.485 397.62 129.043 397.62 128.552ZM402.948 129.064C403.225 128.787 403.364 128.525 403.364 128.28V127.32C402.735 127.085 402.095 126.968 401.444 126.968C400.804 126.968 400.281 127.101 399.876 127.368C399.481 127.624 399.284 127.971 399.284 128.408C399.284 128.771 399.428 129.107 399.716 129.416C400.015 129.715 400.441 129.864 400.996 129.864C401.369 129.864 401.732 129.789 402.084 129.64C402.436 129.491 402.724 129.299 402.948 129.064ZM407.259 121.256V119.32H409.019V121.256H407.259ZM407.259 131V122.632H409.019V131H407.259ZM418.638 131H416.878V126.312C416.878 125.523 416.75 124.952 416.494 124.6C416.249 124.237 415.881 124.056 415.39 124.056C415.049 124.056 414.707 124.141 414.366 124.312C414.035 124.483 413.737 124.717 413.47 125.016C413.203 125.315 413.011 125.651 412.894 126.024V131H411.134V122.632H412.734V124.312C413.054 123.757 413.518 123.315 414.126 122.984C414.734 122.653 415.406 122.488 416.142 122.488C416.803 122.488 417.315 122.648 417.678 122.968C418.041 123.277 418.291 123.688 418.43 124.2C418.569 124.712 418.638 125.277 418.638 125.896V131ZM425.193 131.16C424.553 131.16 423.972 131.011 423.449 130.712C422.926 130.403 422.521 129.992 422.233 129.48V131H420.681V119.32H422.441V124.216C422.772 123.683 423.182 123.261 423.673 122.952C424.174 122.643 424.761 122.488 425.433 122.488C426.18 122.488 426.83 122.691 427.385 123.096C427.94 123.501 428.372 124.04 428.681 124.712C428.99 125.373 429.145 126.088 429.145 126.856C429.145 127.645 428.969 128.365 428.617 129.016C428.276 129.667 427.806 130.189 427.209 130.584C426.612 130.968 425.94 131.16 425.193 131.16ZM424.729 129.656C425.241 129.656 425.694 129.528 426.089 129.272C426.484 129.005 426.788 128.659 427.001 128.232C427.225 127.805 427.337 127.347 427.337 126.856C427.337 126.355 427.23 125.885 427.017 125.448C426.814 125.011 426.526 124.659 426.153 124.392C425.78 124.125 425.348 123.992 424.857 123.992C424.324 123.992 423.844 124.168 423.417 124.52C422.99 124.872 422.665 125.299 422.441 125.8V128.008C422.526 128.328 422.692 128.611 422.937 128.856C423.182 129.101 423.465 129.299 423.785 129.448C424.116 129.587 424.43 129.656 424.729 129.656ZM434.488 131.16C433.613 131.16 432.851 130.963 432.2 130.568C431.56 130.163 431.064 129.635 430.712 128.984C430.36 128.323 430.184 127.603 430.184 126.824C430.184 126.045 430.36 125.331 430.712 124.68C431.075 124.019 431.576 123.491 432.216 123.096C432.867 122.691 433.624 122.488 434.488 122.488C435.352 122.488 436.104 122.691 436.744 123.096C437.395 123.491 437.896 124.019 438.248 124.68C438.611 125.331 438.792 126.045 438.792 126.824C438.792 127.603 438.616 128.323 438.264 128.984C437.912 129.635 437.411 130.163 436.76 130.568C436.12 130.963 435.363 131.16 434.488 131.16ZM431.992 126.84C431.992 127.373 432.104 127.853 432.328 128.28C432.552 128.707 432.851 129.043 433.224 129.288C433.597 129.533 434.019 129.656 434.488 129.656C434.947 129.656 435.363 129.533 435.736 129.288C436.12 129.032 436.424 128.691 436.648 128.264C436.872 127.837 436.984 127.357 436.984 126.824C436.984 126.291 436.872 125.811 436.648 125.384C436.424 124.957 436.12 124.621 435.736 124.376C435.363 124.12 434.947 123.992 434.488 123.992C434.029 123.992 433.608 124.12 433.224 124.376C432.851 124.621 432.552 124.963 432.328 125.4C432.104 125.827 431.992 126.307 431.992 126.84ZM450.504 122.632H452.184L448.664 131H447.16L445.656 127.224L444.152 131H442.648L439.112 122.632H440.792L443.48 129.288L444.664 126.2L443.224 122.648H444.712L445.656 125.256L446.584 122.648H448.072L446.648 126.2L447.832 129.288L450.504 122.632ZM452.132 131V128.952H453.588V131H452.132Z" fill="url(#paint2_linear)"/>
<path d="M275.712 121.256V119.32H277.472V121.256H275.712ZM275.712 131V122.632H277.472V131H275.712ZM287.091 131H285.331V126.312C285.331 125.523 285.203 124.952 284.947 124.6C284.702 124.237 284.334 124.056 283.843 124.056C283.502 124.056 283.161 124.141 282.819 124.312C282.489 124.483 282.19 124.717 281.923 125.016C281.657 125.315 281.465 125.651 281.347 126.024V131H279.587V122.632H281.187V124.312C281.507 123.757 281.971 123.315 282.579 122.984C283.187 122.653 283.859 122.488 284.595 122.488C285.257 122.488 285.769 122.648 286.131 122.968C286.494 123.277 286.745 123.688 286.883 124.2C287.022 124.712 287.091 125.277 287.091 125.896V131ZM296.304 131.112C295.696 131.112 295.221 130.952 294.88 130.632C294.538 130.301 294.368 129.859 294.368 129.304V122.424C294.368 122.125 294.325 121.843 294.24 121.576C294.154 121.309 294 121.091 293.776 120.92C293.562 120.749 293.258 120.664 292.864 120.664C292.32 120.664 291.925 120.851 291.68 121.224C291.445 121.587 291.322 122.056 291.312 122.632V122.84H292.848V124.2H291.312V131H289.552V124.2H288.432V122.84H289.552V122.36C289.552 121.357 289.834 120.573 290.4 120.008C290.976 119.443 291.786 119.16 292.832 119.16C293.941 119.16 294.768 119.432 295.312 119.976C295.856 120.509 296.128 121.203 296.128 122.056V128.552C296.128 128.957 296.186 129.224 296.304 129.352C296.432 129.48 296.592 129.544 296.784 129.544C296.997 129.544 297.205 129.517 297.408 129.464C297.621 129.411 297.781 129.363 297.888 129.32L298.144 130.744C297.952 130.819 297.674 130.899 297.312 130.984C296.949 131.069 296.613 131.112 296.304 131.112ZM299.07 127.752V122.632H300.83V127.4C300.83 128.904 301.363 129.656 302.43 129.656C302.931 129.656 303.406 129.501 303.854 129.192C304.302 128.872 304.648 128.424 304.894 127.848V122.632H306.654V129.016C306.654 129.219 306.691 129.363 306.766 129.448C306.84 129.533 306.963 129.581 307.134 129.592V131C306.952 131.032 306.803 131.053 306.686 131.064C306.568 131.075 306.456 131.08 306.35 131.08C306.03 131.08 305.763 130.995 305.55 130.824C305.336 130.653 305.214 130.424 305.182 130.136L305.15 129.304C304.776 129.912 304.291 130.376 303.694 130.696C303.096 131.005 302.44 131.16 301.726 131.16C300.851 131.16 300.19 130.872 299.742 130.296C299.294 129.72 299.07 128.872 299.07 127.752ZM312.692 131.16C311.828 131.16 311.07 130.963 310.42 130.568C309.769 130.173 309.262 129.651 308.9 129C308.537 128.339 308.356 127.619 308.356 126.84C308.356 126.051 308.537 125.325 308.9 124.664C309.262 124.003 309.769 123.475 310.42 123.08C311.07 122.685 311.833 122.488 312.708 122.488C313.582 122.488 314.34 122.691 314.98 123.096C315.62 123.491 316.11 124.013 316.452 124.664C316.804 125.315 316.98 126.013 316.98 126.76C316.98 127.027 316.964 127.24 316.932 127.4H310.228C310.26 127.891 310.393 128.323 310.628 128.696C310.873 129.059 311.177 129.347 311.54 129.56C311.913 129.763 312.318 129.864 312.756 129.864C313.225 129.864 313.668 129.747 314.084 129.512C314.5 129.277 314.788 128.968 314.948 128.584L316.452 129.016C316.164 129.645 315.684 130.163 315.012 130.568C314.35 130.963 313.577 131.16 312.692 131.16ZM310.18 126.232H315.236C315.193 125.752 315.054 125.331 314.82 124.968C314.585 124.595 314.281 124.307 313.908 124.104C313.545 123.891 313.14 123.784 312.692 123.784C312.254 123.784 311.849 123.891 311.476 124.104C311.113 124.307 310.814 124.595 310.58 124.968C310.345 125.331 310.212 125.752 310.18 126.232ZM325.919 131H324.159V126.312C324.159 125.523 324.031 124.952 323.775 124.6C323.53 124.237 323.162 124.056 322.671 124.056C322.33 124.056 321.989 124.141 321.647 124.312C321.317 124.483 321.018 124.717 320.751 125.016C320.485 125.315 320.293 125.651 320.175 126.024V131H318.415V122.632H320.015V124.312C320.335 123.757 320.799 123.315 321.407 122.984C322.015 122.653 322.687 122.488 323.423 122.488C324.085 122.488 324.597 122.648 324.959 122.968C325.322 123.277 325.573 123.688 325.711 124.2C325.85 124.712 325.919 125.277 325.919 125.896V131ZM331.754 131.16C330.89 131.16 330.133 130.963 329.482 130.568C328.832 130.163 328.325 129.629 327.962 128.968C327.6 128.307 327.418 127.587 327.418 126.808C327.418 126.029 327.594 125.315 327.946 124.664C328.309 124.003 328.81 123.475 329.45 123.08C330.101 122.685 330.869 122.488 331.754 122.488C332.618 122.488 333.36 122.68 333.978 123.064C334.608 123.437 335.077 123.939 335.386 124.568L333.674 125.112C333.482 124.76 333.21 124.488 332.858 124.296C332.517 124.093 332.138 123.992 331.722 123.992C331.253 123.992 330.826 124.115 330.442 124.36C330.069 124.595 329.77 124.925 329.546 125.352C329.333 125.779 329.226 126.264 329.226 126.808C329.226 127.352 329.338 127.837 329.562 128.264C329.797 128.691 330.101 129.032 330.474 129.288C330.858 129.533 331.28 129.656 331.738 129.656C332.165 129.656 332.57 129.544 332.954 129.32C333.338 129.096 333.594 128.824 333.722 128.504L335.45 129.016C335.173 129.645 334.709 130.163 334.058 130.568C333.408 130.963 332.64 131.16 331.754 131.16ZM340.614 131.16C339.75 131.16 338.992 130.963 338.342 130.568C337.691 130.173 337.184 129.651 336.822 129C336.459 128.339 336.278 127.619 336.278 126.84C336.278 126.051 336.459 125.325 336.822 124.664C337.184 124.003 337.691 123.475 338.342 123.08C338.992 122.685 339.755 122.488 340.63 122.488C341.504 122.488 342.262 122.691 342.902 123.096C343.542 123.491 344.032 124.013 344.374 124.664C344.726 125.315 344.902 126.013 344.902 126.76C344.902 127.027 344.886 127.24 344.854 127.4H338.15C338.182 127.891 338.315 128.323 338.55 128.696C338.795 129.059 339.099 129.347 339.462 129.56C339.835 129.763 340.24 129.864 340.678 129.864C341.147 129.864 341.59 129.747 342.006 129.512C342.422 129.277 342.71 128.968 342.87 128.584L344.374 129.016C344.086 129.645 343.606 130.163 342.934 130.568C342.272 130.963 341.499 131.16 340.614 131.16ZM338.102 126.232H343.158C343.115 125.752 342.976 125.331 342.742 124.968C342.507 124.595 342.203 124.307 341.83 124.104C341.467 123.891 341.062 123.784 340.614 123.784C340.176 123.784 339.771 123.891 339.398 124.104C339.035 124.307 338.736 124.595 338.502 124.968C338.267 125.331 338.134 125.752 338.102 126.232ZM351.041 124.152C350.359 124.173 349.751 124.333 349.217 124.632C348.695 124.92 348.321 125.336 348.097 125.88V131H346.337V122.632H347.969V124.504C348.257 123.928 348.636 123.469 349.105 123.128C349.575 122.776 350.071 122.584 350.593 122.552C350.689 122.552 350.775 122.552 350.849 122.552C350.924 122.552 350.988 122.557 351.041 122.568V124.152ZM355.298 131.16C354.594 131.16 353.927 131.043 353.298 130.808C352.668 130.573 352.13 130.232 351.682 129.784L352.338 128.6C352.818 129.027 353.298 129.336 353.778 129.528C354.258 129.72 354.743 129.816 355.234 129.816C355.724 129.816 356.124 129.725 356.434 129.544C356.743 129.352 356.898 129.075 356.898 128.712C356.898 128.456 356.818 128.259 356.658 128.12C356.498 127.981 356.263 127.869 355.954 127.784C355.655 127.699 355.292 127.592 354.866 127.464C354.268 127.283 353.767 127.096 353.362 126.904C352.956 126.701 352.652 126.456 352.45 126.168C352.247 125.88 352.146 125.512 352.146 125.064C352.146 124.253 352.45 123.624 353.058 123.176C353.666 122.717 354.46 122.488 355.442 122.488C356.05 122.488 356.61 122.584 357.122 122.776C357.644 122.957 358.103 123.245 358.498 123.64L357.746 124.808C357.02 124.147 356.22 123.816 355.346 123.816C354.962 123.816 354.604 123.891 354.274 124.04C353.954 124.189 353.794 124.467 353.794 124.872C353.794 125.213 353.938 125.459 354.226 125.608C354.514 125.757 354.94 125.917 355.506 126.088C356.146 126.28 356.695 126.472 357.154 126.664C357.623 126.845 357.98 127.085 358.226 127.384C358.482 127.672 358.61 128.072 358.61 128.584C358.61 129.395 358.306 130.029 357.698 130.488C357.09 130.936 356.29 131.16 355.298 131.16Z" fill="#FFF129"/>
<defs>
<linearGradient id="paint0_linear" x1="251.5" y1="0" x2="251.5" y2="56" gradientUnits="userSpaceOnUse">
<stop stop-color="white"/>
<stop offset="1" stop-color="white" stop-opacity="0"/>
</linearGradient>
<linearGradient id="paint1_linear" x1="251.5" y1="45" x2="251.5" y2="91" gradientUnits="userSpaceOnUse">
<stop stop-color="white"/>
<stop offset="1" stop-color="white" stop-opacity="0"/>
</linearGradient>
<linearGradient id="paint2_linear" x1="251.5" y1="113" x2="251.5" y2="137" gradientUnits="userSpaceOnUse">
<stop stop-color="white"/>
<stop offset="1" stop-color="white" stop-opacity="0"/>
</linearGradient>
</defs>
</svg>
